<svg xmlns="http://www.w3.org/2000/svg" viewBox="0 0 595.28 841.89"><defs><style>.cls-1{fill:#c6c6c6;}</style></defs><title>fondos</title><g id="fondo-comidas"><path class="cls-1" d="M48.39-44.06a2.57,2.57,0,0,1,1.78,2.79q0,15.23,0,30.45c0,3.5-1.81,5.93-4.95,6.75a16.69,16.69,0,0,1-1.86.26c.09,1.55.18,3.08.28,4.61l1.23,18.33c.47,7.07.93,14.14,1.42,21.21.15,2.18.22,4.33-.92,6.32a8.31,8.31,0,0,1-14.62-.06c-1.22-2.14-1-4.47-.86-6.78q.71-10.8,1.43-21.58Q32,7.77,32.73-2.69c0-.33,0-.67.05-1.07a5.42,5.42,0,0,0-.62-.14C28.36-4.31,26-6.79,26-10.57c0-10.31,0-20.61,0-30.92a2.46,2.46,0,0,1,1.83-2.57h.75a2.61,2.61,0,0,1,1.83,2.86c0,7.64,0,15.28,0,22.93v1.1H35.9v-1.14c0-7.64,0-15.28,0-22.93a2.62,2.62,0,0,1,1.74-2.82h.92a2.71,2.71,0,0,1,1.71,2.85c0,7.64,0,15.28,0,22.92v1.1h5.56v-1.17c0-7.6,0-15.21,0-22.82a2.76,2.76,0,0,1,1.68-2.88ZM38.93-4c-.72.45-1.76-.46-1.84,1-.23,4-.51,8.08-.78,12.13q-.6,9.07-1.22,18.14c-.33,5-.7,10.06-1,15.1a3.92,3.92,0,0,0,4,4.31A4,4,0,0,0,42,42.24c-.29-4.73-.62-9.45-.94-14.17q-.81-12.22-1.63-24.44Zm-8.59-8.65c0,.82,0,1.53,0,2.24a2.08,2.08,0,0,0,2.22,2.21c3.68,0,7.36,0,11,0a1.93,1.93,0,0,0,2.08-1.62,20.53,20.53,0,0,0,0-2.83Z"/><path class="cls-1" d="M2.89-44.06A31.31,31.31,0,0,1,7.8-42.24c4,2.24,6.32,5.86,7.64,10.11A23.58,23.58,0,0,1,13.67-13a15.43,15.43,0,0,1-6.3,6.38.9.9,0,0,0-.55,1Q7.9,10.21,9,26c.35,5.19.7,10.37,1,15.56a8.41,8.41,0,0,1-4.65,8.49C.08,52.92-6.85,49-6.95,43.06c0-3.09.25-6.18.45-9.26.38-6.09.8-12.16,1.21-18.24q.7-10.51,1.38-21c0-.36-.12-.92-.38-1.06A17.42,17.42,0,0,1-12.47-17a23.34,23.34,0,0,1,2-19.43c2.3-4,5.58-6.73,10.28-7.49a1.4,1.4,0,0,0,.34-.13Zm9.39,19.17A18.42,18.42,0,0,0,9.29-35c-4.06-6.07-11-6.26-15.33-.41s-4.31,16.18.29,22c4.09,5.19,10.34,5.21,14.43,0C11.26-16.63,12.21-20.45,12.28-24.89ZM.46-5.09C.21-1.39,0,2.24-.27,5.88Q-.88,15-1.49,24.11C-1.89,30-2.3,36-2.66,41.88a5.33,5.33,0,0,0,.32,2.17,4.08,4.08,0,0,0,4.82,2.49A4.22,4.22,0,0,0,5.64,42c-.36-5.8-.76-11.6-1.15-17.4Q3.7,12.51,2.88.44c-.12-1.84-.26-3.68-.39-5.53Z"/><path class="cls-1" d="M79.59-44.06a3.17,3.17,0,0,1,1.53,3.17q0,42.38,0,84.76c0,3.88-2.18,6.56-5.72,7a6.48,6.48,0,0,1-7.27-5.81,14.55,14.55,0,0,1,0-1.48q0-13.74,0-27.48V15a3.36,3.36,0,0,0-.48-.16,4.55,4.55,0,0,1-4-4.8c0-5.05,0-10.09,0-15.13,0-4.71-.13-9.42,0-14.11C64-29.66,68.77-37.76,77.5-43.55c.31-.2.65-.34,1-.51ZM76.71-37.5a25.19,25.19,0,0,0-6.63,9,27.28,27.28,0,0,0-2.17,11.2q0,11.46,0,22.93c0,1.36,0,2.72,0,4.08,0,.7.22.9.91.89,2.38,0,4.76,0,7.15,0a7.48,7.48,0,0,0,.75-.07ZM72.46,15c0,.36,0,.64,0,.91V43.83a5.79,5.79,0,0,0,.12,1.1,2.08,2.08,0,0,0,3.26,1.28,2.62,2.62,0,0,0,1-2.46V15Z"/><path class="cls-1" d="M548.82-44.06a2.59,2.59,0,0,1,1.79,2.79c0,10.15,0,20.3,0,30.45,0,3.5-1.8,5.93-4.94,6.75a17,17,0,0,1-1.86.26c.09,1.55.17,3.08.28,4.61.4,6.11.82,12.22,1.22,18.33.48,7.07.94,14.14,1.43,21.21.15,2.18.21,4.33-.92,6.32a8.32,8.32,0,0,1-14.63-.06c-1.21-2.14-1-4.47-.86-6.78l1.44-21.58,1.41-20.93c0-.33,0-.67.06-1.07a5.94,5.94,0,0,0-.62-.14c-3.8-.41-6.19-2.89-6.2-6.67,0-10.31,0-20.61,0-30.92a2.46,2.46,0,0,1,1.83-2.57H529a2.59,2.59,0,0,1,1.83,2.86c0,7.64,0,15.28,0,22.93v1.1h5.56v-1.14c0-7.64,0-15.28,0-22.93a2.62,2.62,0,0,1,1.73-2.82H539a2.69,2.69,0,0,1,1.7,2.85c0,7.64,0,15.28,0,22.92v1.1h5.56v-1.17c0-7.6,0-15.21,0-22.82a2.76,2.76,0,0,1,1.68-2.88ZM539.36-4c-.71.45-1.75-.46-1.83,1-.24,4-.51,8.08-.78,12.13q-.62,9.07-1.22,18.14c-.34,5-.71,10.06-1,15.1a4,4,0,1,0,7.92-.09c-.29-4.73-.62-9.45-.93-14.17q-.82-12.22-1.63-24.44C539.73,1.16,539.55-1.3,539.36-4Zm-8.58-8.65c0,.82,0,1.53,0,2.24A2.07,2.07,0,0,0,533-8.24c3.68,0,7.36,0,11,0a1.93,1.93,0,0,0,2.08-1.62,22.24,22.24,0,0,0,0-2.83Z"/><path class="cls-1" d="M503.32-44.06a30.94,30.94,0,0,1,4.91,1.82c4,2.24,6.33,5.86,7.65,10.11A23.62,23.62,0,0,1,514.11-13a15.43,15.43,0,0,1-6.3,6.38.91.91,0,0,0-.56,1q1.1,15.84,2.15,31.66c.35,5.19.7,10.37,1,15.56a8.41,8.41,0,0,1-4.65,8.49c-5.23,2.84-12.16-1.07-12.26-7-.05-3.09.25-6.18.44-9.26.39-6.09.81-12.16,1.22-18.24q.71-10.51,1.38-21a1.34,1.34,0,0,0-.38-1.06A17.42,17.42,0,0,1,488-17a23.37,23.37,0,0,1,1.94-19.43c2.31-4,5.59-6.73,10.29-7.49a1.81,1.81,0,0,0,.34-.13Zm9.4,19.17a18.43,18.43,0,0,0-3-10.11c-4.05-6.07-11-6.26-15.32-.41s-4.31,16.18.29,22c4.08,5.19,10.34,5.21,14.43,0C511.7-16.63,512.64-20.45,512.72-24.89ZM500.9-5.09c-.25,3.7-.49,7.33-.74,11q-.6,9.11-1.22,18.23c-.39,5.92-.8,11.85-1.16,17.77a5.5,5.5,0,0,0,.31,2.17,4.09,4.09,0,0,0,4.83,2.49A4.22,4.22,0,0,0,506.08,42c-.36-5.8-.76-11.6-1.15-17.4q-.81-12.09-1.61-24.16l-.39-5.53Z"/><path class="cls-1" d="M580-44.06a3.15,3.15,0,0,1,1.52,3.17q0,42.38,0,84.76c0,3.88-2.18,6.56-5.71,7a6.48,6.48,0,0,1-7.27-5.81,14.54,14.54,0,0,1,0-1.48V15a3.91,3.91,0,0,0-.49-.16,4.54,4.54,0,0,1-4-4.8C564,5,564,0,564-5.06c0-4.71-.13-9.42.05-14.11.41-10.49,5.14-18.59,13.87-24.38.3-.2.65-.34,1-.51Zm-2.88,6.56a25.07,25.07,0,0,0-6.63,9,27.28,27.28,0,0,0-2.17,11.2V5.61c0,1.36,0,2.72,0,4.08,0,.7.22.9.91.89,2.38,0,4.76,0,7.14,0a7.4,7.4,0,0,0,.76-.07ZM572.89,15c0,.36,0,.64,0,.91V43.83a5.78,5.78,0,0,0,.11,1.1,2.09,2.09,0,0,0,3.27,1.28,2.62,2.62,0,0,0,1-2.46V15Z"/><path class="cls-1" d="M173.5-44.06a2.58,2.58,0,0,1,1.78,2.79c0,10.15,0,20.3,0,30.45,0,3.5-1.81,5.93-5,6.75a16.69,16.69,0,0,1-1.86.26c.09,1.55.18,3.08.28,4.61q.6,9.17,1.23,18.33c.47,7.07.93,14.14,1.42,21.21.15,2.18.22,4.33-.92,6.32a8.32,8.32,0,0,1-14.63-.06c-1.21-2.14-1-4.47-.85-6.78q.7-10.8,1.43-21.58l1.41-20.93c0-.33,0-.67.06-1.07a5.42,5.42,0,0,0-.62-.14c-3.8-.41-6.19-2.89-6.2-6.67,0-10.31,0-20.61,0-30.92a2.46,2.46,0,0,1,1.83-2.57h.74a2.59,2.59,0,0,1,1.83,2.86q0,11.46,0,22.93v1.1H161v-1.14c0-7.64,0-15.28,0-22.93a2.62,2.62,0,0,1,1.74-2.82h.92a2.71,2.71,0,0,1,1.71,2.85c0,7.64,0,15.28,0,22.92v1.1h5.56v-1.17c0-7.6,0-15.21,0-22.82a2.76,2.76,0,0,1,1.68-2.88ZM164-4c-.72.45-1.76-.46-1.84,1-.24,4-.51,8.08-.78,12.13q-.6,9.07-1.22,18.14c-.34,5-.7,10.06-1,15.1a3.92,3.92,0,0,0,4,4.31,4,4,0,0,0,3.88-4.4c-.29-4.73-.63-9.45-.94-14.17q-.81-12.22-1.63-24.44Zm-8.59-8.65c0,.82,0,1.53,0,2.24a2.08,2.08,0,0,0,2.22,2.21c3.68,0,7.36,0,11,0a1.93,1.93,0,0,0,2.08-1.62,20.53,20.53,0,0,0,0-2.83Z"/><path class="cls-1" d="M128-44.06a31.05,31.05,0,0,1,4.92,1.82c4,2.24,6.32,5.86,7.64,10.11A23.58,23.58,0,0,1,138.78-13a15.43,15.43,0,0,1-6.3,6.38.89.89,0,0,0-.55,1Q133,10.21,134.07,26c.35,5.19.7,10.37,1,15.56a8.41,8.41,0,0,1-4.65,8.49c-5.23,2.84-12.16-1.07-12.26-7,0-3.09.25-6.18.44-9.26.39-6.09.81-12.16,1.22-18.24q.71-10.51,1.38-21a1.34,1.34,0,0,0-.38-1.06A17.42,17.42,0,0,1,112.64-17a23.34,23.34,0,0,1,2-19.43c2.3-4,5.58-6.73,10.28-7.49a1.4,1.4,0,0,0,.34-.13Zm9.4,19.17a18.5,18.5,0,0,0-3-10.11c-4.06-6.07-11-6.26-15.33-.41s-4.31,16.18.29,22c4.08,5.19,10.34,5.21,14.43,0C136.37-16.63,137.32-20.45,137.39-24.89ZM125.57-5.09c-.25,3.7-.49,7.33-.73,11q-.61,9.11-1.22,18.23c-.4,5.92-.81,11.85-1.17,17.77a5.5,5.5,0,0,0,.31,2.17,4.09,4.09,0,0,0,4.83,2.49A4.22,4.22,0,0,0,130.75,42c-.36-5.8-.76-11.6-1.15-17.4Q128.79,12.51,128,.44l-.39-5.53Z"/><path class="cls-1" d="M204.7-44.06a3.17,3.17,0,0,1,1.53,3.17q0,42.38,0,84.76c0,3.88-2.17,6.56-5.71,7a6.48,6.48,0,0,1-7.27-5.81,14.55,14.55,0,0,1,0-1.48q0-13.74,0-27.48V15a3.36,3.36,0,0,0-.48-.16,4.55,4.55,0,0,1-4-4.8c0-5.05,0-10.09,0-15.13,0-4.71-.13-9.42.05-14.11.4-10.49,5.13-18.59,13.86-24.38.31-.2.65-.34,1-.51Zm-2.88,6.56a25.19,25.19,0,0,0-6.63,9A27.28,27.28,0,0,0,193-17.32V5.61c0,1.36,0,2.72,0,4.08,0,.7.22.9.91.89,2.38,0,4.76,0,7.14,0a7.4,7.4,0,0,0,.76-.07ZM197.57,15c0,.36,0,.64,0,.91V43.83a5.08,5.08,0,0,0,.12,1.1,2.08,2.08,0,0,0,3.26,1.28,2.62,2.62,0,0,0,1-2.46V15Z"/><path class="cls-1" d="M423.72-44.06a2.59,2.59,0,0,1,1.78,2.79c0,10.15,0,20.3,0,30.45,0,3.5-1.81,5.93-4.95,6.75a17,17,0,0,1-1.86.26c.09,1.55.18,3.08.28,4.61q.6,9.17,1.23,18.33c.47,7.07.93,14.14,1.42,21.21.15,2.18.21,4.33-.92,6.32a8.32,8.32,0,0,1-14.63-.06c-1.21-2.14-1-4.47-.85-6.78q.71-10.8,1.43-21.58l1.41-20.93c0-.33,0-.67.06-1.07a5.94,5.94,0,0,0-.62-.14c-3.8-.41-6.19-2.89-6.2-6.67,0-10.31,0-20.61,0-30.92a2.46,2.46,0,0,1,1.83-2.57h.74a2.59,2.59,0,0,1,1.83,2.86q0,11.46,0,22.93v1.1h5.56v-1.14c0-7.64,0-15.28,0-22.93a2.62,2.62,0,0,1,1.73-2.82h.93a2.69,2.69,0,0,1,1.7,2.85c0,7.64,0,15.28,0,22.92v1.1h5.56v-1.17c0-7.6,0-15.21,0-22.82a2.76,2.76,0,0,1,1.68-2.88ZM414.26-4c-.72.45-1.76-.46-1.84,1-.24,4-.51,8.08-.78,12.13-.4,6.05-.82,12.1-1.22,18.14-.34,5-.71,10.06-1,15.1a3.94,3.94,0,0,0,4.05,4.31,4,4,0,0,0,3.88-4.4c-.3-4.73-.63-9.45-.94-14.17q-.82-12.22-1.63-24.44Zm-8.59-8.65c0,.82,0,1.53,0,2.24a2.08,2.08,0,0,0,2.22,2.21c3.68,0,7.36,0,11,0A1.93,1.93,0,0,0,421-9.86a22.24,22.24,0,0,0,0-2.83Z"/><path class="cls-1" d="M378.21-44.06a30.94,30.94,0,0,1,4.91,1.82c4,2.24,6.33,5.86,7.65,10.11A23.58,23.58,0,0,1,389-13a15.43,15.43,0,0,1-6.3,6.38.91.91,0,0,0-.56,1q1.1,15.84,2.15,31.66c.35,5.19.7,10.37,1,15.56a8.41,8.41,0,0,1-4.65,8.49c-5.23,2.84-12.16-1.07-12.26-7-.05-3.09.25-6.18.44-9.26.39-6.09.81-12.16,1.22-18.24q.7-10.51,1.38-21A1.34,1.34,0,0,0,371-6.52,17.42,17.42,0,0,1,362.86-17a23.37,23.37,0,0,1,1.94-19.43c2.31-4,5.59-6.73,10.29-7.49a1.81,1.81,0,0,0,.34-.13Zm9.4,19.17a18.43,18.43,0,0,0-3-10.11c-4.05-6.07-11-6.26-15.32-.41s-4.31,16.18.29,22c4.08,5.19,10.34,5.21,14.43,0C386.59-16.63,387.53-20.45,387.61-24.89ZM375.79-5.09c-.25,3.7-.49,7.33-.74,11q-.6,9.11-1.22,18.23C373.44,30,373,36,372.67,41.88a5.5,5.5,0,0,0,.31,2.17,4.09,4.09,0,0,0,4.83,2.49A4.22,4.22,0,0,0,381,42c-.36-5.8-.76-11.6-1.15-17.4Q379,12.51,378.21.44l-.39-5.53Z"/><path class="cls-1" d="M454.92-44.06a3.17,3.17,0,0,1,1.53,3.17q0,42.38,0,84.76c0,3.88-2.18,6.56-5.71,7a6.48,6.48,0,0,1-7.27-5.81,14.54,14.54,0,0,1-.05-1.48V15a4.45,4.45,0,0,0-.48-.16,4.54,4.54,0,0,1-4-4.8c0-5.05,0-10.09,0-15.13,0-4.71-.13-9.42.06-14.11.4-10.49,5.13-18.59,13.86-24.38.3-.2.65-.34,1-.51ZM452-37.5a25.07,25.07,0,0,0-6.63,9,27.28,27.28,0,0,0-2.17,11.2V5.61c0,1.36,0,2.72,0,4.08,0,.7.22.9.91.89,2.38,0,4.76,0,7.14,0a7.4,7.4,0,0,0,.76-.07ZM447.78,15c0,.36,0,.64,0,.91V43.83a5.78,5.78,0,0,0,.11,1.1,2.09,2.09,0,0,0,3.27,1.28,2.62,2.62,0,0,0,1-2.46V15Z"/><path class="cls-1" d="M298.61-44.06a2.59,2.59,0,0,1,1.78,2.79c0,10.15,0,20.3,0,30.45,0,3.5-1.81,5.93-4.95,6.75a17,17,0,0,1-1.86.26c.09,1.55.18,3.08.28,4.61q.6,9.17,1.23,18.33c.47,7.07.93,14.14,1.42,21.21.15,2.18.21,4.33-.92,6.32A8.32,8.32,0,0,1,281,46.6c-1.21-2.14-1-4.47-.85-6.78q.7-10.8,1.43-21.58l1.41-20.93c0-.33,0-.67.06-1.07a5.94,5.94,0,0,0-.62-.14c-3.8-.41-6.19-2.89-6.2-6.67,0-10.31,0-20.61,0-30.92A2.46,2.46,0,0,1,278-44.06h.74a2.59,2.59,0,0,1,1.83,2.86q0,11.46,0,22.93v1.1h5.55v-1.14c0-7.64,0-15.28,0-22.93a2.62,2.62,0,0,1,1.73-2.82h.93a2.69,2.69,0,0,1,1.7,2.85c0,7.64,0,15.28,0,22.92v1.1H296v-1.17c0-7.6,0-15.21,0-22.82a2.76,2.76,0,0,1,1.68-2.88ZM289.15-4c-.72.45-1.76-.46-1.84,1-.24,4-.51,8.08-.78,12.13-.4,6.05-.82,12.1-1.22,18.14-.34,5-.71,10.06-1,15.1a3.92,3.92,0,0,0,4,4.31,4,4,0,0,0,3.88-4.4c-.3-4.73-.63-9.45-.94-14.17q-.81-12.22-1.63-24.44Zm-8.59-8.65c0,.82,0,1.53,0,2.24a2.08,2.08,0,0,0,2.22,2.21c3.68,0,7.36,0,11,0a1.93,1.93,0,0,0,2.08-1.62,22.23,22.23,0,0,0,0-2.83Z"/><path class="cls-1" d="M253.1-44.06A30.94,30.94,0,0,1,258-42.24c4,2.24,6.33,5.86,7.65,10.11A23.58,23.58,0,0,1,263.89-13a15.43,15.43,0,0,1-6.3,6.38.91.91,0,0,0-.56,1q1.1,15.84,2.15,31.66c.35,5.19.7,10.37,1,15.56a8.41,8.41,0,0,1-4.65,8.49c-5.23,2.84-12.16-1.07-12.26-7-.05-3.09.25-6.18.44-9.26.39-6.09.81-12.16,1.22-18.24q.7-10.51,1.38-21a1.34,1.34,0,0,0-.38-1.06A17.42,17.42,0,0,1,237.75-17a23.37,23.37,0,0,1,1.94-19.43c2.31-4,5.59-6.73,10.29-7.49a1.58,1.58,0,0,0,.34-.13Zm9.4,19.17a18.5,18.5,0,0,0-3-10.11c-4.06-6.07-11-6.26-15.33-.41s-4.31,16.18.29,22c4.08,5.19,10.34,5.21,14.43,0C261.48-16.63,262.42-20.45,262.5-24.89ZM250.68-5.09c-.25,3.7-.49,7.33-.73,11l-1.23,18.23c-.39,5.92-.8,11.85-1.16,17.77a5.5,5.5,0,0,0,.31,2.17,4.09,4.09,0,0,0,4.83,2.49A4.22,4.22,0,0,0,255.86,42c-.36-5.8-.76-11.6-1.15-17.4Q253.9,12.51,253.1.44l-.39-5.53Z"/><path class="cls-1" d="M329.81-44.06a3.17,3.17,0,0,1,1.53,3.17q0,42.38,0,84.76c0,3.88-2.18,6.56-5.71,7a6.48,6.48,0,0,1-7.27-5.81,14.55,14.55,0,0,1,0-1.48q0-13.74,0-27.48V15a4.45,4.45,0,0,0-.48-.16,4.54,4.54,0,0,1-4-4.8c0-5.05,0-10.09,0-15.13,0-4.71-.14-9.42.05-14.11.4-10.49,5.13-18.59,13.86-24.38.3-.2.65-.34,1-.51Zm-2.88,6.56a25.19,25.19,0,0,0-6.63,9,27.28,27.28,0,0,0-2.17,11.2V5.61c0,1.36,0,2.72,0,4.08,0,.7.22.9.91.89,2.38,0,4.76,0,7.14,0a7.4,7.4,0,0,0,.76-.07ZM322.68,15c0,.36-.05.64-.05.91V43.83a5.08,5.08,0,0,0,.12,1.1A2.08,2.08,0,0,0,326,46.21a2.62,2.62,0,0,0,1-2.46V15Z"/><path class="cls-1" d="M124.66,75.21a2.6,2.6,0,0,1,1.79,2.8c0,10.15,0,20.3,0,30.45,0,3.49-1.8,5.92-5,6.74a16.54,16.54,0,0,1-1.86.27c.1,1.55.18,3.08.28,4.6l1.23,18.34c.48,7.07.94,14.14,1.43,21.2.14,2.18.21,4.34-.93,6.32a8.31,8.31,0,0,1-14.62-.05c-1.22-2.15-1-4.47-.86-6.79l1.44-21.57L109,116.59c0-.34,0-.68.06-1.07-.23,0-.42-.12-.62-.15-3.81-.4-6.19-2.89-6.2-6.67,0-10.3,0-20.61,0-30.91a2.46,2.46,0,0,1,1.83-2.58h.74a2.6,2.6,0,0,1,1.83,2.86c0,7.65,0,15.29,0,22.93v1.11h5.56V101c0-7.64,0-15.29,0-22.93a2.65,2.65,0,0,1,1.74-2.83h.93a2.69,2.69,0,0,1,1.7,2.86c0,7.64,0,15.28,0,22.92v1.1h5.57v-1.17c0-7.61,0-15.22,0-22.82a2.78,2.78,0,0,1,1.68-2.89Zm-9.46,40c-.71.45-1.75-.46-1.84,1-.23,4-.51,8.09-.77,12.13q-.61,9.07-1.22,18.15c-.34,5-.71,10.06-1,15.09a3.92,3.92,0,0,0,4.05,4.31,4,4,0,0,0,3.87-4.4c-.29-4.72-.62-9.44-.93-14.16q-.83-12.22-1.64-24.45C115.57,120.44,115.39,118,115.2,115.24Zm-8.58-8.65c0,.82,0,1.52,0,2.23a2.07,2.07,0,0,0,2.22,2.22q5.52,0,11,0a1.94,1.94,0,0,0,2.08-1.62,22.26,22.26,0,0,0,0-2.83Z"/><path class="cls-1" d="M79.16,75.21A30.94,30.94,0,0,1,84.07,77a16.78,16.78,0,0,1,7.65,10.12A23.63,23.63,0,0,1,90,106.26a15.53,15.53,0,0,1-6.3,6.37.92.92,0,0,0-.56,1q1.09,15.82,2.15,31.66c.34,5.19.7,10.37,1,15.56a8.43,8.43,0,0,1-4.65,8.49c-5.23,2.83-12.16-1.08-12.26-7,0-3.08.25-6.17.44-9.26.39-6.08.81-12.16,1.22-18.24.46-7,.94-14,1.38-21a1.36,1.36,0,0,0-.38-1.06,17.35,17.35,0,0,1-8.18-10.49,23.35,23.35,0,0,1,1.94-19.42c2.3-4,5.59-6.73,10.28-7.49a1.7,1.7,0,0,0,.35-.14Zm9.39,19.17a18.38,18.38,0,0,0-3-10.1c-4.06-6.08-11-6.26-15.32-.41s-4.31,16.18.29,22c4.08,5.19,10.34,5.22,14.43,0C87.53,102.65,88.48,98.83,88.55,94.38ZM76.74,114.19c-.25,3.69-.49,7.33-.74,11q-.6,9.12-1.22,18.23c-.39,5.93-.8,11.85-1.16,17.78a5.32,5.32,0,0,0,.31,2.17,4.1,4.1,0,0,0,4.83,2.49,4.24,4.24,0,0,0,3.16-4.55c-.36-5.8-.76-11.6-1.15-17.4l-1.62-24.16c-.12-1.84-.26-3.67-.39-5.52Z"/><path class="cls-1" d="M155.86,75.21a3.16,3.16,0,0,1,1.53,3.17q0,42.39,0,84.76c0,3.89-2.18,6.56-5.71,7a6.48,6.48,0,0,1-7.27-5.8,14.64,14.64,0,0,1,0-1.48V134.31a4.16,4.16,0,0,0-.49-.17,4.53,4.53,0,0,1-4-4.8c0-5,0-10.08,0-15.13,0-4.7-.13-9.41,0-14.11.41-10.48,5.14-18.59,13.87-24.37a10,10,0,0,1,1-.52ZM153,81.78a25.07,25.07,0,0,0-6.63,9,27.25,27.25,0,0,0-2.17,11.2v22.92c0,1.36,0,2.72,0,4.08,0,.71.22.91.9.9,2.39,0,4.77,0,7.15,0,.24,0,.48,0,.76-.06Zm-4.26,52.49c0,.37,0,.64,0,.91q0,14,0,27.93a5.86,5.86,0,0,0,.11,1.1,2.1,2.1,0,0,0,3.27,1.28,2.67,2.67,0,0,0,1-2.47V134.27Z"/><path class="cls-1" d="M579.6,75.21A31.31,31.31,0,0,1,584.51,77c4,2.25,6.32,5.87,7.65,10.12a23.63,23.63,0,0,1-1.78,19.11,15.47,15.47,0,0,1-6.3,6.37.92.92,0,0,0-.55,1q1.1,15.82,2.14,31.66c.35,5.19.7,10.37,1,15.56a8.42,8.42,0,0,1-4.65,8.49c-5.22,2.83-12.16-1.08-12.26-7,0-3.08.25-6.17.45-9.26.38-6.08.81-12.16,1.21-18.24q.71-10.5,1.38-21a1.32,1.32,0,0,0-.37-1.06,17.37,17.37,0,0,1-8.19-10.49,23.35,23.35,0,0,1,2-19.42c2.3-4,5.59-6.73,10.28-7.49a1.43,1.43,0,0,0,.34-.14ZM589,94.38a18.38,18.38,0,0,0-3-10.1c-4.06-6.08-11-6.26-15.32-.41s-4.32,16.18.29,22c4.08,5.19,10.33,5.22,14.42,0C588,102.65,588.92,98.83,589,94.38Zm-11.82,19.81c-.24,3.69-.49,7.33-.73,11q-.62,9.12-1.22,18.23c-.4,5.93-.81,11.85-1.16,17.78a5.16,5.16,0,0,0,.31,2.17,4.09,4.09,0,0,0,4.83,2.49,4.24,4.24,0,0,0,3.15-4.55c-.35-5.8-.76-11.6-1.14-17.4l-1.62-24.16c-.12-1.84-.26-3.67-.39-5.52Z"/><path class="cls-1" d="M249.77,75.21a2.6,2.6,0,0,1,1.79,2.8c0,10.15,0,20.3,0,30.45,0,3.49-1.8,5.92-4.95,6.74a16.54,16.54,0,0,1-1.86.27c.1,1.55.18,3.08.28,4.6l1.23,18.34c.48,7.07.94,14.14,1.42,21.2.15,2.18.22,4.34-.92,6.32a8.31,8.31,0,0,1-14.62-.05c-1.22-2.15-1-4.47-.86-6.79l1.44-21.57,1.41-20.93c0-.34,0-.68,0-1.07-.22,0-.41-.12-.62-.15-3.8-.4-6.18-2.89-6.2-6.67,0-10.3,0-20.61,0-30.91a2.46,2.46,0,0,1,1.83-2.58h.74a2.6,2.6,0,0,1,1.83,2.86c0,7.65,0,15.29,0,22.93v1.11h5.56V101c0-7.64,0-15.29,0-22.93A2.65,2.65,0,0,1,239,75.21h.93a2.69,2.69,0,0,1,1.7,2.86c0,7.64,0,15.28,0,22.92v1.1h5.57v-1.17c0-7.61,0-15.22,0-22.82a2.78,2.78,0,0,1,1.68-2.89Zm-9.46,40c-.71.45-1.75-.46-1.84,1-.23,4-.51,8.09-.78,12.13q-.6,9.07-1.21,18.15c-.34,5-.71,10.06-1,15.09a3.92,3.92,0,0,0,4,4.31,4,4,0,0,0,3.87-4.4c-.29-4.72-.62-9.44-.94-14.16q-.81-12.22-1.63-24.45C240.68,120.44,240.5,118,240.31,115.24Zm-8.59-8.65c0,.82,0,1.52,0,2.23A2.07,2.07,0,0,0,234,111q5.52,0,11,0a1.93,1.93,0,0,0,2.07-1.62,20.55,20.55,0,0,0,0-2.83Z"/><path class="cls-1" d="M204.27,75.21A31.31,31.31,0,0,1,209.18,77a16.78,16.78,0,0,1,7.65,10.12,23.67,23.67,0,0,1-1.77,19.11,15.59,15.59,0,0,1-6.3,6.37.92.92,0,0,0-.56,1q1.1,15.82,2.15,31.66c.34,5.19.7,10.37,1,15.56a8.43,8.43,0,0,1-4.65,8.49c-5.23,2.83-12.17-1.08-12.26-7-.05-3.08.24-6.17.44-9.26.39-6.08.81-12.16,1.22-18.24q.69-10.5,1.38-21a1.36,1.36,0,0,0-.38-1.06,17.41,17.41,0,0,1-8.19-10.49,23.39,23.39,0,0,1,2-19.42c2.3-4,5.59-6.73,10.28-7.49a1.43,1.43,0,0,0,.34-.14Zm9.39,19.17a18.38,18.38,0,0,0-3-10.1c-4.06-6.08-11-6.26-15.32-.41s-4.32,16.18.29,22c4.08,5.19,10.33,5.22,14.42,0C212.64,102.65,213.59,98.83,213.66,94.38Zm-11.81,19.81c-.25,3.69-.5,7.33-.74,11q-.62,9.12-1.22,18.23c-.39,5.93-.8,11.85-1.16,17.78a5.32,5.32,0,0,0,.31,2.17,4.1,4.1,0,0,0,4.83,2.49,4.24,4.24,0,0,0,3.16-4.55c-.36-5.8-.77-11.6-1.15-17.4l-1.62-24.16c-.12-1.84-.26-3.67-.39-5.52Z"/><path class="cls-1" d="M281,75.21a3.16,3.16,0,0,1,1.53,3.17q0,42.39,0,84.76c0,3.89-2.18,6.56-5.71,7a6.48,6.48,0,0,1-7.27-5.8,14.64,14.64,0,0,1-.05-1.48V134.31a4.16,4.16,0,0,0-.49-.17,4.53,4.53,0,0,1-4-4.8c0-5,0-10.08,0-15.13,0-4.7-.13-9.41,0-14.11.41-10.48,5.14-18.59,13.87-24.37a10,10,0,0,1,1-.52Zm-2.87,6.57a25.07,25.07,0,0,0-6.63,9A27.08,27.08,0,0,0,269.3,102v22.92c0,1.36,0,2.72,0,4.08,0,.71.22.91.9.9,2.39,0,4.77,0,7.15,0,.24,0,.48,0,.76-.06Zm-4.26,52.49c0,.37,0,.64,0,.91q0,14,0,27.93a5.86,5.86,0,0,0,.11,1.1,2.1,2.1,0,0,0,3.27,1.28,2.67,2.67,0,0,0,1-2.47V134.27Z"/><path class="cls-1" d="M500,75.21a2.6,2.6,0,0,1,1.79,2.8c0,10.15,0,20.3,0,30.45,0,3.49-1.81,5.92-4.95,6.74a16.54,16.54,0,0,1-1.86.27c.1,1.55.18,3.08.28,4.6l1.23,18.34q.71,10.6,1.42,21.2c.15,2.18.22,4.34-.92,6.32a8.31,8.31,0,0,1-14.62-.05c-1.22-2.15-1-4.47-.86-6.79l1.44-21.57,1.41-20.93c0-.34,0-.68.05-1.07-.22,0-.42-.12-.62-.15-3.8-.4-6.18-2.89-6.2-6.67,0-10.3,0-20.61,0-30.91a2.46,2.46,0,0,1,1.83-2.58h.74A2.61,2.61,0,0,1,482,78.07c0,7.65,0,15.29,0,22.93v1.11h5.56V101c0-7.64,0-15.29,0-22.93a2.65,2.65,0,0,1,1.74-2.83h.93a2.69,2.69,0,0,1,1.7,2.86c0,7.64,0,15.28,0,22.92v1.1h5.57v-1.17c0-7.61,0-15.22,0-22.82a2.78,2.78,0,0,1,1.68-2.89Zm-9.46,40c-.71.45-1.75-.46-1.84,1-.23,4-.51,8.09-.78,12.13q-.6,9.07-1.22,18.15c-.33,5-.7,10.06-1,15.09a3.91,3.91,0,0,0,4,4.31,4,4,0,0,0,3.88-4.4c-.29-4.72-.62-9.44-.94-14.16q-.81-12.22-1.63-24.45C490.9,120.44,490.72,118,490.53,115.24Zm-8.59-8.65c0,.82,0,1.52,0,2.23a2.07,2.07,0,0,0,2.21,2.22q5.54,0,11,0a1.93,1.93,0,0,0,2.07-1.62,20.55,20.55,0,0,0,0-2.83Z"/><path class="cls-1" d="M454.49,75.21A31.31,31.31,0,0,1,459.4,77a16.82,16.82,0,0,1,7.65,10.12,23.67,23.67,0,0,1-1.77,19.11,15.59,15.59,0,0,1-6.3,6.37.91.91,0,0,0-.56,1q1.09,15.82,2.15,31.66c.34,5.19.7,10.37,1,15.56a8.42,8.42,0,0,1-4.65,8.49c-5.22,2.83-12.16-1.08-12.25-7-.06-3.08.24-6.17.44-9.26.38-6.08.81-12.16,1.21-18.24q.7-10.5,1.38-21a1.32,1.32,0,0,0-.37-1.06,17.41,17.41,0,0,1-8.19-10.49,23.35,23.35,0,0,1,1.95-19.42c2.3-4,5.59-6.73,10.28-7.49a1.43,1.43,0,0,0,.34-.14Zm9.39,19.17a18.38,18.38,0,0,0-3-10.1c-4.06-6.08-11-6.26-15.32-.41s-4.32,16.18.29,22c4.08,5.19,10.33,5.22,14.42,0C462.86,102.65,463.81,98.83,463.88,94.38Zm-11.82,19.81c-.24,3.69-.49,7.33-.73,11q-.61,9.12-1.22,18.23c-.4,5.93-.8,11.85-1.16,17.78a5.32,5.32,0,0,0,.31,2.17,4.1,4.1,0,0,0,4.83,2.49,4.26,4.26,0,0,0,3.16-4.55c-.36-5.8-.77-11.6-1.15-17.4l-1.62-24.16c-.12-1.84-.26-3.67-.39-5.52Z"/><path class="cls-1" d="M531.19,75.21a3.18,3.18,0,0,1,1.53,3.17q0,42.39,0,84.76c0,3.89-2.18,6.56-5.72,7a6.47,6.47,0,0,1-7.26-5.8,14.64,14.64,0,0,1-.05-1.48V134.31a4.16,4.16,0,0,0-.49-.17,4.53,4.53,0,0,1-4-4.8c0-5,0-10.08,0-15.13,0-4.7-.13-9.41,0-14.11.41-10.48,5.13-18.59,13.86-24.37.31-.2.65-.35,1-.52Zm-2.87,6.57a25.07,25.07,0,0,0-6.63,9,27.08,27.08,0,0,0-2.17,11.2v22.92c0,1.36,0,2.72,0,4.08,0,.71.23.91.91.9,2.38,0,4.77,0,7.15,0,.24,0,.47,0,.76-.06Zm-4.26,52.49c0,.37,0,.64,0,.91q0,14,0,27.93a5.13,5.13,0,0,0,.11,1.1,2.1,2.1,0,0,0,3.27,1.28,2.66,2.66,0,0,0,1-2.47V134.27Z"/><path class="cls-1" d="M374.88,75.21a2.6,2.6,0,0,1,1.79,2.8c0,10.15,0,20.3,0,30.45,0,3.49-1.8,5.92-4.95,6.74a16.54,16.54,0,0,1-1.86.27c.1,1.55.18,3.08.28,4.6l1.23,18.34q.7,10.6,1.42,21.2c.15,2.18.22,4.34-.92,6.32a8.31,8.31,0,0,1-14.62-.05c-1.22-2.15-1-4.47-.86-6.79l1.44-21.57,1.41-20.93c0-.34,0-.68,0-1.07-.22,0-.42-.12-.62-.15-3.8-.4-6.18-2.89-6.2-6.67,0-10.3,0-20.61,0-30.91a2.46,2.46,0,0,1,1.83-2.58H355a2.61,2.61,0,0,1,1.83,2.86c0,7.65,0,15.29,0,22.93v1.11h5.56V101c0-7.64,0-15.29,0-22.93a2.65,2.65,0,0,1,1.74-2.83H365a2.69,2.69,0,0,1,1.7,2.86c0,7.64,0,15.28,0,22.92v1.1h5.57v-1.17c0-7.61,0-15.22,0-22.82A2.78,2.78,0,0,1,374,75.21Zm-9.46,40c-.71.45-1.75-.46-1.84,1-.23,4-.51,8.09-.78,12.13q-.6,9.07-1.21,18.15c-.34,5-.71,10.06-1,15.09a3.91,3.91,0,0,0,4,4.31,4,4,0,0,0,3.88-4.4c-.29-4.72-.62-9.44-.94-14.16q-.81-12.22-1.63-24.45C365.79,120.44,365.61,118,365.42,115.24Zm-8.59-8.65c0,.82,0,1.52,0,2.23a2.07,2.07,0,0,0,2.22,2.22q5.52,0,11,0a1.93,1.93,0,0,0,2.07-1.62,20.55,20.55,0,0,0,0-2.83Z"/><path class="cls-1" d="M329.38,75.21A31.31,31.31,0,0,1,334.29,77a16.78,16.78,0,0,1,7.65,10.12,23.67,23.67,0,0,1-1.77,19.11,15.59,15.59,0,0,1-6.3,6.37.91.91,0,0,0-.56,1q1.1,15.82,2.15,31.66c.34,5.19.7,10.37,1,15.56a8.43,8.43,0,0,1-4.66,8.49c-5.22,2.83-12.16-1.08-12.25-7-.05-3.08.24-6.17.44-9.26.38-6.08.81-12.16,1.21-18.24q.71-10.5,1.38-21a1.32,1.32,0,0,0-.37-1.06A17.41,17.41,0,0,1,314,102.26a23.39,23.39,0,0,1,2-19.42c2.3-4,5.59-6.73,10.28-7.49a1.43,1.43,0,0,0,.34-.14Zm9.39,19.17a18.38,18.38,0,0,0-3-10.1c-4.06-6.08-11-6.26-15.32-.41s-4.32,16.18.29,22c4.08,5.19,10.33,5.22,14.42,0C337.75,102.65,338.7,98.83,338.77,94.38ZM327,114.19c-.24,3.69-.49,7.33-.73,11q-.62,9.12-1.22,18.23c-.4,5.93-.8,11.85-1.16,17.78a5.32,5.32,0,0,0,.31,2.17,4.1,4.1,0,0,0,4.83,2.49,4.25,4.25,0,0,0,3.16-4.55c-.36-5.8-.77-11.6-1.15-17.4l-1.62-24.16c-.12-1.84-.26-3.67-.39-5.52Z"/><path class="cls-1" d="M406.08,75.21a3.16,3.16,0,0,1,1.53,3.17q0,42.39,0,84.76c0,3.89-2.18,6.56-5.71,7a6.48,6.48,0,0,1-7.27-5.8,14.64,14.64,0,0,1-.05-1.48V134.31a4.16,4.16,0,0,0-.49-.17,4.53,4.53,0,0,1-4-4.8c0-5,0-10.08,0-15.13,0-4.7-.13-9.41.05-14.11.41-10.48,5.13-18.59,13.86-24.37.31-.2.65-.35,1-.52Zm-2.87,6.57a25.07,25.07,0,0,0-6.63,9,27.08,27.08,0,0,0-2.17,11.2v22.92c0,1.36,0,2.72,0,4.08,0,.71.22.91.9.9,2.38,0,4.77,0,7.15,0,.24,0,.47,0,.76-.06ZM399,134.27c0,.37,0,.64,0,.91q0,14,0,27.93a5.13,5.13,0,0,0,.11,1.1,2.1,2.1,0,0,0,3.27,1.28,2.67,2.67,0,0,0,1-2.47V134.27Z"/><path class="cls-1" d="M-.45,75.21A2.6,2.6,0,0,1,1.34,78c0,10.15,0,20.3,0,30.45,0,3.49-1.8,5.92-4.95,6.74a16.68,16.68,0,0,1-1.85.27c.09,1.55.17,3.08.28,4.6q.6,9.18,1.22,18.34c.48,7.07.94,14.14,1.43,21.2.15,2.18.21,4.34-.92,6.32a8,8,0,0,1-7.29,4.33,8,8,0,0,1-7.34-4.38c-1.22-2.15-1-4.47-.86-6.79l1.44-21.57,1.41-20.93c0-.34,0-.68.06-1.07-.23,0-.42-.12-.62-.15-3.8-.4-6.19-2.89-6.2-6.67,0-10.3,0-20.61,0-30.91a2.46,2.46,0,0,1,1.83-2.58h.74a2.59,2.59,0,0,1,1.83,2.86c0,7.65,0,15.29,0,22.93v1.11h5.56V101c0-7.64,0-15.29,0-22.93a2.63,2.63,0,0,1,1.73-2.83h.93a2.69,2.69,0,0,1,1.7,2.86c0,7.64,0,15.28,0,22.92v1.1H-3v-1.17C-3,93.31-3,85.7-3,78.1a2.76,2.76,0,0,1,1.68-2.89Zm-9.46,40c-.71.45-1.75-.46-1.84,1-.23,4-.51,8.09-.77,12.13q-.62,9.07-1.22,18.15c-.34,5-.71,10.06-1,15.09a3.92,3.92,0,0,0,4.05,4.31,4,4,0,0,0,3.87-4.4c-.29-4.72-.62-9.44-.93-14.16q-.82-12.22-1.64-24.45C-9.54,120.44-9.72,118-9.91,115.24Zm-8.58-8.65c0,.82,0,1.52,0,2.23A2.07,2.07,0,0,0-16.27,111q5.52,0,11,0a1.94,1.94,0,0,0,2.08-1.62,22.26,22.26,0,0,0,0-2.83Z"/><path class="cls-1" d="M30.76,75.21a3.16,3.16,0,0,1,1.52,3.17q0,42.39,0,84.76c0,3.89-2.18,6.56-5.71,7a6.48,6.48,0,0,1-7.27-5.8,14.64,14.64,0,0,1-.05-1.48V134.31a4.16,4.16,0,0,0-.49-.17,4.53,4.53,0,0,1-4-4.8c0-5,0-10.08,0-15.13,0-4.7-.13-9.41.05-14.11.41-10.48,5.14-18.59,13.87-24.37.3-.2.65-.35,1-.52Zm-2.88,6.57a25.07,25.07,0,0,0-6.63,9A27.25,27.25,0,0,0,19.08,102v22.92c0,1.36,0,2.72,0,4.08,0,.71.22.91.91.9,2.38,0,4.76,0,7.14,0,.24,0,.48,0,.76-.06Zm-4.26,52.49c0,.37,0,.64,0,.91v27.93a5.86,5.86,0,0,0,.11,1.1A2.1,2.1,0,0,0,27,165.49a2.67,2.67,0,0,0,1-2.47V134.27Z"/><path class="cls-1" d="M48.39,194.49a2.57,2.57,0,0,1,1.78,2.79q0,15.22,0,30.45c0,3.5-1.81,5.93-4.95,6.75a16.54,16.54,0,0,1-1.86.27c.09,1.54.18,3.07.28,4.6l1.23,18.33c.47,7.07.93,14.14,1.42,21.21.15,2.18.22,4.33-.92,6.32a8.31,8.31,0,0,1-14.62,0c-1.22-2.15-1-4.48-.86-6.79q.71-10.8,1.43-21.58.71-10.46,1.42-20.93c0-.33,0-.67.05-1.07a5.42,5.42,0,0,0-.62-.14c-3.8-.41-6.19-2.89-6.2-6.67,0-10.31,0-20.61,0-30.92a2.46,2.46,0,0,1,1.83-2.57h.75a2.61,2.61,0,0,1,1.83,2.86c0,7.64,0,15.28,0,22.93v1.1H35.9v-1.14c0-7.64,0-15.28,0-22.93a2.62,2.62,0,0,1,1.74-2.82h.92a2.71,2.71,0,0,1,1.71,2.86c0,7.63,0,15.27,0,22.91v1.11h5.56V220.2c0-7.61,0-15.22,0-22.83a2.76,2.76,0,0,1,1.68-2.88Zm-9.46,40c-.72.44-1.76-.47-1.84,1-.23,4-.51,8.09-.78,12.13q-.6,9.08-1.22,18.15c-.33,5-.7,10.06-1,15.09a3.92,3.92,0,0,0,4,4.31,4,4,0,0,0,3.88-4.4c-.29-4.72-.62-9.44-.94-14.17q-.81-12.21-1.63-24.44C39.29,239.71,39.12,237.25,38.93,234.52Zm-8.59-8.66c0,.82,0,1.53,0,2.24a2.09,2.09,0,0,0,2.22,2.22c3.68,0,7.36,0,11,0a1.92,1.92,0,0,0,2.08-1.62,20.51,20.51,0,0,0,0-2.83Z"/><path class="cls-1" d="M2.89,194.49a31.31,31.31,0,0,1,4.91,1.82c4,2.24,6.32,5.86,7.64,10.11a23.58,23.58,0,0,1-1.77,19.11,15.43,15.43,0,0,1-6.3,6.38.9.9,0,0,0-.55,1Q7.9,248.76,9,264.59c.35,5.18.7,10.37,1,15.55a8.41,8.41,0,0,1-4.65,8.49c-5.23,2.84-12.16-1.07-12.26-7,0-3.09.25-6.18.45-9.26.38-6.08.8-12.16,1.21-18.24q.7-10.52,1.38-21c0-.36-.12-.92-.38-1.06a17.42,17.42,0,0,1-8.18-10.49,23.31,23.31,0,0,1,2-19.42c2.3-4,5.58-6.74,10.28-7.49a1.43,1.43,0,0,0,.34-.14Zm9.39,19.17a18.42,18.42,0,0,0-3-10.11c-4.06-6.07-11-6.26-15.33-.41s-4.31,16.19.29,22c4.09,5.19,10.34,5.21,14.43,0C11.26,221.93,12.21,218.11,12.28,213.66ZM.46,233.47c-.25,3.69-.49,7.32-.73,11q-.61,9.1-1.22,18.23c-.4,5.92-.81,11.85-1.17,17.77a5.33,5.33,0,0,0,.32,2.17,4.08,4.08,0,0,0,4.82,2.49,4.22,4.22,0,0,0,3.16-4.54c-.36-5.8-.76-11.6-1.15-17.4Q3.7,251.06,2.88,239c-.12-1.84-.26-3.68-.39-5.52Z"/><path class="cls-1" d="M79.59,194.49a3.17,3.17,0,0,1,1.53,3.17q0,42.38,0,84.76c0,3.88-2.18,6.56-5.72,7a6.48,6.48,0,0,1-7.27-5.8,14.83,14.83,0,0,1,0-1.49q0-13.74,0-27.48v-1.11a3.36,3.36,0,0,0-.48-.16,4.55,4.55,0,0,1-4-4.8c0-5,0-10.09,0-15.13,0-4.71-.13-9.42,0-14.11C64,208.89,68.77,200.79,77.5,195a9.18,9.18,0,0,1,1-.52Zm-2.88,6.56a25.14,25.14,0,0,0-6.63,9,27.2,27.2,0,0,0-2.17,11.19q0,11.46,0,22.93c0,1.36,0,2.72,0,4.08,0,.7.22.9.91.89,2.38,0,4.76,0,7.15,0a7.48,7.48,0,0,0,.75-.07Zm-4.25,52.5c0,.36,0,.64,0,.91v27.92a5.79,5.79,0,0,0,.12,1.1,2.08,2.08,0,0,0,3.26,1.28,2.62,2.62,0,0,0,1-2.46V253.55Z"/><path class="cls-1" d="M548.82,194.49a2.59,2.59,0,0,1,1.79,2.79c0,10.15,0,20.3,0,30.45,0,3.5-1.8,5.93-4.94,6.75a16.89,16.89,0,0,1-1.86.27c.09,1.54.17,3.07.28,4.6.4,6.11.82,12.22,1.22,18.33.48,7.07.94,14.14,1.43,21.21.15,2.18.21,4.33-.92,6.32a8.32,8.32,0,0,1-14.63,0c-1.21-2.15-1-4.48-.86-6.79l1.44-21.58,1.41-20.93c0-.33,0-.67.06-1.07a5.94,5.94,0,0,0-.62-.14c-3.8-.41-6.19-2.89-6.2-6.67,0-10.31,0-20.61,0-30.92a2.46,2.46,0,0,1,1.83-2.57H529a2.59,2.59,0,0,1,1.83,2.86c0,7.64,0,15.28,0,22.93v1.1h5.56v-1.14c0-7.64,0-15.28,0-22.93a2.62,2.62,0,0,1,1.73-2.82H539a2.69,2.69,0,0,1,1.7,2.86c0,7.63,0,15.27,0,22.91v1.11h5.56V220.2c0-7.61,0-15.22,0-22.83a2.76,2.76,0,0,1,1.68-2.88Zm-9.46,40c-.71.44-1.75-.47-1.83,1-.24,4-.51,8.09-.78,12.13q-.62,9.08-1.22,18.15c-.34,5-.71,10.06-1,15.09a3.92,3.92,0,0,0,4.05,4.31,4,4,0,0,0,3.87-4.4c-.29-4.72-.62-9.44-.93-14.17q-.82-12.21-1.63-24.44C539.73,239.71,539.55,237.25,539.36,234.52Zm-8.58-8.66c0,.82,0,1.53,0,2.24a2.08,2.08,0,0,0,2.22,2.22c3.68,0,7.36,0,11,0a1.92,1.92,0,0,0,2.08-1.62,22.23,22.23,0,0,0,0-2.83Z"/><path class="cls-1" d="M503.32,194.49a30.94,30.94,0,0,1,4.91,1.82c4,2.24,6.33,5.86,7.65,10.11a23.62,23.62,0,0,1-1.77,19.11,15.43,15.43,0,0,1-6.3,6.38.91.91,0,0,0-.56,1q1.1,15.84,2.15,31.67c.35,5.18.7,10.37,1,15.55a8.41,8.41,0,0,1-4.65,8.49c-5.23,2.84-12.16-1.07-12.26-7-.05-3.09.25-6.18.44-9.26.39-6.08.81-12.16,1.22-18.24q.71-10.52,1.38-21a1.34,1.34,0,0,0-.38-1.06A17.42,17.42,0,0,1,488,221.54a23.35,23.35,0,0,1,1.94-19.42c2.31-4,5.59-6.74,10.29-7.49a1.88,1.88,0,0,0,.34-.14Zm9.4,19.17a18.43,18.43,0,0,0-3-10.11c-4.05-6.07-11-6.26-15.32-.41s-4.31,16.19.29,22c4.08,5.19,10.34,5.21,14.43,0C511.7,221.93,512.64,218.11,512.72,213.66ZM500.9,233.47c-.25,3.69-.49,7.32-.74,11q-.6,9.1-1.22,18.23c-.39,5.92-.8,11.85-1.16,17.77a5.5,5.5,0,0,0,.31,2.17,4.09,4.09,0,0,0,4.83,2.49,4.22,4.22,0,0,0,3.16-4.54c-.36-5.8-.76-11.6-1.15-17.4q-.81-12.09-1.61-24.16l-.39-5.52Z"/><path class="cls-1" d="M580,194.49a3.15,3.15,0,0,1,1.52,3.17q0,42.38,0,84.76c0,3.88-2.18,6.56-5.71,7a6.48,6.48,0,0,1-7.27-5.8,14.84,14.84,0,0,1,0-1.49V253.58a3.91,3.91,0,0,0-.49-.16,4.54,4.54,0,0,1-4-4.8c0-5,0-10.09,0-15.13,0-4.71-.13-9.42.05-14.11.41-10.49,5.14-18.59,13.87-24.37a9,9,0,0,1,1-.52Zm-2.88,6.56a25,25,0,0,0-6.63,9,27.2,27.2,0,0,0-2.17,11.19v22.93c0,1.36,0,2.72,0,4.08,0,.7.22.9.91.89,2.38,0,4.76,0,7.14,0a7.4,7.4,0,0,0,.76-.07Zm-4.26,52.5c0,.36,0,.64,0,.91v27.92a5.78,5.78,0,0,0,.11,1.1,2.09,2.09,0,0,0,3.27,1.28,2.62,2.62,0,0,0,1-2.46V253.55Z"/><path class="cls-1" d="M173.5,194.49a2.58,2.58,0,0,1,1.78,2.79c0,10.15,0,20.3,0,30.45,0,3.5-1.81,5.93-5,6.75a16.54,16.54,0,0,1-1.86.27c.09,1.54.18,3.07.28,4.6q.6,9.17,1.23,18.33c.47,7.07.93,14.14,1.42,21.21.15,2.18.22,4.33-.92,6.32a8.32,8.32,0,0,1-14.63,0c-1.21-2.15-1-4.48-.85-6.79q.7-10.8,1.43-21.58l1.41-20.93c0-.33,0-.67.06-1.07a5.42,5.42,0,0,0-.62-.14c-3.8-.41-6.19-2.89-6.2-6.67,0-10.31,0-20.61,0-30.92a2.46,2.46,0,0,1,1.83-2.57h.74a2.59,2.59,0,0,1,1.83,2.86q0,11.46,0,22.93v1.1H161v-1.14c0-7.64,0-15.28,0-22.93a2.62,2.62,0,0,1,1.74-2.82h.92a2.71,2.71,0,0,1,1.71,2.86c0,7.63,0,15.27,0,22.91v1.11h5.56V220.2c0-7.61,0-15.22,0-22.83a2.76,2.76,0,0,1,1.68-2.88Zm-9.46,40c-.72.44-1.76-.47-1.84,1-.24,4-.51,8.09-.78,12.13q-.6,9.08-1.22,18.15c-.34,5-.7,10.06-1,15.09a3.92,3.92,0,0,0,4,4.31,4,4,0,0,0,3.88-4.4c-.29-4.72-.63-9.44-.94-14.17q-.81-12.21-1.63-24.44C164.4,239.71,164.23,237.25,164,234.52Zm-8.59-8.66c0,.82,0,1.53,0,2.24a2.09,2.09,0,0,0,2.22,2.22c3.68,0,7.36,0,11,0a1.92,1.92,0,0,0,2.08-1.62,20.51,20.51,0,0,0,0-2.83Z"/><path class="cls-1" d="M128,194.49a31.05,31.05,0,0,1,4.92,1.82c4,2.24,6.32,5.86,7.64,10.11a23.58,23.58,0,0,1-1.77,19.11,15.43,15.43,0,0,1-6.3,6.38.89.89,0,0,0-.55,1q1.08,15.84,2.14,31.67c.35,5.18.7,10.37,1,15.55a8.41,8.41,0,0,1-4.65,8.49c-5.23,2.84-12.16-1.07-12.26-7,0-3.09.25-6.18.44-9.26.39-6.08.81-12.16,1.22-18.24q.71-10.52,1.38-21a1.34,1.34,0,0,0-.38-1.06,17.42,17.42,0,0,1-8.18-10.49,23.31,23.31,0,0,1,2-19.42c2.3-4,5.58-6.74,10.28-7.49a1.43,1.43,0,0,0,.34-.14Zm9.4,19.17a18.5,18.5,0,0,0-3-10.11c-4.06-6.07-11-6.26-15.33-.41s-4.31,16.19.29,22c4.08,5.19,10.34,5.21,14.43,0C136.37,221.93,137.32,218.11,137.39,213.66Zm-11.82,19.81c-.25,3.69-.49,7.32-.73,11q-.61,9.1-1.22,18.23c-.4,5.92-.81,11.85-1.17,17.77a5.5,5.5,0,0,0,.31,2.17,4.09,4.09,0,0,0,4.83,2.49,4.22,4.22,0,0,0,3.16-4.54c-.36-5.8-.76-11.6-1.15-17.4Q128.79,251.06,128,239l-.39-5.52Z"/><path class="cls-1" d="M204.7,194.49a3.17,3.17,0,0,1,1.53,3.17q0,42.38,0,84.76c0,3.88-2.17,6.56-5.71,7a6.48,6.48,0,0,1-7.27-5.8,14.83,14.83,0,0,1,0-1.49q0-13.74,0-27.48v-1.11a3.36,3.36,0,0,0-.48-.16,4.55,4.55,0,0,1-4-4.8c0-5,0-10.09,0-15.13,0-4.71-.13-9.42.05-14.11.4-10.49,5.13-18.59,13.86-24.37a10.11,10.11,0,0,1,1-.52Zm-2.88,6.56a25.14,25.14,0,0,0-6.63,9A27.2,27.2,0,0,0,193,221.23v22.93c0,1.36,0,2.72,0,4.08,0,.7.22.9.91.89,2.38,0,4.76,0,7.14,0a7.4,7.4,0,0,0,.76-.07Zm-4.25,52.5c0,.36,0,.64,0,.91v27.92a5.08,5.08,0,0,0,.12,1.1,2.08,2.08,0,0,0,3.26,1.28,2.62,2.62,0,0,0,1-2.46V253.55Z"/><path class="cls-1" d="M423.72,194.49a2.59,2.59,0,0,1,1.78,2.79c0,10.15,0,20.3,0,30.45,0,3.5-1.81,5.93-4.95,6.75a16.89,16.89,0,0,1-1.86.27c.09,1.54.18,3.07.28,4.6q.6,9.17,1.23,18.33c.47,7.07.93,14.14,1.42,21.21.15,2.18.21,4.33-.92,6.32a8.32,8.32,0,0,1-14.63,0c-1.21-2.15-1-4.48-.85-6.79q.71-10.8,1.43-21.58l1.41-20.93c0-.33,0-.67.06-1.07a5.94,5.94,0,0,0-.62-.14c-3.8-.41-6.19-2.89-6.2-6.67,0-10.31,0-20.61,0-30.92a2.46,2.46,0,0,1,1.83-2.57h.74a2.59,2.59,0,0,1,1.83,2.86q0,11.46,0,22.93v1.1h5.56v-1.14c0-7.64,0-15.28,0-22.93a2.62,2.62,0,0,1,1.73-2.82h.93a2.69,2.69,0,0,1,1.7,2.86c0,7.63,0,15.27,0,22.91v1.11h5.56V220.2c0-7.61,0-15.22,0-22.83a2.76,2.76,0,0,1,1.68-2.88Zm-9.46,40c-.72.44-1.76-.47-1.84,1-.24,4-.51,8.09-.78,12.13-.4,6.05-.82,12.1-1.22,18.15-.34,5-.71,10.06-1,15.09a3.93,3.93,0,0,0,4.05,4.31,4,4,0,0,0,3.88-4.4c-.3-4.72-.63-9.44-.94-14.17q-.82-12.21-1.63-24.44C414.62,239.71,414.45,237.25,414.26,234.52Zm-8.59-8.66c0,.82,0,1.53,0,2.24a2.09,2.09,0,0,0,2.22,2.22c3.68,0,7.36,0,11,0a1.92,1.92,0,0,0,2.08-1.62,22.23,22.23,0,0,0,0-2.83Z"/><path class="cls-1" d="M378.21,194.49a30.94,30.94,0,0,1,4.91,1.82c4,2.24,6.33,5.86,7.65,10.11A23.58,23.58,0,0,1,389,225.53a15.43,15.43,0,0,1-6.3,6.38.91.91,0,0,0-.56,1q1.1,15.84,2.15,31.67c.35,5.18.7,10.37,1,15.55a8.41,8.41,0,0,1-4.65,8.49c-5.23,2.84-12.16-1.07-12.26-7-.05-3.09.25-6.18.44-9.26.39-6.08.81-12.16,1.22-18.24q.7-10.52,1.38-21A1.34,1.34,0,0,0,371,232a17.42,17.42,0,0,1-8.18-10.49,23.35,23.35,0,0,1,1.94-19.42c2.31-4,5.59-6.74,10.29-7.49a1.88,1.88,0,0,0,.34-.14Zm9.4,19.17a18.43,18.43,0,0,0-3-10.11c-4.05-6.07-11-6.26-15.32-.41s-4.31,16.19.29,22c4.08,5.19,10.34,5.21,14.43,0C386.59,221.93,387.53,218.11,387.61,213.66Zm-11.82,19.81c-.25,3.69-.49,7.32-.74,11q-.6,9.1-1.22,18.23c-.39,5.92-.8,11.85-1.16,17.77a5.5,5.5,0,0,0,.31,2.17,4.09,4.09,0,0,0,4.83,2.49,4.22,4.22,0,0,0,3.16-4.54c-.36-5.8-.76-11.6-1.15-17.4Q379,251.06,378.21,239l-.39-5.52Z"/><path class="cls-1" d="M454.92,194.49a3.17,3.17,0,0,1,1.53,3.17q0,42.38,0,84.76c0,3.88-2.18,6.56-5.71,7a6.48,6.48,0,0,1-7.27-5.8,14.84,14.84,0,0,1-.05-1.49V253.58a4.45,4.45,0,0,0-.48-.16,4.54,4.54,0,0,1-4-4.8c0-5,0-10.09,0-15.13,0-4.71-.13-9.42.06-14.11.4-10.49,5.13-18.59,13.86-24.37a9,9,0,0,1,1-.52ZM452,201.05a25,25,0,0,0-6.63,9,27.2,27.2,0,0,0-2.17,11.19v22.93c0,1.36,0,2.72,0,4.08,0,.7.22.9.91.89,2.38,0,4.76,0,7.14,0a7.4,7.4,0,0,0,.76-.07Zm-4.26,52.5c0,.36,0,.64,0,.91v27.92a5.78,5.78,0,0,0,.11,1.1,2.09,2.09,0,0,0,3.27,1.28,2.62,2.62,0,0,0,1-2.46V253.55Z"/><path class="cls-1" d="M298.61,194.49a2.59,2.59,0,0,1,1.78,2.79c0,10.15,0,20.3,0,30.45,0,3.5-1.81,5.93-4.95,6.75a16.89,16.89,0,0,1-1.86.27c.09,1.54.18,3.07.28,4.6q.6,9.17,1.23,18.33c.47,7.07.93,14.14,1.42,21.21.15,2.18.21,4.33-.92,6.32a8.32,8.32,0,0,1-14.63,0c-1.21-2.15-1-4.48-.85-6.79q.7-10.8,1.43-21.58l1.41-20.93c0-.33,0-.67.06-1.07a5.94,5.94,0,0,0-.62-.14c-3.8-.41-6.19-2.89-6.2-6.67,0-10.31,0-20.61,0-30.92a2.46,2.46,0,0,1,1.83-2.57h.74a2.59,2.59,0,0,1,1.83,2.86q0,11.46,0,22.93v1.1h5.55v-1.14c0-7.64,0-15.28,0-22.93a2.62,2.62,0,0,1,1.73-2.82h.93a2.69,2.69,0,0,1,1.7,2.86c0,7.63,0,15.27,0,22.91v1.11H296V220.2c0-7.61,0-15.22,0-22.83a2.76,2.76,0,0,1,1.68-2.88Zm-9.46,40c-.72.44-1.76-.47-1.84,1-.24,4-.51,8.09-.78,12.13-.4,6.05-.82,12.1-1.22,18.15-.34,5-.71,10.06-1,15.09a3.92,3.92,0,0,0,4,4.31,4,4,0,0,0,3.88-4.4c-.3-4.72-.63-9.44-.94-14.17q-.81-12.21-1.63-24.44C289.51,239.71,289.34,237.25,289.15,234.52Zm-8.59-8.66c0,.82,0,1.53,0,2.24a2.09,2.09,0,0,0,2.22,2.22c3.68,0,7.36,0,11,0a1.92,1.92,0,0,0,2.08-1.62,22.21,22.21,0,0,0,0-2.83Z"/><path class="cls-1" d="M253.1,194.49a30.94,30.94,0,0,1,4.91,1.82c4,2.24,6.33,5.86,7.65,10.11a23.58,23.58,0,0,1-1.77,19.11,15.43,15.43,0,0,1-6.3,6.38.91.91,0,0,0-.56,1q1.1,15.84,2.15,31.67c.35,5.18.7,10.37,1,15.55a8.41,8.41,0,0,1-4.65,8.49c-5.23,2.84-12.16-1.07-12.26-7-.05-3.09.25-6.18.44-9.26.39-6.08.81-12.16,1.22-18.24q.7-10.52,1.38-21a1.34,1.34,0,0,0-.38-1.06,17.42,17.42,0,0,1-8.18-10.49,23.35,23.35,0,0,1,1.94-19.42c2.31-4,5.59-6.74,10.29-7.49a1.63,1.63,0,0,0,.34-.14Zm9.4,19.17a18.5,18.5,0,0,0-3-10.11c-4.06-6.07-11-6.26-15.33-.41s-4.31,16.19.29,22c4.08,5.19,10.34,5.21,14.43,0C261.48,221.93,262.42,218.11,262.5,213.66Zm-11.82,19.81c-.25,3.69-.49,7.32-.73,11l-1.23,18.23c-.39,5.92-.8,11.85-1.16,17.77a5.5,5.5,0,0,0,.31,2.17,4.09,4.09,0,0,0,4.83,2.49,4.22,4.22,0,0,0,3.16-4.54c-.36-5.8-.76-11.6-1.15-17.4q-.81-12.09-1.61-24.16l-.39-5.52Z"/><path class="cls-1" d="M329.81,194.49a3.17,3.17,0,0,1,1.53,3.17q0,42.38,0,84.76c0,3.88-2.18,6.56-5.71,7a6.48,6.48,0,0,1-7.27-5.8,14.83,14.83,0,0,1,0-1.49q0-13.74,0-27.48v-1.11a4.45,4.45,0,0,0-.48-.16,4.54,4.54,0,0,1-4-4.8c0-5,0-10.09,0-15.13,0-4.71-.14-9.42.05-14.11.4-10.49,5.13-18.59,13.86-24.37a9,9,0,0,1,1-.52Zm-2.88,6.56a25.14,25.14,0,0,0-6.63,9,27.2,27.2,0,0,0-2.17,11.19v22.93c0,1.36,0,2.72,0,4.08,0,.7.22.9.91.89,2.38,0,4.76,0,7.14,0a7.4,7.4,0,0,0,.76-.07Zm-4.25,52.5c0,.36-.05.64-.05.91v27.92a5.08,5.08,0,0,0,.12,1.1,2.08,2.08,0,0,0,3.26,1.28,2.62,2.62,0,0,0,1-2.46V253.55Z"/><path class="cls-1" d="M124.66,313.76a2.6,2.6,0,0,1,1.79,2.8c0,10.15,0,20.3,0,30.45,0,3.49-1.8,5.92-5,6.75-.56.14-1.15.16-1.86.26.1,1.55.18,3.08.28,4.61L121.13,377c.48,7.07.94,14.14,1.43,21.21.14,2.17.21,4.33-.93,6.31a8.3,8.3,0,0,1-14.62-.05c-1.22-2.15-1-4.47-.86-6.79l1.44-21.57L109,355.14c0-.34,0-.68.06-1.07a5.94,5.94,0,0,0-.62-.14c-3.81-.41-6.19-2.9-6.2-6.68,0-10.3,0-20.6,0-30.91a2.46,2.46,0,0,1,1.83-2.58h.74a2.61,2.61,0,0,1,1.83,2.86c0,7.65,0,15.29,0,22.93v1.11h5.56v-1.14c0-7.64,0-15.29,0-22.93a2.65,2.65,0,0,1,1.74-2.83h.93a2.7,2.7,0,0,1,1.7,2.86c0,7.64,0,15.28,0,22.92v1.1h5.57v-1.17c0-7.61,0-15.21,0-22.82a2.78,2.78,0,0,1,1.68-2.89Zm-9.46,40c-.71.45-1.75-.46-1.84,1-.23,4.05-.51,8.09-.77,12.13q-.61,9.07-1.22,18.15c-.34,5-.71,10.06-1,15.1a3.91,3.91,0,0,0,4.05,4.3,4,4,0,0,0,3.87-4.39c-.29-4.73-.62-9.45-.93-14.17q-.83-12.22-1.64-24.44C115.57,359,115.39,356.53,115.2,353.79Zm-8.58-8.65c0,.82,0,1.53,0,2.23a2.07,2.07,0,0,0,2.22,2.22q5.52,0,11,0A1.94,1.94,0,0,0,122,348a22.26,22.26,0,0,0,0-2.83Z"/><path class="cls-1" d="M79.16,313.76a32,32,0,0,1,4.91,1.82,16.78,16.78,0,0,1,7.65,10.12A23.62,23.62,0,0,1,90,344.81a15.61,15.61,0,0,1-6.3,6.38.9.9,0,0,0-.56,1q1.09,15.82,2.15,31.66c.34,5.19.7,10.37,1,15.56a8.43,8.43,0,0,1-4.65,8.49c-5.23,2.83-12.16-1.08-12.26-7,0-3.08.25-6.17.44-9.26.39-6.08.81-12.16,1.22-18.24.46-7,.94-14,1.38-21A1.36,1.36,0,0,0,72,351.3a17.35,17.35,0,0,1-8.18-10.49,23.35,23.35,0,0,1,1.94-19.42c2.3-4,5.59-6.73,10.28-7.49a1.7,1.7,0,0,0,.35-.14Zm9.39,19.17a18.38,18.38,0,0,0-3-10.1c-4.06-6.08-11-6.26-15.32-.41s-4.31,16.18.29,22c4.08,5.2,10.34,5.22,14.43,0C87.53,341.2,88.48,337.38,88.55,332.93ZM76.74,352.74c-.25,3.7-.49,7.33-.74,11q-.6,9.12-1.22,18.24c-.39,5.92-.8,11.84-1.16,17.77a5.32,5.32,0,0,0,.31,2.17,4.1,4.1,0,0,0,4.83,2.49,4.22,4.22,0,0,0,3.16-4.54c-.36-5.81-.76-11.61-1.15-17.41l-1.62-24.15c-.12-1.84-.26-3.68-.39-5.53Z"/><path class="cls-1" d="M155.86,313.76a3.16,3.16,0,0,1,1.53,3.17q0,42.39,0,84.77c0,3.88-2.18,6.55-5.71,7a6.48,6.48,0,0,1-7.27-5.8,14.64,14.64,0,0,1,0-1.48V372.86a4.16,4.16,0,0,0-.49-.17,4.52,4.52,0,0,1-4-4.79c0-5,0-10.09,0-15.14,0-4.7-.13-9.41,0-14.11.41-10.48,5.14-18.58,13.87-24.37a10,10,0,0,1,1-.52ZM153,320.33a25.07,25.07,0,0,0-6.63,9,27.28,27.28,0,0,0-2.17,11.2v22.92c0,1.36,0,2.73,0,4.09,0,.7.22.9.9.89,2.39,0,4.77,0,7.15,0,.24,0,.48,0,.76-.06Zm-4.26,52.49c0,.37,0,.64,0,.92q0,14,0,27.92a5.78,5.78,0,0,0,.11,1.1,2.1,2.1,0,0,0,3.27,1.28,2.66,2.66,0,0,0,1-2.46V372.82Z"/><path class="cls-1" d="M579.6,313.76a32.34,32.34,0,0,1,4.91,1.82c4,2.25,6.32,5.87,7.65,10.12a23.63,23.63,0,0,1-1.78,19.11,15.55,15.55,0,0,1-6.3,6.38.9.9,0,0,0-.55,1q1.1,15.82,2.14,31.66c.35,5.19.7,10.37,1,15.56a8.42,8.42,0,0,1-4.65,8.49c-5.22,2.83-12.16-1.08-12.26-7,0-3.08.25-6.17.45-9.26.38-6.08.81-12.16,1.21-18.24q.71-10.5,1.38-21a1.32,1.32,0,0,0-.37-1.06,17.37,17.37,0,0,1-8.19-10.49,23.35,23.35,0,0,1,2-19.42c2.3-4,5.59-6.73,10.28-7.49a1.43,1.43,0,0,0,.34-.14ZM589,332.93a18.38,18.38,0,0,0-3-10.1c-4.06-6.08-11-6.26-15.32-.41s-4.32,16.18.29,22c4.08,5.2,10.33,5.22,14.42,0C588,341.2,588.92,337.38,589,332.93Zm-11.82,19.81c-.24,3.7-.49,7.33-.73,11q-.62,9.12-1.22,18.24c-.4,5.92-.81,11.84-1.16,17.77a5.16,5.16,0,0,0,.31,2.17,4.09,4.09,0,0,0,4.83,2.49,4.22,4.22,0,0,0,3.15-4.54c-.35-5.81-.76-11.61-1.14-17.41l-1.62-24.15c-.12-1.84-.26-3.68-.39-5.53Z"/><path class="cls-1" d="M249.77,313.76a2.6,2.6,0,0,1,1.79,2.8c0,10.15,0,20.3,0,30.45,0,3.49-1.8,5.92-4.95,6.75-.56.14-1.15.16-1.86.26.1,1.55.18,3.08.28,4.61L246.24,377c.48,7.07.94,14.14,1.42,21.21.15,2.17.22,4.33-.92,6.31a8.3,8.3,0,0,1-14.62-.05c-1.22-2.15-1-4.47-.86-6.79l1.44-21.57,1.41-20.93c0-.34,0-.68,0-1.07a5,5,0,0,0-.62-.14c-3.8-.41-6.18-2.9-6.2-6.68,0-10.3,0-20.6,0-30.91a2.46,2.46,0,0,1,1.83-2.58h.74a2.61,2.61,0,0,1,1.83,2.86c0,7.65,0,15.29,0,22.93v1.11h5.56v-1.14c0-7.64,0-15.29,0-22.93a2.65,2.65,0,0,1,1.74-2.83h.93a2.7,2.7,0,0,1,1.7,2.86c0,7.64,0,15.28,0,22.92v1.1h5.57v-1.17c0-7.61,0-15.21,0-22.82a2.78,2.78,0,0,1,1.68-2.89Zm-9.46,40c-.71.45-1.75-.46-1.84,1-.23,4.05-.51,8.09-.78,12.13q-.6,9.07-1.21,18.15c-.34,5-.71,10.06-1,15.1a3.91,3.91,0,0,0,4,4.3,4,4,0,0,0,3.87-4.39c-.29-4.73-.62-9.45-.94-14.17q-.81-12.22-1.63-24.44C240.68,359,240.5,356.53,240.31,353.79Zm-8.59-8.65c0,.82,0,1.53,0,2.23a2.07,2.07,0,0,0,2.22,2.22q5.52,0,11,0a1.93,1.93,0,0,0,2.07-1.62,20.55,20.55,0,0,0,0-2.83Z"/><path class="cls-1" d="M204.27,313.76a32.34,32.34,0,0,1,4.91,1.82,16.78,16.78,0,0,1,7.65,10.12,23.66,23.66,0,0,1-1.77,19.11,15.67,15.67,0,0,1-6.3,6.38.9.9,0,0,0-.56,1q1.1,15.82,2.15,31.66c.34,5.19.7,10.37,1,15.56a8.43,8.43,0,0,1-4.65,8.49c-5.23,2.83-12.17-1.08-12.26-7-.05-3.08.24-6.17.44-9.26.39-6.08.81-12.16,1.22-18.24q.69-10.5,1.38-21a1.36,1.36,0,0,0-.38-1.06,17.41,17.41,0,0,1-8.19-10.49,23.39,23.39,0,0,1,2-19.42c2.3-4,5.59-6.73,10.28-7.49a1.43,1.43,0,0,0,.34-.14Zm9.39,19.17a18.38,18.38,0,0,0-3-10.1c-4.06-6.08-11-6.26-15.32-.41s-4.32,16.18.29,22c4.08,5.2,10.33,5.22,14.42,0C212.64,341.2,213.59,337.38,213.66,332.93Zm-11.81,19.81c-.25,3.7-.5,7.33-.74,11q-.62,9.12-1.22,18.24c-.39,5.92-.8,11.84-1.16,17.77a5.32,5.32,0,0,0,.31,2.17,4.1,4.1,0,0,0,4.83,2.49,4.22,4.22,0,0,0,3.16-4.54c-.36-5.81-.77-11.61-1.15-17.41l-1.62-24.15c-.12-1.84-.26-3.68-.39-5.53Z"/><path class="cls-1" d="M281,313.76a3.16,3.16,0,0,1,1.53,3.17q0,42.39,0,84.77c0,3.88-2.18,6.55-5.71,7a6.48,6.48,0,0,1-7.27-5.8,14.64,14.64,0,0,1-.05-1.48V372.86a4.16,4.16,0,0,0-.49-.17,4.52,4.52,0,0,1-4-4.79c0-5,0-10.09,0-15.14,0-4.7-.13-9.41,0-14.11.41-10.48,5.14-18.58,13.87-24.37a10,10,0,0,1,1-.52Zm-2.87,6.57a25.07,25.07,0,0,0-6.63,9,27.12,27.12,0,0,0-2.17,11.2v22.92c0,1.36,0,2.73,0,4.09,0,.7.22.9.9.89,2.39,0,4.77,0,7.15,0,.24,0,.48,0,.76-.06Zm-4.26,52.49c0,.37,0,.64,0,.92q0,14,0,27.92a5.78,5.78,0,0,0,.11,1.1,2.1,2.1,0,0,0,3.27,1.28,2.66,2.66,0,0,0,1-2.46V372.82Z"/><path class="cls-1" d="M500,313.76a2.6,2.6,0,0,1,1.79,2.8c0,10.15,0,20.3,0,30.45,0,3.49-1.81,5.92-4.95,6.75-.56.14-1.15.16-1.86.26.1,1.55.18,3.08.28,4.61L496.46,377q.71,10.6,1.42,21.21c.15,2.17.22,4.33-.92,6.31a8.3,8.3,0,0,1-14.62-.05c-1.22-2.15-1-4.47-.86-6.79l1.44-21.57,1.41-20.93c0-.34,0-.68.05-1.07a5.42,5.42,0,0,0-.62-.14c-3.8-.41-6.18-2.9-6.2-6.68,0-10.3,0-20.6,0-30.91a2.46,2.46,0,0,1,1.83-2.58h.74a2.62,2.62,0,0,1,1.83,2.86c0,7.65,0,15.29,0,22.93v1.11h5.56v-1.14c0-7.64,0-15.29,0-22.93a2.65,2.65,0,0,1,1.74-2.83h.93a2.7,2.7,0,0,1,1.7,2.86c0,7.64,0,15.28,0,22.92v1.1h5.57v-1.17c0-7.61,0-15.21,0-22.82a2.78,2.78,0,0,1,1.68-2.89Zm-9.46,40c-.71.45-1.75-.46-1.84,1-.23,4.05-.51,8.09-.78,12.13q-.6,9.07-1.22,18.15c-.33,5-.7,10.06-1,15.1a3.91,3.91,0,0,0,4,4.3,4,4,0,0,0,3.88-4.39c-.29-4.73-.62-9.45-.94-14.17q-.81-12.22-1.63-24.44C490.9,359,490.72,356.53,490.53,353.79Zm-8.59-8.65c0,.82,0,1.53,0,2.23a2.07,2.07,0,0,0,2.21,2.22q5.54,0,11,0a1.93,1.93,0,0,0,2.07-1.62,20.55,20.55,0,0,0,0-2.83Z"/><path class="cls-1" d="M454.49,313.76a32.34,32.34,0,0,1,4.91,1.82,16.82,16.82,0,0,1,7.65,10.12,23.66,23.66,0,0,1-1.77,19.11,15.67,15.67,0,0,1-6.3,6.38.89.89,0,0,0-.56,1q1.09,15.82,2.15,31.66c.34,5.19.7,10.37,1,15.56a8.42,8.42,0,0,1-4.65,8.49c-5.22,2.83-12.16-1.08-12.25-7-.06-3.08.24-6.17.44-9.26.38-6.08.81-12.16,1.21-18.24q.7-10.5,1.38-21a1.32,1.32,0,0,0-.37-1.06,17.41,17.41,0,0,1-8.19-10.49,23.35,23.35,0,0,1,1.95-19.42c2.3-4,5.59-6.73,10.28-7.49a1.43,1.43,0,0,0,.34-.14Zm9.39,19.17a18.38,18.38,0,0,0-3-10.1c-4.06-6.08-11-6.26-15.32-.41s-4.32,16.18.29,22c4.08,5.2,10.33,5.22,14.42,0C462.86,341.2,463.81,337.38,463.88,332.93Zm-11.82,19.81c-.24,3.7-.49,7.33-.73,11q-.61,9.12-1.22,18.24c-.4,5.92-.8,11.84-1.16,17.77a5.32,5.32,0,0,0,.31,2.17,4.1,4.1,0,0,0,4.83,2.49,4.24,4.24,0,0,0,3.16-4.54c-.36-5.81-.77-11.61-1.15-17.41l-1.62-24.15c-.12-1.84-.26-3.68-.39-5.53Z"/><path class="cls-1" d="M531.19,313.76a3.18,3.18,0,0,1,1.53,3.17q0,42.39,0,84.77c0,3.88-2.18,6.55-5.72,7a6.47,6.47,0,0,1-7.26-5.8,14.64,14.64,0,0,1-.05-1.48V372.86a4.16,4.16,0,0,0-.49-.17,4.52,4.52,0,0,1-4-4.79c0-5,0-10.09,0-15.14,0-4.7-.13-9.41,0-14.11.41-10.48,5.13-18.58,13.86-24.37.31-.2.65-.35,1-.52Zm-2.87,6.57a25.07,25.07,0,0,0-6.63,9,27.12,27.12,0,0,0-2.17,11.2v22.92c0,1.36,0,2.73,0,4.09,0,.7.23.9.91.89,2.38,0,4.77,0,7.15,0,.24,0,.47,0,.76-.06Zm-4.26,52.49c0,.37,0,.64,0,.92q0,14,0,27.92a5.07,5.07,0,0,0,.11,1.1A2.1,2.1,0,0,0,527.4,404a2.65,2.65,0,0,0,1-2.46V372.82Z"/><path class="cls-1" d="M374.88,313.76a2.6,2.6,0,0,1,1.79,2.8c0,10.15,0,20.3,0,30.45,0,3.49-1.8,5.92-4.95,6.75-.56.14-1.15.16-1.86.26.1,1.55.18,3.08.28,4.61L371.35,377q.7,10.6,1.42,21.21c.15,2.17.22,4.33-.92,6.31a8.3,8.3,0,0,1-14.62-.05c-1.22-2.15-1-4.47-.86-6.79l1.44-21.57,1.41-20.93c0-.34,0-.68,0-1.07a5.42,5.42,0,0,0-.62-.14c-3.8-.41-6.18-2.9-6.2-6.68,0-10.3,0-20.6,0-30.91a2.46,2.46,0,0,1,1.83-2.58H355a2.62,2.62,0,0,1,1.83,2.86c0,7.65,0,15.29,0,22.93v1.11h5.56v-1.14c0-7.64,0-15.29,0-22.93a2.65,2.65,0,0,1,1.74-2.83H365a2.7,2.7,0,0,1,1.7,2.86c0,7.64,0,15.28,0,22.92v1.1h5.57v-1.17c0-7.61,0-15.21,0-22.82a2.78,2.78,0,0,1,1.68-2.89Zm-9.46,40c-.71.45-1.75-.46-1.84,1-.23,4.05-.51,8.09-.78,12.13q-.6,9.07-1.21,18.15c-.34,5-.71,10.06-1,15.1a3.91,3.91,0,0,0,4,4.3,4,4,0,0,0,3.88-4.39c-.29-4.73-.62-9.45-.94-14.17q-.81-12.22-1.63-24.44C365.79,359,365.61,356.53,365.42,353.79Zm-8.59-8.65c0,.82,0,1.53,0,2.23a2.07,2.07,0,0,0,2.22,2.22q5.52,0,11,0a1.93,1.93,0,0,0,2.07-1.62,20.55,20.55,0,0,0,0-2.83Z"/><path class="cls-1" d="M329.38,313.76a32.34,32.34,0,0,1,4.91,1.82,16.78,16.78,0,0,1,7.65,10.12,23.66,23.66,0,0,1-1.77,19.11,15.67,15.67,0,0,1-6.3,6.38.89.89,0,0,0-.56,1q1.1,15.82,2.15,31.66c.34,5.19.7,10.37,1,15.56a8.43,8.43,0,0,1-4.66,8.49c-5.22,2.83-12.16-1.08-12.25-7-.05-3.08.24-6.17.44-9.26.38-6.08.81-12.16,1.21-18.24q.71-10.5,1.38-21a1.32,1.32,0,0,0-.37-1.06A17.41,17.41,0,0,1,314,340.81a23.39,23.39,0,0,1,2-19.42c2.3-4,5.59-6.73,10.28-7.49a1.43,1.43,0,0,0,.34-.14Zm9.39,19.17a18.38,18.38,0,0,0-3-10.1c-4.06-6.08-11-6.26-15.32-.41s-4.32,16.18.29,22c4.08,5.2,10.33,5.22,14.42,0C337.75,341.2,338.7,337.38,338.77,332.93ZM327,352.74c-.24,3.7-.49,7.33-.73,11q-.62,9.12-1.22,18.24c-.4,5.92-.8,11.84-1.16,17.77a5.32,5.32,0,0,0,.31,2.17,4.1,4.1,0,0,0,4.83,2.49,4.23,4.23,0,0,0,3.16-4.54c-.36-5.81-.77-11.61-1.15-17.41l-1.62-24.15c-.12-1.84-.26-3.68-.39-5.53Z"/><path class="cls-1" d="M406.08,313.76a3.16,3.16,0,0,1,1.53,3.17q0,42.39,0,84.77c0,3.88-2.18,6.55-5.71,7a6.48,6.48,0,0,1-7.27-5.8,14.64,14.64,0,0,1-.05-1.48V372.86a4.16,4.16,0,0,0-.49-.17,4.52,4.52,0,0,1-4-4.79c0-5,0-10.09,0-15.14,0-4.7-.13-9.41.05-14.11.41-10.48,5.13-18.58,13.86-24.37.31-.2.65-.35,1-.52Zm-2.87,6.57a25.07,25.07,0,0,0-6.63,9,27.12,27.12,0,0,0-2.17,11.2v22.92c0,1.36,0,2.73,0,4.09,0,.7.22.9.9.89,2.38,0,4.77,0,7.15,0,.24,0,.47,0,.76-.06ZM399,372.82c0,.37,0,.64,0,.92q0,14,0,27.92a5.07,5.07,0,0,0,.11,1.1,2.1,2.1,0,0,0,3.27,1.28,2.66,2.66,0,0,0,1-2.46V372.82Z"/><path class="cls-1" d="M-.45,313.76a2.6,2.6,0,0,1,1.79,2.8c0,10.15,0,20.3,0,30.45,0,3.49-1.8,5.92-4.95,6.75-.56.14-1.15.16-1.85.26.09,1.55.17,3.08.28,4.61Q-4.6,367.8-4,377C-3.5,384-3,391.1-2.55,398.17c.15,2.17.21,4.33-.92,6.31a8.06,8.06,0,0,1-7.29,4.34,8,8,0,0,1-7.34-4.39c-1.22-2.15-1-4.47-.86-6.79l1.44-21.57,1.41-20.93c0-.34,0-.68.06-1.07a5.94,5.94,0,0,0-.62-.14c-3.8-.41-6.19-2.9-6.2-6.68,0-10.3,0-20.6,0-30.91a2.46,2.46,0,0,1,1.83-2.58h.74a2.6,2.6,0,0,1,1.83,2.86c0,7.65,0,15.29,0,22.93v1.11h5.56v-1.14c0-7.64,0-15.29,0-22.93a2.63,2.63,0,0,1,1.73-2.83h.93a2.7,2.7,0,0,1,1.7,2.86c0,7.64,0,15.28,0,22.92v1.1H-3v-1.17c0-7.61,0-15.21,0-22.82a2.76,2.76,0,0,1,1.68-2.89Zm-9.46,40c-.71.45-1.75-.46-1.84,1-.23,4.05-.51,8.09-.77,12.13q-.62,9.07-1.22,18.15c-.34,5-.71,10.06-1,15.1a3.91,3.91,0,0,0,4.05,4.3,4,4,0,0,0,3.87-4.39c-.29-4.73-.62-9.45-.93-14.17q-.82-12.22-1.64-24.44C-9.54,359-9.72,356.53-9.91,353.79Zm-8.58-8.65c0,.82,0,1.53,0,2.23a2.07,2.07,0,0,0,2.22,2.22q5.52,0,11,0A1.94,1.94,0,0,0-3.15,348a22.26,22.26,0,0,0,0-2.83Z"/><path class="cls-1" d="M30.76,313.76a3.16,3.16,0,0,1,1.52,3.17q0,42.39,0,84.77c0,3.88-2.18,6.55-5.71,7a6.48,6.48,0,0,1-7.27-5.8,14.64,14.64,0,0,1-.05-1.48V372.86a4.16,4.16,0,0,0-.49-.17,4.52,4.52,0,0,1-4-4.79c0-5,0-10.09,0-15.14,0-4.7-.13-9.41.05-14.11.41-10.48,5.14-18.58,13.87-24.37.3-.2.65-.35,1-.52Zm-2.88,6.57a25.07,25.07,0,0,0-6.63,9,27.28,27.28,0,0,0-2.17,11.2v22.92c0,1.36,0,2.73,0,4.09,0,.7.22.9.91.89,2.38,0,4.76,0,7.14,0,.24,0,.48,0,.76-.06Zm-4.26,52.49c0,.37,0,.64,0,.92v27.92a5.78,5.78,0,0,0,.11,1.1A2.1,2.1,0,0,0,27,404a2.66,2.66,0,0,0,1-2.46V372.82Z"/><path class="cls-1" d="M124.66,790.87a2.59,2.59,0,0,1,1.79,2.79c0,10.15,0,20.3,0,30.45,0,3.5-1.8,5.93-5,6.75a16.69,16.69,0,0,1-1.86.26c.1,1.55.18,3.08.28,4.61l1.23,18.33c.48,7.07.94,14.14,1.43,21.21.14,2.18.21,4.33-.93,6.32a8.31,8.31,0,0,1-14.62-.06c-1.22-2.14-1-4.47-.86-6.78l1.44-21.58L109,832.24c0-.33,0-.67.06-1.07a5.94,5.94,0,0,0-.62-.14c-3.81-.41-6.19-2.89-6.2-6.67,0-10.31,0-20.61,0-30.92a2.44,2.44,0,0,1,1.83-2.57h.74a2.6,2.6,0,0,1,1.83,2.86c0,7.64,0,15.28,0,22.93v1.1h5.56v-1.14c0-7.64,0-15.28,0-22.93a2.64,2.64,0,0,1,1.74-2.82h.93a2.69,2.69,0,0,1,1.7,2.85c0,7.64,0,15.28,0,22.92v1.1h5.57v-1.17c0-7.6,0-15.21,0-22.82a2.77,2.77,0,0,1,1.68-2.88Zm-9.46,40c-.71.45-1.75-.46-1.84,1-.23,4-.51,8.08-.77,12.13q-.61,9.08-1.22,18.14c-.34,5-.71,10.06-1,15.1a3.93,3.93,0,0,0,4.05,4.31,4,4,0,0,0,3.87-4.4c-.29-4.73-.62-9.45-.93-14.17q-.83-12.22-1.64-24.44C115.57,836.09,115.39,833.63,115.2,830.89Zm-8.58-8.65c0,.82,0,1.53,0,2.24a2.07,2.07,0,0,0,2.22,2.21c3.68,0,7.36,0,11,0a1.93,1.93,0,0,0,2.08-1.62,22.24,22.24,0,0,0,0-2.83Z"/><path class="cls-1" d="M79.16,790.87a30.94,30.94,0,0,1,4.91,1.82c4,2.24,6.33,5.86,7.65,10.11A23.62,23.62,0,0,1,90,821.91a15.49,15.49,0,0,1-6.3,6.38.91.91,0,0,0-.56,1q1.09,15.84,2.15,31.66c.34,5.19.7,10.37,1,15.56A8.43,8.43,0,0,1,81.59,885c-5.23,2.84-12.16-1.07-12.26-7,0-3.09.25-6.18.44-9.26.39-6.09.81-12.16,1.22-18.24.46-7,.94-14,1.38-21a1.34,1.34,0,0,0-.38-1.06,17.38,17.38,0,0,1-8.18-10.49,23.37,23.37,0,0,1,1.94-19.43c2.3-4,5.59-6.73,10.28-7.49a1.66,1.66,0,0,0,.35-.13ZM88.55,810a18.42,18.42,0,0,0-3-10.11c-4.06-6.07-11-6.26-15.32-.41s-4.31,16.18.29,22c4.08,5.19,10.34,5.21,14.43,0C87.53,818.3,88.48,814.48,88.55,810Zm-11.81,19.8c-.25,3.7-.49,7.33-.74,11q-.6,9.11-1.22,18.23c-.39,5.92-.8,11.85-1.16,17.77a5.32,5.32,0,0,0,.31,2.17,4.09,4.09,0,0,0,4.83,2.49,4.22,4.22,0,0,0,3.16-4.54c-.36-5.8-.76-11.6-1.15-17.4l-1.62-24.16c-.12-1.84-.26-3.68-.39-5.53Z"/><path class="cls-1" d="M155.86,790.87c1.26.7,1.53,1.79,1.53,3.17q0,42.38,0,84.76c0,3.88-2.18,6.56-5.71,7a6.48,6.48,0,0,1-7.27-5.81,14.54,14.54,0,0,1,0-1.48V850a3.91,3.91,0,0,0-.49-.16,4.54,4.54,0,0,1-4-4.8c0-5,0-10.09,0-15.13,0-4.71-.13-9.42,0-14.11.41-10.49,5.14-18.59,13.87-24.38a9.89,9.89,0,0,1,1-.51ZM153,797.43a25.07,25.07,0,0,0-6.63,9,27.28,27.28,0,0,0-2.17,11.2v22.93c0,1.36,0,2.72,0,4.08,0,.7.22.9.9.89,2.39,0,4.77,0,7.15,0a7.4,7.4,0,0,0,.76-.07Zm-4.26,52.5c0,.36,0,.64,0,.91q0,14,0,27.92a5.78,5.78,0,0,0,.11,1.1,2.09,2.09,0,0,0,3.27,1.28,2.64,2.64,0,0,0,1-2.46V849.93Z"/><path class="cls-1" d="M579.6,790.87a31.31,31.31,0,0,1,4.91,1.82c4,2.24,6.32,5.86,7.65,10.11a23.63,23.63,0,0,1-1.78,19.11,15.43,15.43,0,0,1-6.3,6.38.9.9,0,0,0-.55,1q1.1,15.84,2.14,31.66c.35,5.19.7,10.37,1,15.56A8.41,8.41,0,0,1,582,885c-5.22,2.84-12.16-1.07-12.26-7,0-3.09.25-6.18.45-9.26.38-6.09.81-12.16,1.21-18.24q.71-10.51,1.38-21a1.3,1.3,0,0,0-.37-1.06,17.4,17.4,0,0,1-8.19-10.49,23.37,23.37,0,0,1,2-19.43c2.3-4,5.59-6.73,10.28-7.49a1.4,1.4,0,0,0,.34-.13ZM589,810a18.42,18.42,0,0,0-3-10.11c-4.06-6.07-11-6.26-15.32-.41s-4.32,16.18.29,22c4.08,5.19,10.33,5.21,14.42,0C588,818.3,588.92,814.48,589,810Zm-11.82,19.8c-.24,3.7-.49,7.33-.73,11q-.62,9.11-1.22,18.23c-.4,5.92-.81,11.85-1.16,17.77a5.16,5.16,0,0,0,.31,2.17,4.08,4.08,0,0,0,4.83,2.49,4.22,4.22,0,0,0,3.15-4.54c-.35-5.8-.76-11.6-1.14-17.4l-1.62-24.16c-.12-1.84-.26-3.68-.39-5.53Z"/><path class="cls-1" d="M249.77,790.87a2.59,2.59,0,0,1,1.79,2.79c0,10.15,0,20.3,0,30.45,0,3.5-1.8,5.93-4.95,6.75a16.69,16.69,0,0,1-1.86.26c.1,1.55.18,3.08.28,4.61l1.23,18.33c.48,7.07.94,14.14,1.42,21.21.15,2.18.22,4.33-.92,6.32a8.31,8.31,0,0,1-14.62-.06c-1.22-2.14-1-4.47-.86-6.78l1.44-21.58,1.41-20.93c0-.33,0-.67,0-1.07a5,5,0,0,0-.62-.14c-3.8-.41-6.18-2.89-6.2-6.67,0-10.31,0-20.61,0-30.92a2.44,2.44,0,0,1,1.83-2.57h.74a2.6,2.6,0,0,1,1.83,2.86c0,7.64,0,15.28,0,22.93v1.1h5.56v-1.14c0-7.64,0-15.28,0-22.93a2.64,2.64,0,0,1,1.74-2.82h.93a2.69,2.69,0,0,1,1.7,2.85c0,7.64,0,15.28,0,22.92v1.1h5.57v-1.17c0-7.6,0-15.21,0-22.82a2.77,2.77,0,0,1,1.68-2.88Zm-9.46,40c-.71.45-1.75-.46-1.84,1-.23,4-.51,8.08-.78,12.13q-.6,9.08-1.21,18.14c-.34,5-.71,10.06-1,15.1a3.93,3.93,0,0,0,4,4.31,4,4,0,0,0,3.87-4.4c-.29-4.73-.62-9.45-.94-14.17q-.81-12.22-1.63-24.44C240.68,836.09,240.5,833.63,240.31,830.89Zm-8.59-8.65c0,.82,0,1.53,0,2.24a2.07,2.07,0,0,0,2.22,2.21c3.68,0,7.36,0,11,0a1.92,1.92,0,0,0,2.07-1.62,20.53,20.53,0,0,0,0-2.83Z"/><path class="cls-1" d="M204.27,790.87a31.31,31.31,0,0,1,4.91,1.82c4,2.24,6.33,5.86,7.65,10.11a23.66,23.66,0,0,1-1.77,19.11,15.55,15.55,0,0,1-6.3,6.38.91.91,0,0,0-.56,1q1.1,15.84,2.15,31.66c.34,5.19.7,10.37,1,15.56A8.43,8.43,0,0,1,206.7,885c-5.23,2.84-12.17-1.07-12.26-7-.05-3.09.24-6.18.44-9.26.39-6.09.81-12.16,1.22-18.24q.69-10.51,1.38-21a1.34,1.34,0,0,0-.38-1.06,17.43,17.43,0,0,1-8.19-10.49,23.41,23.41,0,0,1,2-19.43c2.3-4,5.59-6.73,10.28-7.49a1.4,1.4,0,0,0,.34-.13ZM213.66,810a18.42,18.42,0,0,0-3-10.11c-4.06-6.07-11-6.26-15.32-.41s-4.32,16.18.29,22c4.08,5.19,10.33,5.21,14.42,0C212.64,818.3,213.59,814.48,213.66,810Zm-11.81,19.8c-.25,3.7-.5,7.33-.74,11q-.62,9.11-1.22,18.23c-.39,5.92-.8,11.85-1.16,17.77A5.32,5.32,0,0,0,199,879a4.09,4.09,0,0,0,4.83,2.49,4.22,4.22,0,0,0,3.16-4.54c-.36-5.8-.77-11.6-1.15-17.4l-1.62-24.16c-.12-1.84-.26-3.68-.39-5.53Z"/><path class="cls-1" d="M281,790.87c1.26.7,1.53,1.79,1.53,3.17q0,42.38,0,84.76c0,3.88-2.18,6.56-5.71,7A6.48,6.48,0,0,1,269.5,880a14.54,14.54,0,0,1-.05-1.48V850a3.91,3.91,0,0,0-.49-.16,4.54,4.54,0,0,1-4-4.8c0-5,0-10.09,0-15.13,0-4.71-.13-9.42,0-14.11.41-10.49,5.14-18.59,13.87-24.38a9.89,9.89,0,0,1,1-.51Zm-2.87,6.56a25.07,25.07,0,0,0-6.63,9,27.12,27.12,0,0,0-2.17,11.2v22.93c0,1.36,0,2.72,0,4.08,0,.7.22.9.9.89,2.39,0,4.77,0,7.15,0a7.4,7.4,0,0,0,.76-.07Zm-4.26,52.5c0,.36,0,.64,0,.91q0,14,0,27.92a5.78,5.78,0,0,0,.11,1.1,2.09,2.09,0,0,0,3.27,1.28,2.64,2.64,0,0,0,1-2.46V849.93Z"/><path class="cls-1" d="M500,790.87a2.59,2.59,0,0,1,1.79,2.79c0,10.15,0,20.3,0,30.45,0,3.5-1.81,5.93-4.95,6.75a16.69,16.69,0,0,1-1.86.26c.1,1.55.18,3.08.28,4.61l1.23,18.33q.71,10.61,1.42,21.21c.15,2.18.22,4.33-.92,6.32a8.31,8.31,0,0,1-14.62-.06c-1.22-2.14-1-4.47-.86-6.78l1.44-21.58,1.41-20.93c0-.33,0-.67.05-1.07a5.42,5.42,0,0,0-.62-.14c-3.8-.41-6.18-2.89-6.2-6.67,0-10.31,0-20.61,0-30.92a2.44,2.44,0,0,1,1.83-2.57h.74a2.61,2.61,0,0,1,1.83,2.86c0,7.64,0,15.28,0,22.93v1.1h5.56v-1.14c0-7.64,0-15.28,0-22.93a2.64,2.64,0,0,1,1.74-2.82h.93a2.69,2.69,0,0,1,1.7,2.85c0,7.64,0,15.28,0,22.92v1.1h5.57v-1.17c0-7.6,0-15.21,0-22.82a2.77,2.77,0,0,1,1.68-2.88Zm-9.46,40c-.71.45-1.75-.46-1.84,1-.23,4-.51,8.08-.78,12.13q-.6,9.08-1.22,18.14c-.33,5-.7,10.06-1,15.1a3.92,3.92,0,0,0,4,4.31,4,4,0,0,0,3.88-4.4c-.29-4.73-.62-9.45-.94-14.17q-.81-12.22-1.63-24.44C490.9,836.09,490.72,833.63,490.53,830.89Zm-8.59-8.65c0,.82,0,1.53,0,2.24a2.07,2.07,0,0,0,2.21,2.21c3.69,0,7.37,0,11,0a1.92,1.92,0,0,0,2.07-1.62,20.53,20.53,0,0,0,0-2.83Z"/><path class="cls-1" d="M454.49,790.87a31.31,31.31,0,0,1,4.91,1.82,16.77,16.77,0,0,1,7.65,10.11,23.66,23.66,0,0,1-1.77,19.11,15.55,15.55,0,0,1-6.3,6.38.9.9,0,0,0-.56,1q1.09,15.84,2.15,31.66c.34,5.19.7,10.37,1,15.56a8.41,8.41,0,0,1-4.65,8.49c-5.22,2.84-12.16-1.07-12.25-7-.06-3.09.24-6.18.44-9.26.38-6.09.81-12.16,1.21-18.24q.7-10.51,1.38-21a1.3,1.3,0,0,0-.37-1.06,17.43,17.43,0,0,1-8.19-10.49,23.37,23.37,0,0,1,1.95-19.43c2.3-4,5.59-6.73,10.28-7.49a1.4,1.4,0,0,0,.34-.13ZM463.88,810a18.42,18.42,0,0,0-3-10.11c-4.06-6.07-11-6.26-15.32-.41s-4.32,16.18.29,22c4.08,5.19,10.33,5.21,14.42,0C462.86,818.3,463.81,814.48,463.88,810Zm-11.82,19.8c-.24,3.7-.49,7.33-.73,11q-.61,9.11-1.22,18.23c-.4,5.92-.8,11.85-1.16,17.77a5.32,5.32,0,0,0,.31,2.17,4.09,4.09,0,0,0,4.83,2.49,4.24,4.24,0,0,0,3.16-4.54c-.36-5.8-.77-11.6-1.15-17.4l-1.62-24.16c-.12-1.84-.26-3.68-.39-5.53Z"/><path class="cls-1" d="M531.19,790.87a3.17,3.17,0,0,1,1.53,3.17q0,42.38,0,84.76c0,3.88-2.18,6.56-5.72,7a6.48,6.48,0,0,1-7.26-5.81,14.54,14.54,0,0,1-.05-1.48V850a3.91,3.91,0,0,0-.49-.16,4.54,4.54,0,0,1-4-4.8c0-5,0-10.09,0-15.13,0-4.71-.13-9.42,0-14.11.41-10.49,5.13-18.59,13.86-24.38.31-.2.65-.34,1-.51Zm-2.87,6.56a25.07,25.07,0,0,0-6.63,9,27.12,27.12,0,0,0-2.17,11.2v22.93c0,1.36,0,2.72,0,4.08,0,.7.23.9.91.89,2.38,0,4.77,0,7.15,0,.24,0,.47,0,.76-.07Zm-4.26,52.5c0,.36,0,.64,0,.91q0,14,0,27.92a5.07,5.07,0,0,0,.11,1.1,2.09,2.09,0,0,0,3.27,1.28,2.63,2.63,0,0,0,1-2.46V849.93Z"/><path class="cls-1" d="M374.88,790.87a2.59,2.59,0,0,1,1.79,2.79c0,10.15,0,20.3,0,30.45,0,3.5-1.8,5.93-4.95,6.75a16.69,16.69,0,0,1-1.86.26c.1,1.55.18,3.08.28,4.61l1.23,18.33q.7,10.61,1.42,21.21c.15,2.18.22,4.33-.92,6.32a8.31,8.31,0,0,1-14.62-.06c-1.22-2.14-1-4.47-.86-6.78l1.44-21.58,1.41-20.93c0-.33,0-.67,0-1.07a5.42,5.42,0,0,0-.62-.14c-3.8-.41-6.18-2.89-6.2-6.67,0-10.31,0-20.61,0-30.92a2.44,2.44,0,0,1,1.83-2.57H355a2.61,2.61,0,0,1,1.83,2.86c0,7.64,0,15.28,0,22.93v1.1h5.56v-1.14c0-7.64,0-15.28,0-22.93a2.64,2.64,0,0,1,1.74-2.82H365a2.69,2.69,0,0,1,1.7,2.85c0,7.64,0,15.28,0,22.92v1.1h5.57v-1.17c0-7.6,0-15.21,0-22.82a2.77,2.77,0,0,1,1.68-2.88Zm-9.46,40c-.71.45-1.75-.46-1.84,1-.23,4-.51,8.08-.78,12.13q-.6,9.08-1.21,18.14c-.34,5-.71,10.06-1,15.1a3.92,3.92,0,0,0,4,4.31,4,4,0,0,0,3.88-4.4c-.29-4.73-.62-9.45-.94-14.17q-.81-12.22-1.63-24.44C365.79,836.09,365.61,833.63,365.42,830.89Zm-8.59-8.65c0,.82,0,1.53,0,2.24a2.07,2.07,0,0,0,2.22,2.21c3.68,0,7.36,0,11,0a1.92,1.92,0,0,0,2.07-1.62,20.53,20.53,0,0,0,0-2.83Z"/><path class="cls-1" d="M329.38,790.87a31.31,31.31,0,0,1,4.91,1.82c4,2.24,6.33,5.86,7.65,10.11a23.66,23.66,0,0,1-1.77,19.11,15.55,15.55,0,0,1-6.3,6.38.9.9,0,0,0-.56,1q1.1,15.84,2.15,31.66c.34,5.19.7,10.37,1,15.56A8.42,8.42,0,0,1,331.8,885c-5.22,2.84-12.16-1.07-12.25-7-.05-3.09.24-6.18.44-9.26.38-6.09.81-12.16,1.21-18.24q.71-10.51,1.38-21a1.3,1.3,0,0,0-.37-1.06A17.43,17.43,0,0,1,314,817.92a23.41,23.41,0,0,1,2-19.43c2.3-4,5.59-6.73,10.28-7.49a1.4,1.4,0,0,0,.34-.13ZM338.77,810a18.42,18.42,0,0,0-3-10.11c-4.06-6.07-11-6.26-15.32-.41s-4.32,16.18.29,22c4.08,5.19,10.33,5.21,14.42,0C337.75,818.3,338.7,814.48,338.77,810ZM327,829.84c-.24,3.7-.49,7.33-.73,11q-.62,9.11-1.22,18.23c-.4,5.92-.8,11.85-1.16,17.77a5.32,5.32,0,0,0,.31,2.17,4.09,4.09,0,0,0,4.83,2.49,4.23,4.23,0,0,0,3.16-4.54c-.36-5.8-.77-11.6-1.15-17.4l-1.62-24.16c-.12-1.84-.26-3.68-.39-5.53Z"/><path class="cls-1" d="M406.08,790.87c1.26.7,1.53,1.79,1.53,3.17q0,42.38,0,84.76c0,3.88-2.18,6.56-5.71,7a6.48,6.48,0,0,1-7.27-5.81,14.54,14.54,0,0,1-.05-1.48V850a3.91,3.91,0,0,0-.49-.16,4.54,4.54,0,0,1-4-4.8c0-5,0-10.09,0-15.13,0-4.71-.13-9.42.05-14.11.41-10.49,5.13-18.59,13.86-24.38.31-.2.65-.34,1-.51Zm-2.87,6.56a25.07,25.07,0,0,0-6.63,9,27.12,27.12,0,0,0-2.17,11.2v22.93c0,1.36,0,2.72,0,4.08,0,.7.22.9.9.89,2.38,0,4.77,0,7.15,0,.24,0,.47,0,.76-.07ZM399,849.93c0,.36,0,.64,0,.91q0,14,0,27.92a5.07,5.07,0,0,0,.11,1.1,2.09,2.09,0,0,0,3.27,1.28,2.64,2.64,0,0,0,1-2.46V849.93Z"/><path class="cls-1" d="M-.45,790.87a2.59,2.59,0,0,1,1.79,2.79c0,10.15,0,20.3,0,30.45,0,3.5-1.8,5.93-4.95,6.75a16.83,16.83,0,0,1-1.85.26c.09,1.55.17,3.08.28,4.61q.6,9.16,1.22,18.33c.48,7.07.94,14.14,1.43,21.21.15,2.18.21,4.33-.92,6.32a8,8,0,0,1-7.29,4.33,8,8,0,0,1-7.34-4.39c-1.22-2.14-1-4.47-.86-6.78l1.44-21.58,1.41-20.93c0-.33,0-.67.06-1.07a5.94,5.94,0,0,0-.62-.14c-3.8-.41-6.19-2.89-6.2-6.67,0-10.31,0-20.61,0-30.92a2.44,2.44,0,0,1,1.83-2.57h.74a2.59,2.59,0,0,1,1.83,2.86c0,7.64,0,15.28,0,22.93v1.1h5.56v-1.14c0-7.64,0-15.28,0-22.93a2.62,2.62,0,0,1,1.73-2.82h.93a2.69,2.69,0,0,1,1.7,2.85c0,7.64,0,15.28,0,22.92v1.1H-3v-1.17c0-7.6,0-15.21,0-22.82a2.75,2.75,0,0,1,1.68-2.88Zm-9.46,40c-.71.45-1.75-.46-1.84,1-.23,4-.51,8.08-.77,12.13q-.62,9.08-1.22,18.14c-.34,5-.71,10.06-1,15.1a3.93,3.93,0,0,0,4.05,4.31,4,4,0,0,0,3.87-4.4c-.29-4.73-.62-9.45-.93-14.17q-.82-12.22-1.64-24.44C-9.54,836.09-9.72,833.63-9.91,830.89Zm-8.58-8.65c0,.82,0,1.53,0,2.24a2.07,2.07,0,0,0,2.22,2.21c3.68,0,7.36,0,11,0a1.93,1.93,0,0,0,2.08-1.62,22.24,22.24,0,0,0,0-2.83Z"/><path class="cls-1" d="M30.76,790.87A3.15,3.15,0,0,1,32.28,794q0,42.38,0,84.76c0,3.88-2.18,6.56-5.71,7A6.48,6.48,0,0,1,19.28,880a14.54,14.54,0,0,1-.05-1.48V850a3.91,3.91,0,0,0-.49-.16,4.54,4.54,0,0,1-4-4.8c0-5,0-10.09,0-15.13,0-4.71-.13-9.42.05-14.11.41-10.49,5.14-18.59,13.87-24.38.3-.2.65-.34,1-.51Zm-2.88,6.56a25.07,25.07,0,0,0-6.63,9,27.28,27.28,0,0,0-2.17,11.2v22.93c0,1.36,0,2.72,0,4.08,0,.7.22.9.91.89,2.38,0,4.76,0,7.14,0a7.4,7.4,0,0,0,.76-.07Zm-4.26,52.5c0,.36,0,.64,0,.91v27.92a5.78,5.78,0,0,0,.11,1.1A2.09,2.09,0,0,0,27,881.14a2.64,2.64,0,0,0,1-2.46V849.93Z"/><path class="cls-1" d="M48.39,433a2.58,2.58,0,0,1,1.78,2.8q0,15.23,0,30.45c0,3.49-1.81,5.92-4.95,6.74a16.54,16.54,0,0,1-1.86.27c.09,1.54.18,3.07.28,4.6l1.23,18.34c.47,7.06.93,14.13,1.42,21.2.15,2.18.22,4.34-.92,6.32a8.31,8.31,0,0,1-14.62,0c-1.22-2.15-1-4.47-.86-6.79q.71-10.78,1.43-21.58.71-10.45,1.42-20.92c0-.34,0-.68.05-1.07a4,4,0,0,0-.62-.15c-3.8-.4-6.19-2.89-6.2-6.67,0-10.3,0-20.61,0-30.91A2.47,2.47,0,0,1,27.77,433h.75a2.61,2.61,0,0,1,1.83,2.86c0,7.64,0,15.29,0,22.93v1.1H35.9V458.8c0-7.65,0-15.29,0-22.93A2.62,2.62,0,0,1,37.62,433h.92a2.71,2.71,0,0,1,1.71,2.86c0,7.64,0,15.28,0,22.91v1.11h5.56v-1.17c0-7.61,0-15.22,0-22.83A2.76,2.76,0,0,1,47.46,433Zm-9.46,40c-.72.44-1.76-.47-1.84,1-.23,4-.51,8.09-.78,12.13q-.6,9.07-1.22,18.15c-.33,5-.7,10.06-1,15.09a3.92,3.92,0,0,0,4,4.31,4,4,0,0,0,3.88-4.4c-.29-4.72-.62-9.44-.94-14.17q-.81-12.21-1.63-24.44C39.29,478.27,39.12,475.8,38.93,473.07Zm-8.59-8.66c0,.82,0,1.53,0,2.24a2.09,2.09,0,0,0,2.22,2.22q5.52,0,11,0a1.94,1.94,0,0,0,2.08-1.63,20.51,20.51,0,0,0,0-2.83Z"/><path class="cls-1" d="M2.89,433a31.31,31.31,0,0,1,4.91,1.82c4,2.24,6.32,5.87,7.64,10.11a23.58,23.58,0,0,1-1.77,19.11,15.43,15.43,0,0,1-6.3,6.38.91.91,0,0,0-.55,1Q7.9,487.31,9,503.14c.35,5.18.7,10.37,1,15.56a8.41,8.41,0,0,1-4.65,8.48c-5.23,2.84-12.16-1.07-12.26-7,0-3.08.25-6.18.45-9.26.38-6.08.8-12.16,1.21-18.24q.7-10.52,1.38-21c0-.35-.12-.92-.38-1.06a17.39,17.39,0,0,1-8.18-10.49,23.31,23.31,0,0,1,2-19.42c2.3-4,5.58-6.74,10.28-7.49A1.43,1.43,0,0,0,.1,433Zm9.39,19.17a18.38,18.38,0,0,0-3-10.1c-4.06-6.08-11-6.27-15.33-.42s-4.31,16.19.29,22c4.09,5.19,10.34,5.21,14.43,0C11.26,460.48,12.21,456.66,12.28,452.21ZM.46,472c-.25,3.69-.49,7.33-.73,11q-.61,9.12-1.22,18.23c-.4,5.93-.81,11.85-1.17,17.78a5.31,5.31,0,0,0,.32,2.16,4.08,4.08,0,0,0,4.82,2.49,4.22,4.22,0,0,0,3.16-4.54c-.36-5.8-.76-11.6-1.15-17.4q-.8-12.07-1.61-24.16c-.12-1.84-.26-3.68-.39-5.52Z"/><path class="cls-1" d="M79.59,433a3.17,3.17,0,0,1,1.53,3.17q0,42.38,0,84.76c0,3.89-2.18,6.56-5.72,7a6.48,6.48,0,0,1-7.27-5.8,14.75,14.75,0,0,1,0-1.49q0-13.74,0-27.48v-1.11c-.19-.06-.33-.13-.48-.16a4.55,4.55,0,0,1-4-4.8c0-5,0-10.09,0-15.13,0-4.71-.13-9.41,0-14.11.4-10.48,5.13-18.59,13.86-24.37a9.18,9.18,0,0,1,1-.52Zm-2.88,6.56a25.23,25.23,0,0,0-6.63,9,27.2,27.2,0,0,0-2.17,11.19q0,11.48,0,22.93c0,1.36,0,2.72,0,4.08,0,.7.22.91.91.9,2.38,0,4.76,0,7.15,0,.23,0,.47,0,.75-.06Zm-4.25,52.5c0,.37,0,.64,0,.91v27.92a5.89,5.89,0,0,0,.12,1.11,2.09,2.09,0,0,0,3.26,1.28,2.64,2.64,0,0,0,1-2.47V492.1Z"/><path class="cls-1" d="M548.82,433a2.59,2.59,0,0,1,1.79,2.8c0,10.15,0,20.3,0,30.45,0,3.49-1.8,5.92-4.94,6.74a16.89,16.89,0,0,1-1.86.27c.09,1.54.17,3.07.28,4.6.4,6.11.82,12.22,1.22,18.34.48,7.06.94,14.13,1.43,21.2.15,2.18.21,4.34-.92,6.32a8.32,8.32,0,0,1-14.63,0c-1.21-2.15-1-4.47-.86-6.79l1.44-21.58,1.41-20.92c0-.34,0-.68.06-1.07a4.26,4.26,0,0,0-.62-.15c-3.8-.4-6.19-2.89-6.2-6.67,0-10.3,0-20.61,0-30.91a2.47,2.47,0,0,1,1.83-2.58H529a2.59,2.59,0,0,1,1.83,2.86c0,7.64,0,15.29,0,22.93v1.1h5.56V458.8c0-7.65,0-15.29,0-22.93a2.63,2.63,0,0,1,1.73-2.83H539a2.69,2.69,0,0,1,1.7,2.86c0,7.64,0,15.28,0,22.91v1.11h5.56v-1.17c0-7.61,0-15.22,0-22.83A2.76,2.76,0,0,1,547.9,433Zm-9.46,40c-.71.44-1.75-.47-1.83,1-.24,4-.51,8.09-.78,12.13q-.62,9.07-1.22,18.15c-.34,5-.71,10.06-1,15.09a3.92,3.92,0,0,0,4.05,4.31,4,4,0,0,0,3.87-4.4c-.29-4.72-.62-9.44-.93-14.17q-.82-12.21-1.63-24.44C539.73,478.27,539.55,475.8,539.36,473.07Zm-8.58-8.66c0,.82,0,1.53,0,2.24a2.08,2.08,0,0,0,2.22,2.22q5.52,0,11,0a1.94,1.94,0,0,0,2.08-1.63,22.23,22.23,0,0,0,0-2.83Z"/><path class="cls-1" d="M503.32,433a30.94,30.94,0,0,1,4.91,1.82c4,2.24,6.33,5.87,7.65,10.11a23.62,23.62,0,0,1-1.77,19.11,15.43,15.43,0,0,1-6.3,6.38.92.92,0,0,0-.56,1q1.1,15.84,2.15,31.67c.35,5.18.7,10.37,1,15.56a8.41,8.41,0,0,1-4.65,8.48c-5.23,2.84-12.16-1.07-12.26-7-.05-3.08.25-6.18.44-9.26.39-6.08.81-12.16,1.22-18.24q.71-10.52,1.38-21a1.36,1.36,0,0,0-.38-1.06A17.39,17.39,0,0,1,488,460.09a23.35,23.35,0,0,1,1.94-19.42c2.31-4,5.59-6.74,10.29-7.49a1.88,1.88,0,0,0,.34-.14Zm9.4,19.17a18.39,18.39,0,0,0-3-10.1c-4.05-6.08-11-6.27-15.32-.42s-4.31,16.19.29,22c4.08,5.19,10.34,5.21,14.43,0C511.7,460.48,512.64,456.66,512.72,452.21ZM500.9,472c-.25,3.69-.49,7.33-.74,11q-.6,9.12-1.22,18.23c-.39,5.93-.8,11.85-1.16,17.78a5.48,5.48,0,0,0,.31,2.16,4.09,4.09,0,0,0,4.83,2.49,4.22,4.22,0,0,0,3.16-4.54c-.36-5.8-.76-11.6-1.15-17.4q-.81-12.07-1.61-24.16l-.39-5.52Z"/><path class="cls-1" d="M580,433a3.15,3.15,0,0,1,1.52,3.17q0,42.38,0,84.76c0,3.89-2.18,6.56-5.71,7a6.48,6.48,0,0,1-7.27-5.8,14.74,14.74,0,0,1,0-1.49V492.13c-.2-.06-.34-.13-.49-.16a4.54,4.54,0,0,1-4-4.8c0-5,0-10.09,0-15.13,0-4.71-.13-9.41.05-14.11.41-10.48,5.14-18.59,13.87-24.37a9,9,0,0,1,1-.52Zm-2.88,6.56a25.11,25.11,0,0,0-6.63,9,27.2,27.2,0,0,0-2.17,11.19v22.93c0,1.36,0,2.72,0,4.08,0,.7.22.91.91.9,2.38,0,4.76,0,7.14,0,.24,0,.48,0,.76-.06Zm-4.26,52.5c0,.37,0,.64,0,.91v27.92A5.88,5.88,0,0,0,573,522a2.1,2.1,0,0,0,3.27,1.28,2.64,2.64,0,0,0,1-2.47V492.1Z"/><path class="cls-1" d="M173.5,433a2.59,2.59,0,0,1,1.78,2.8c0,10.15,0,20.3,0,30.45,0,3.49-1.81,5.92-5,6.74a16.54,16.54,0,0,1-1.86.27c.09,1.54.18,3.07.28,4.6q.6,9.17,1.23,18.34c.47,7.06.93,14.13,1.42,21.2.15,2.18.22,4.34-.92,6.32a8.32,8.32,0,0,1-14.63,0c-1.21-2.15-1-4.47-.85-6.79q.7-10.78,1.43-21.58l1.41-20.92c0-.34,0-.68.06-1.07a4,4,0,0,0-.62-.15c-3.8-.4-6.19-2.89-6.2-6.67,0-10.3,0-20.61,0-30.91a2.47,2.47,0,0,1,1.83-2.58h.74a2.59,2.59,0,0,1,1.83,2.86q0,11.46,0,22.93v1.1H161V458.8c0-7.65,0-15.29,0-22.93a2.62,2.62,0,0,1,1.74-2.83h.92a2.71,2.71,0,0,1,1.71,2.86c0,7.64,0,15.28,0,22.91v1.11h5.56v-1.17c0-7.61,0-15.22,0-22.83a2.76,2.76,0,0,1,1.68-2.88Zm-9.46,40c-.72.44-1.76-.47-1.84,1-.24,4-.51,8.09-.78,12.13q-.6,9.07-1.22,18.15c-.34,5-.7,10.06-1,15.09a3.92,3.92,0,0,0,4,4.31,4,4,0,0,0,3.88-4.4c-.29-4.72-.63-9.44-.94-14.17q-.81-12.21-1.63-24.44C164.4,478.27,164.23,475.8,164,473.07Zm-8.59-8.66c0,.82,0,1.53,0,2.24a2.09,2.09,0,0,0,2.22,2.22q5.52,0,11,0a1.94,1.94,0,0,0,2.08-1.63,20.51,20.51,0,0,0,0-2.83Z"/><path class="cls-1" d="M128,433a31.05,31.05,0,0,1,4.92,1.82c4,2.24,6.32,5.87,7.64,10.11a23.58,23.58,0,0,1-1.77,19.11,15.43,15.43,0,0,1-6.3,6.38.9.9,0,0,0-.55,1q1.08,15.84,2.14,31.67c.35,5.18.7,10.37,1,15.56a8.41,8.41,0,0,1-4.65,8.48c-5.23,2.84-12.16-1.07-12.26-7,0-3.08.25-6.18.44-9.26.39-6.08.81-12.16,1.22-18.24q.71-10.52,1.38-21a1.36,1.36,0,0,0-.38-1.06,17.39,17.39,0,0,1-8.18-10.49,23.31,23.31,0,0,1,2-19.42c2.3-4,5.58-6.74,10.28-7.49a1.43,1.43,0,0,0,.34-.14Zm9.4,19.17a18.47,18.47,0,0,0-3-10.1c-4.06-6.08-11-6.27-15.33-.42s-4.31,16.19.29,22c4.08,5.19,10.34,5.21,14.43,0C136.37,460.48,137.32,456.66,137.39,452.21ZM125.57,472c-.25,3.69-.49,7.33-.73,11q-.61,9.12-1.22,18.23c-.4,5.93-.81,11.85-1.17,17.78a5.48,5.48,0,0,0,.31,2.16,4.09,4.09,0,0,0,4.83,2.49,4.22,4.22,0,0,0,3.16-4.54c-.36-5.8-.76-11.6-1.15-17.4q-.81-12.07-1.61-24.16L127.6,472Z"/><path class="cls-1" d="M204.7,433a3.17,3.17,0,0,1,1.53,3.17q0,42.38,0,84.76c0,3.89-2.17,6.56-5.71,7a6.48,6.48,0,0,1-7.27-5.8,14.75,14.75,0,0,1,0-1.49q0-13.74,0-27.48v-1.11c-.19-.06-.33-.13-.48-.16a4.55,4.55,0,0,1-4-4.8c0-5,0-10.09,0-15.13,0-4.71-.13-9.41.05-14.11.4-10.48,5.13-18.59,13.86-24.37a10.11,10.11,0,0,1,1-.52Zm-2.88,6.56a25.23,25.23,0,0,0-6.63,9A27.2,27.2,0,0,0,193,459.78v22.93c0,1.36,0,2.72,0,4.08,0,.7.22.91.91.9,2.38,0,4.76,0,7.14,0,.24,0,.48,0,.76-.06Zm-4.25,52.5c0,.37,0,.64,0,.91v27.92a5.17,5.17,0,0,0,.12,1.11,2.09,2.09,0,0,0,3.26,1.28,2.64,2.64,0,0,0,1-2.47V492.1Z"/><path class="cls-1" d="M423.72,433a2.6,2.6,0,0,1,1.78,2.8c0,10.15,0,20.3,0,30.45,0,3.49-1.81,5.92-4.95,6.74a16.89,16.89,0,0,1-1.86.27c.09,1.54.18,3.07.28,4.6q.6,9.17,1.23,18.34c.47,7.06.93,14.13,1.42,21.2.15,2.18.21,4.34-.92,6.32a8.32,8.32,0,0,1-14.63,0c-1.21-2.15-1-4.47-.85-6.79q.71-10.78,1.43-21.58l1.41-20.92c0-.34,0-.68.06-1.07a4.26,4.26,0,0,0-.62-.15c-3.8-.4-6.19-2.89-6.2-6.67,0-10.3,0-20.61,0-30.91A2.47,2.47,0,0,1,403.1,433h.74a2.59,2.59,0,0,1,1.83,2.86q0,11.46,0,22.93v1.1h5.56V458.8c0-7.65,0-15.29,0-22.93a2.63,2.63,0,0,1,1.73-2.83h.93a2.69,2.69,0,0,1,1.7,2.86c0,7.64,0,15.28,0,22.91v1.11h5.56v-1.17c0-7.61,0-15.22,0-22.83a2.76,2.76,0,0,1,1.68-2.88Zm-9.46,40c-.72.44-1.76-.47-1.84,1-.24,4-.51,8.09-.78,12.13-.4,6.05-.82,12.1-1.22,18.15-.34,5-.71,10.06-1,15.09a3.93,3.93,0,0,0,4.05,4.31,4,4,0,0,0,3.88-4.4c-.3-4.72-.63-9.44-.94-14.17q-.82-12.21-1.63-24.44C414.62,478.27,414.45,475.8,414.26,473.07Zm-8.59-8.66c0,.82,0,1.53,0,2.24a2.08,2.08,0,0,0,2.22,2.22q5.52,0,11,0a1.94,1.94,0,0,0,2.08-1.63,22.23,22.23,0,0,0,0-2.83Z"/><path class="cls-1" d="M378.21,433a30.94,30.94,0,0,1,4.91,1.82c4,2.24,6.33,5.87,7.65,10.11A23.58,23.58,0,0,1,389,464.08a15.43,15.43,0,0,1-6.3,6.38.92.92,0,0,0-.56,1q1.1,15.84,2.15,31.67c.35,5.18.7,10.37,1,15.56a8.41,8.41,0,0,1-4.65,8.48c-5.23,2.84-12.16-1.07-12.26-7-.05-3.08.25-6.18.44-9.26.39-6.08.81-12.16,1.22-18.24q.7-10.52,1.38-21a1.36,1.36,0,0,0-.38-1.06,17.39,17.39,0,0,1-8.18-10.49,23.35,23.35,0,0,1,1.94-19.42c2.31-4,5.59-6.74,10.29-7.49a1.88,1.88,0,0,0,.34-.14Zm9.4,19.17a18.39,18.39,0,0,0-3-10.1c-4.05-6.08-11-6.27-15.32-.42s-4.31,16.19.29,22c4.08,5.19,10.34,5.21,14.43,0C386.59,460.48,387.53,456.66,387.61,452.21ZM375.79,472c-.25,3.69-.49,7.33-.74,11q-.6,9.12-1.22,18.23c-.39,5.93-.8,11.85-1.16,17.78a5.48,5.48,0,0,0,.31,2.16,4.09,4.09,0,0,0,4.83,2.49A4.22,4.22,0,0,0,381,519.1c-.36-5.8-.76-11.6-1.15-17.4q-.81-12.07-1.61-24.16l-.39-5.52Z"/><path class="cls-1" d="M454.92,433a3.17,3.17,0,0,1,1.53,3.17q0,42.38,0,84.76c0,3.89-2.18,6.56-5.71,7a6.48,6.48,0,0,1-7.27-5.8,14.74,14.74,0,0,1-.05-1.49V492.13c-.2-.06-.34-.13-.48-.16a4.54,4.54,0,0,1-4-4.8c0-5,0-10.09,0-15.13,0-4.71-.13-9.41.06-14.11.4-10.48,5.13-18.59,13.86-24.37a9,9,0,0,1,1-.52ZM452,439.6a25.11,25.11,0,0,0-6.63,9,27.2,27.2,0,0,0-2.17,11.19v22.93c0,1.36,0,2.72,0,4.08,0,.7.22.91.91.9,2.38,0,4.76,0,7.14,0,.24,0,.48,0,.76-.06Zm-4.26,52.5c0,.37,0,.64,0,.91v27.92a5.88,5.88,0,0,0,.11,1.11,2.1,2.1,0,0,0,3.27,1.28,2.64,2.64,0,0,0,1-2.47V492.1Z"/><path class="cls-1" d="M298.61,433a2.6,2.6,0,0,1,1.78,2.8c0,10.15,0,20.3,0,30.45,0,3.49-1.81,5.92-4.95,6.74a16.89,16.89,0,0,1-1.86.27c.09,1.54.18,3.07.28,4.6q.6,9.17,1.23,18.34c.47,7.06.93,14.13,1.42,21.2.15,2.18.21,4.34-.92,6.32a8.32,8.32,0,0,1-14.63,0c-1.21-2.15-1-4.47-.85-6.79q.7-10.78,1.43-21.58l1.41-20.92c0-.34,0-.68.06-1.07a4.26,4.26,0,0,0-.62-.15c-3.8-.4-6.19-2.89-6.2-6.67,0-10.3,0-20.61,0-30.91A2.47,2.47,0,0,1,278,433h.74a2.59,2.59,0,0,1,1.83,2.86q0,11.46,0,22.93v1.1h5.55V458.8c0-7.65,0-15.29,0-22.93a2.63,2.63,0,0,1,1.73-2.83h.93a2.69,2.69,0,0,1,1.7,2.86c0,7.64,0,15.28,0,22.91v1.11H296v-1.17c0-7.61,0-15.22,0-22.83a2.76,2.76,0,0,1,1.68-2.88Zm-9.46,40c-.72.44-1.76-.47-1.84,1-.24,4-.51,8.09-.78,12.13-.4,6.05-.82,12.1-1.22,18.15-.34,5-.71,10.06-1,15.09a3.92,3.92,0,0,0,4,4.31,4,4,0,0,0,3.88-4.4c-.3-4.72-.63-9.44-.94-14.17q-.81-12.21-1.63-24.44C289.51,478.27,289.34,475.8,289.15,473.07Zm-8.59-8.66c0,.82,0,1.53,0,2.24a2.08,2.08,0,0,0,2.22,2.22q5.52,0,11,0a1.94,1.94,0,0,0,2.08-1.63,22.21,22.21,0,0,0,0-2.83Z"/><path class="cls-1" d="M253.1,433a30.94,30.94,0,0,1,4.91,1.82c4,2.24,6.33,5.87,7.65,10.11a23.58,23.58,0,0,1-1.77,19.11,15.43,15.43,0,0,1-6.3,6.38.92.92,0,0,0-.56,1q1.1,15.84,2.15,31.67c.35,5.18.7,10.37,1,15.56a8.41,8.41,0,0,1-4.65,8.48c-5.23,2.84-12.16-1.07-12.26-7-.05-3.08.25-6.18.44-9.26.39-6.08.81-12.16,1.22-18.24q.7-10.52,1.38-21a1.36,1.36,0,0,0-.38-1.06,17.39,17.39,0,0,1-8.18-10.49,23.35,23.35,0,0,1,1.94-19.42c2.31-4,5.59-6.74,10.29-7.49a1.63,1.63,0,0,0,.34-.14Zm9.4,19.17a18.47,18.47,0,0,0-3-10.1c-4.06-6.08-11-6.27-15.33-.42s-4.31,16.19.29,22c4.08,5.19,10.34,5.21,14.43,0C261.48,460.48,262.42,456.66,262.5,452.21ZM250.68,472c-.25,3.69-.49,7.33-.73,11l-1.23,18.23c-.39,5.93-.8,11.85-1.16,17.78a5.48,5.48,0,0,0,.31,2.16,4.09,4.09,0,0,0,4.83,2.49,4.22,4.22,0,0,0,3.16-4.54c-.36-5.8-.76-11.6-1.15-17.4q-.81-12.07-1.61-24.16l-.39-5.52Z"/><path class="cls-1" d="M329.81,433a3.17,3.17,0,0,1,1.53,3.17q0,42.38,0,84.76c0,3.89-2.18,6.56-5.71,7a6.48,6.48,0,0,1-7.27-5.8,14.75,14.75,0,0,1,0-1.49q0-13.74,0-27.48v-1.11c-.2-.06-.34-.13-.48-.16a4.54,4.54,0,0,1-4-4.8c0-5,0-10.09,0-15.13,0-4.71-.14-9.41.05-14.11.4-10.48,5.13-18.59,13.86-24.37a9,9,0,0,1,1-.52Zm-2.88,6.56a25.23,25.23,0,0,0-6.63,9,27.2,27.2,0,0,0-2.17,11.19v22.93c0,1.36,0,2.72,0,4.08,0,.7.22.91.91.9,2.38,0,4.76,0,7.14,0,.24,0,.48,0,.76-.06Zm-4.25,52.5c0,.37-.05.64-.05.91v27.92a5.17,5.17,0,0,0,.12,1.11,2.09,2.09,0,0,0,3.26,1.28,2.64,2.64,0,0,0,1-2.47V492.1Z"/><path class="cls-1" d="M48.39,671.59a2.58,2.58,0,0,1,1.78,2.8q0,15.23,0,30.45c0,3.49-1.81,5.92-4.95,6.74a16.54,16.54,0,0,1-1.86.27c.09,1.54.18,3.07.28,4.6l1.23,18.34c.47,7.07.93,14.13,1.42,21.2.15,2.18.22,4.34-.92,6.32a8.31,8.31,0,0,1-14.62,0c-1.22-2.15-1-4.47-.86-6.79q.71-10.79,1.43-21.58Q32,723.44,32.73,713c0-.34,0-.68.05-1.07a4,4,0,0,0-.62-.15c-3.8-.4-6.19-2.89-6.2-6.67,0-10.3,0-20.61,0-30.91a2.47,2.47,0,0,1,1.83-2.58h.75a2.61,2.61,0,0,1,1.83,2.86c0,7.64,0,15.29,0,22.93v1.11H35.9v-1.14c0-7.65,0-15.29,0-22.93a2.62,2.62,0,0,1,1.74-2.83h.92a2.71,2.71,0,0,1,1.71,2.86c0,7.64,0,15.28,0,22.92v1.1h5.56V697.3c0-7.61,0-15.22,0-22.83a2.76,2.76,0,0,1,1.68-2.88Zm-9.46,40c-.72.44-1.76-.46-1.84,1-.23,4-.51,8.09-.78,12.13q-.6,9.07-1.22,18.15c-.33,5-.7,10.06-1,15.09a3.92,3.92,0,0,0,4,4.31,4,4,0,0,0,3.88-4.4c-.29-4.72-.62-9.44-.94-14.16q-.81-12.22-1.63-24.45C39.29,716.82,39.12,714.35,38.93,711.62ZM30.34,703c0,.81,0,1.52,0,2.23a2.08,2.08,0,0,0,2.22,2.22q5.52,0,11,0a1.94,1.94,0,0,0,2.08-1.63,20.38,20.38,0,0,0,0-2.82Z"/><path class="cls-1" d="M2.89,671.59a31.31,31.31,0,0,1,4.91,1.82,16.8,16.8,0,0,1,7.64,10.12,23.56,23.56,0,0,1-1.77,19.1A15.43,15.43,0,0,1,7.37,709a.92.92,0,0,0-.55,1Q7.9,725.86,9,741.69c.35,5.18.7,10.37,1,15.56a8.4,8.4,0,0,1-4.65,8.48c-5.23,2.84-12.16-1.07-12.26-7,0-3.08.25-6.18.45-9.26.38-6.08.8-12.16,1.21-18.24q.7-10.51,1.38-21c0-.35-.12-.92-.38-1.06a17.39,17.39,0,0,1-8.18-10.49,23.32,23.32,0,0,1,2-19.42c2.3-4,5.58-6.74,10.28-7.49a1.43,1.43,0,0,0,.34-.14Zm9.39,19.17a18.38,18.38,0,0,0-3-10.1c-4.06-6.08-11-6.27-15.33-.42s-4.31,16.19.29,22c4.09,5.19,10.34,5.21,14.43,0C11.26,699,12.21,695.21,12.28,690.76ZM.46,710.57c-.25,3.69-.49,7.33-.73,11q-.61,9.12-1.22,18.23c-.4,5.93-.81,11.85-1.17,17.78a5.36,5.36,0,0,0,.32,2.17,4.08,4.08,0,0,0,4.82,2.48,4.22,4.22,0,0,0,3.16-4.54c-.36-5.8-.76-11.6-1.15-17.4q-.8-12.07-1.61-24.16c-.12-1.84-.26-3.68-.39-5.52Z"/><path class="cls-1" d="M79.59,671.59a3.18,3.18,0,0,1,1.53,3.17q0,42.38,0,84.76c0,3.89-2.18,6.56-5.72,7a6.48,6.48,0,0,1-7.27-5.8,14.63,14.63,0,0,1,0-1.48q0-13.75,0-27.49v-1.1a3.53,3.53,0,0,0-.48-.17,4.54,4.54,0,0,1-4-4.8c0-5,0-10.09,0-15.13,0-4.7-.13-9.41,0-14.11C64,686,68.77,677.89,77.5,672.11c.31-.2.65-.35,1-.52Zm-2.88,6.56a25.23,25.23,0,0,0-6.63,9,27.25,27.25,0,0,0-2.17,11.2q0,11.46,0,22.92c0,1.36,0,2.72,0,4.08,0,.7.22.91.91.9,2.38,0,4.76,0,7.15,0,.23,0,.47,0,.75-.06Zm-4.25,52.5c0,.37,0,.64,0,.91v27.93a5.88,5.88,0,0,0,.12,1.1,2.09,2.09,0,0,0,3.26,1.28,2.64,2.64,0,0,0,1-2.47V730.65Z"/><path class="cls-1" d="M548.82,671.59a2.6,2.6,0,0,1,1.79,2.8c0,10.15,0,20.3,0,30.45,0,3.49-1.8,5.92-4.94,6.74a16.89,16.89,0,0,1-1.86.27c.09,1.54.17,3.07.28,4.6.4,6.11.82,12.23,1.22,18.34.48,7.07.94,14.13,1.43,21.2.15,2.18.21,4.34-.92,6.32a8.32,8.32,0,0,1-14.63,0c-1.21-2.15-1-4.47-.86-6.79l1.44-21.58L533.16,713c0-.34,0-.68.06-1.07a4.26,4.26,0,0,0-.62-.15c-3.8-.4-6.19-2.89-6.2-6.67,0-10.3,0-20.61,0-30.91a2.47,2.47,0,0,1,1.83-2.58H529a2.59,2.59,0,0,1,1.83,2.86c0,7.64,0,15.29,0,22.93v1.11h5.56v-1.14c0-7.65,0-15.29,0-22.93a2.63,2.63,0,0,1,1.73-2.83H539a2.69,2.69,0,0,1,1.7,2.86c0,7.64,0,15.28,0,22.92v1.1h5.56V697.3c0-7.61,0-15.22,0-22.83a2.76,2.76,0,0,1,1.68-2.88Zm-9.46,40c-.71.44-1.75-.46-1.83,1-.24,4-.51,8.09-.78,12.13q-.62,9.07-1.22,18.15c-.34,5-.71,10.06-1,15.09a4,4,0,1,0,7.92-.09c-.29-4.72-.62-9.44-.93-14.16q-.82-12.22-1.63-24.45C539.73,716.82,539.55,714.35,539.36,711.62ZM530.78,703c0,.81,0,1.52,0,2.23a2.07,2.07,0,0,0,2.22,2.22q5.52,0,11,0a1.94,1.94,0,0,0,2.08-1.63,22.09,22.09,0,0,0,0-2.82Z"/><path class="cls-1" d="M503.32,671.59a30.94,30.94,0,0,1,4.91,1.82,16.78,16.78,0,0,1,7.65,10.12,23.6,23.6,0,0,1-1.77,19.1,15.43,15.43,0,0,1-6.3,6.38.92.92,0,0,0-.56,1q1.1,15.83,2.15,31.66c.35,5.18.7,10.37,1,15.56a8.4,8.4,0,0,1-4.65,8.48c-5.23,2.84-12.16-1.07-12.26-7-.05-3.08.25-6.18.44-9.26.39-6.08.81-12.16,1.22-18.24q.71-10.51,1.38-21a1.36,1.36,0,0,0-.38-1.06A17.39,17.39,0,0,1,488,698.64a23.35,23.35,0,0,1,1.94-19.42c2.31-4,5.59-6.74,10.29-7.49a1.88,1.88,0,0,0,.34-.14Zm9.4,19.17a18.39,18.39,0,0,0-3-10.1c-4.05-6.08-11-6.27-15.32-.42s-4.31,16.19.29,22c4.08,5.19,10.34,5.21,14.43,0C511.7,699,512.64,695.21,512.72,690.76ZM500.9,710.57c-.25,3.69-.49,7.33-.74,11q-.6,9.12-1.22,18.23c-.39,5.93-.8,11.85-1.16,17.78a5.53,5.53,0,0,0,.31,2.17,4.1,4.1,0,0,0,4.83,2.48,4.22,4.22,0,0,0,3.16-4.54c-.36-5.8-.76-11.6-1.15-17.4q-.81-12.07-1.61-24.16l-.39-5.52Z"/><path class="cls-1" d="M580,671.59a3.16,3.16,0,0,1,1.52,3.17q0,42.38,0,84.76c0,3.89-2.18,6.56-5.71,7a6.48,6.48,0,0,1-7.27-5.8,14.64,14.64,0,0,1,0-1.48V730.69a4.16,4.16,0,0,0-.49-.17,4.53,4.53,0,0,1-4-4.8c0-5,0-10.09,0-15.13,0-4.7-.13-9.41.05-14.11.41-10.48,5.14-18.59,13.87-24.37.3-.2.65-.35,1-.52Zm-2.88,6.56a25.11,25.11,0,0,0-6.63,9,27.25,27.25,0,0,0-2.17,11.2v22.92c0,1.36,0,2.72,0,4.08,0,.7.22.91.91.9,2.38,0,4.76,0,7.14,0,.24,0,.48,0,.76-.06Zm-4.26,52.5c0,.37,0,.64,0,.91v27.93a5.86,5.86,0,0,0,.11,1.1,2.1,2.1,0,0,0,3.27,1.28,2.64,2.64,0,0,0,1-2.47V730.65Z"/><path class="cls-1" d="M173.5,671.59a2.59,2.59,0,0,1,1.78,2.8c0,10.15,0,20.3,0,30.45,0,3.49-1.81,5.92-5,6.74a16.54,16.54,0,0,1-1.86.27c.09,1.54.18,3.07.28,4.6q.6,9.16,1.23,18.34c.47,7.07.93,14.13,1.42,21.2.15,2.18.22,4.34-.92,6.32a8.32,8.32,0,0,1-14.63,0c-1.21-2.15-1-4.47-.85-6.79q.7-10.79,1.43-21.58L157.83,713c0-.34,0-.68.06-1.07a4,4,0,0,0-.62-.15c-3.8-.4-6.19-2.89-6.2-6.67,0-10.3,0-20.61,0-30.91a2.47,2.47,0,0,1,1.83-2.58h.74a2.59,2.59,0,0,1,1.83,2.86q0,11.46,0,22.93v1.11H161v-1.14c0-7.65,0-15.29,0-22.93a2.62,2.62,0,0,1,1.74-2.83h.92a2.71,2.71,0,0,1,1.71,2.86c0,7.64,0,15.28,0,22.92v1.1h5.56V697.3c0-7.61,0-15.22,0-22.83a2.76,2.76,0,0,1,1.68-2.88Zm-9.46,40c-.72.44-1.76-.46-1.84,1-.24,4-.51,8.09-.78,12.13q-.6,9.07-1.22,18.15c-.34,5-.7,10.06-1,15.09a3.92,3.92,0,0,0,4,4.31,4,4,0,0,0,3.88-4.4c-.29-4.72-.63-9.44-.94-14.16q-.81-12.22-1.63-24.45C164.4,716.82,164.23,714.35,164,711.62ZM155.45,703c0,.81,0,1.52,0,2.23a2.08,2.08,0,0,0,2.22,2.22q5.52,0,11,0a1.94,1.94,0,0,0,2.08-1.63,20.38,20.38,0,0,0,0-2.82Z"/><path class="cls-1" d="M128,671.59a31.05,31.05,0,0,1,4.92,1.82,16.8,16.8,0,0,1,7.64,10.12,23.56,23.56,0,0,1-1.77,19.1,15.43,15.43,0,0,1-6.3,6.38.91.91,0,0,0-.55,1q1.08,15.83,2.14,31.66c.35,5.18.7,10.37,1,15.56a8.4,8.4,0,0,1-4.65,8.48c-5.23,2.84-12.16-1.07-12.26-7,0-3.08.25-6.18.44-9.26.39-6.08.81-12.16,1.22-18.24q.71-10.51,1.38-21a1.36,1.36,0,0,0-.38-1.06,17.39,17.39,0,0,1-8.18-10.49,23.32,23.32,0,0,1,2-19.42c2.3-4,5.58-6.74,10.28-7.49a1.43,1.43,0,0,0,.34-.14Zm9.4,19.17a18.47,18.47,0,0,0-3-10.1c-4.06-6.08-11-6.27-15.33-.42s-4.31,16.19.29,22c4.08,5.19,10.34,5.21,14.43,0C136.37,699,137.32,695.21,137.39,690.76Zm-11.82,19.81c-.25,3.69-.49,7.33-.73,11q-.61,9.12-1.22,18.23c-.4,5.93-.81,11.85-1.17,17.78a5.53,5.53,0,0,0,.31,2.17,4.1,4.1,0,0,0,4.83,2.48,4.22,4.22,0,0,0,3.16-4.54c-.36-5.8-.76-11.6-1.15-17.4q-.81-12.07-1.61-24.16l-.39-5.52Z"/><path class="cls-1" d="M204.7,671.59a3.18,3.18,0,0,1,1.53,3.17q0,42.38,0,84.76c0,3.89-2.17,6.56-5.71,7a6.48,6.48,0,0,1-7.27-5.8,14.63,14.63,0,0,1,0-1.48q0-13.75,0-27.49v-1.1a3.53,3.53,0,0,0-.48-.17,4.54,4.54,0,0,1-4-4.8c0-5,0-10.09,0-15.13,0-4.7-.13-9.41.05-14.11.4-10.48,5.13-18.59,13.86-24.37.31-.2.65-.35,1-.52Zm-2.88,6.56a25.23,25.23,0,0,0-6.63,9,27.25,27.25,0,0,0-2.17,11.2v22.92c0,1.36,0,2.72,0,4.08,0,.7.22.91.91.9,2.38,0,4.76,0,7.14,0,.24,0,.48,0,.76-.06Zm-4.25,52.5c0,.37,0,.64,0,.91v27.93a5.15,5.15,0,0,0,.12,1.1,2.09,2.09,0,0,0,3.26,1.28,2.64,2.64,0,0,0,1-2.47V730.65Z"/><path class="cls-1" d="M423.72,671.59a2.6,2.6,0,0,1,1.78,2.8c0,10.15,0,20.3,0,30.45,0,3.49-1.81,5.92-4.95,6.74a16.89,16.89,0,0,1-1.86.27c.09,1.54.18,3.07.28,4.6q.6,9.16,1.23,18.34c.47,7.07.93,14.13,1.42,21.2.15,2.18.21,4.34-.92,6.32a8.32,8.32,0,0,1-14.63,0c-1.21-2.15-1-4.47-.85-6.79q.71-10.79,1.43-21.58L408.05,713c0-.34,0-.68.06-1.07a4.26,4.26,0,0,0-.62-.15c-3.8-.4-6.19-2.89-6.2-6.67,0-10.3,0-20.61,0-30.91a2.47,2.47,0,0,1,1.83-2.58h.74a2.59,2.59,0,0,1,1.83,2.86q0,11.46,0,22.93v1.11h5.56v-1.14c0-7.65,0-15.29,0-22.93a2.63,2.63,0,0,1,1.73-2.83h.93a2.69,2.69,0,0,1,1.7,2.86c0,7.64,0,15.28,0,22.92v1.1h5.56V697.3c0-7.61,0-15.22,0-22.83a2.76,2.76,0,0,1,1.68-2.88Zm-9.46,40c-.72.44-1.76-.46-1.84,1-.24,4-.51,8.09-.78,12.13-.4,6-.82,12.1-1.22,18.15-.34,5-.71,10.06-1,15.09a3.93,3.93,0,0,0,4.05,4.31,4,4,0,0,0,3.88-4.4c-.3-4.72-.63-9.44-.94-14.16q-.82-12.22-1.63-24.45C414.62,716.82,414.45,714.35,414.26,711.62ZM405.67,703c0,.81,0,1.52,0,2.23a2.08,2.08,0,0,0,2.22,2.22q5.52,0,11,0a1.94,1.94,0,0,0,2.08-1.63,22.09,22.09,0,0,0,0-2.82Z"/><path class="cls-1" d="M378.21,671.59a30.94,30.94,0,0,1,4.91,1.82,16.78,16.78,0,0,1,7.65,10.12,23.56,23.56,0,0,1-1.77,19.1,15.43,15.43,0,0,1-6.3,6.38.92.92,0,0,0-.56,1q1.1,15.83,2.15,31.66c.35,5.18.7,10.37,1,15.56a8.4,8.4,0,0,1-4.65,8.48c-5.23,2.84-12.16-1.07-12.26-7-.05-3.08.25-6.18.44-9.26.39-6.08.81-12.16,1.22-18.24q.7-10.51,1.38-21a1.36,1.36,0,0,0-.38-1.06,17.39,17.39,0,0,1-8.18-10.49,23.35,23.35,0,0,1,1.94-19.42c2.31-4,5.59-6.74,10.29-7.49a1.88,1.88,0,0,0,.34-.14Zm9.4,19.17a18.39,18.39,0,0,0-3-10.1c-4.05-6.08-11-6.27-15.32-.42s-4.31,16.19.29,22c4.08,5.19,10.34,5.21,14.43,0C386.59,699,387.53,695.21,387.61,690.76Zm-11.82,19.81c-.25,3.69-.49,7.33-.74,11q-.6,9.12-1.22,18.23c-.39,5.93-.8,11.85-1.16,17.78a5.53,5.53,0,0,0,.31,2.17,4.1,4.1,0,0,0,4.83,2.48,4.22,4.22,0,0,0,3.16-4.54c-.36-5.8-.76-11.6-1.15-17.4q-.81-12.07-1.61-24.16l-.39-5.52Z"/><path class="cls-1" d="M454.92,671.59a3.18,3.18,0,0,1,1.53,3.17q0,42.38,0,84.76c0,3.89-2.18,6.56-5.71,7a6.48,6.48,0,0,1-7.27-5.8,14.64,14.64,0,0,1-.05-1.48V730.69a4.84,4.84,0,0,0-.48-.17,4.53,4.53,0,0,1-4-4.8c0-5,0-10.09,0-15.13,0-4.7-.13-9.41.06-14.11.4-10.48,5.13-18.59,13.86-24.37.3-.2.65-.35,1-.52ZM452,678.15a25.11,25.11,0,0,0-6.63,9,27.25,27.25,0,0,0-2.17,11.2v22.92c0,1.36,0,2.72,0,4.08,0,.7.22.91.91.9,2.38,0,4.76,0,7.14,0,.24,0,.48,0,.76-.06Zm-4.26,52.5c0,.37,0,.64,0,.91v27.93a5.86,5.86,0,0,0,.11,1.1,2.1,2.1,0,0,0,3.27,1.28,2.64,2.64,0,0,0,1-2.47V730.65Z"/><path class="cls-1" d="M298.61,671.59a2.6,2.6,0,0,1,1.78,2.8c0,10.15,0,20.3,0,30.45,0,3.49-1.81,5.92-4.95,6.74a16.89,16.89,0,0,1-1.86.27c.09,1.54.18,3.07.28,4.6q.6,9.16,1.23,18.34c.47,7.07.93,14.13,1.42,21.2.15,2.18.21,4.34-.92,6.32a8.32,8.32,0,0,1-14.63,0c-1.21-2.15-1-4.47-.85-6.79q.7-10.79,1.43-21.58L282.94,713c0-.34,0-.68.06-1.07a4.26,4.26,0,0,0-.62-.15c-3.8-.4-6.19-2.89-6.2-6.67,0-10.3,0-20.61,0-30.91a2.47,2.47,0,0,1,1.83-2.58h.74a2.59,2.59,0,0,1,1.83,2.86q0,11.46,0,22.93v1.11h5.55v-1.14c0-7.65,0-15.29,0-22.93a2.63,2.63,0,0,1,1.73-2.83h.93a2.69,2.69,0,0,1,1.7,2.86c0,7.64,0,15.28,0,22.92v1.1H296V697.3c0-7.61,0-15.22,0-22.83a2.76,2.76,0,0,1,1.68-2.88Zm-9.46,40c-.72.44-1.76-.46-1.84,1-.24,4-.51,8.09-.78,12.13-.4,6-.82,12.1-1.22,18.15-.34,5-.71,10.06-1,15.09a3.92,3.92,0,0,0,4,4.31,4,4,0,0,0,3.88-4.4c-.3-4.72-.63-9.44-.94-14.16q-.81-12.22-1.63-24.45C289.51,716.82,289.34,714.35,289.15,711.62ZM280.56,703c0,.81,0,1.52,0,2.23a2.08,2.08,0,0,0,2.22,2.22q5.52,0,11,0a1.94,1.94,0,0,0,2.08-1.63,22.08,22.08,0,0,0,0-2.82Z"/><path class="cls-1" d="M253.1,671.59a30.94,30.94,0,0,1,4.91,1.82,16.78,16.78,0,0,1,7.65,10.12,23.56,23.56,0,0,1-1.77,19.1,15.43,15.43,0,0,1-6.3,6.38.92.92,0,0,0-.56,1q1.1,15.83,2.15,31.66c.35,5.18.7,10.37,1,15.56a8.4,8.4,0,0,1-4.65,8.48c-5.23,2.84-12.16-1.07-12.26-7-.05-3.08.25-6.18.44-9.26.39-6.08.81-12.16,1.22-18.24q.7-10.51,1.38-21a1.36,1.36,0,0,0-.38-1.06,17.39,17.39,0,0,1-8.18-10.49,23.35,23.35,0,0,1,1.94-19.42c2.31-4,5.59-6.74,10.29-7.49a1.63,1.63,0,0,0,.34-.14Zm9.4,19.17a18.47,18.47,0,0,0-3-10.1c-4.06-6.08-11-6.27-15.33-.42s-4.31,16.19.29,22c4.08,5.19,10.34,5.21,14.43,0C261.48,699,262.42,695.21,262.5,690.76Zm-11.82,19.81c-.25,3.69-.49,7.33-.73,11l-1.23,18.23c-.39,5.93-.8,11.85-1.16,17.78a5.53,5.53,0,0,0,.31,2.17,4.1,4.1,0,0,0,4.83,2.48,4.22,4.22,0,0,0,3.16-4.54c-.36-5.8-.76-11.6-1.15-17.4q-.81-12.07-1.61-24.16l-.39-5.52Z"/><path class="cls-1" d="M329.81,671.59a3.18,3.18,0,0,1,1.53,3.17q0,42.38,0,84.76c0,3.89-2.18,6.56-5.71,7a6.48,6.48,0,0,1-7.27-5.8,14.63,14.63,0,0,1,0-1.48q0-13.75,0-27.49v-1.1a4.84,4.84,0,0,0-.48-.17,4.53,4.53,0,0,1-4-4.8c0-5,0-10.09,0-15.13,0-4.7-.14-9.41.05-14.11.4-10.48,5.13-18.59,13.86-24.37.3-.2.65-.35,1-.52Zm-2.88,6.56a25.23,25.23,0,0,0-6.63,9,27.25,27.25,0,0,0-2.17,11.2v22.92c0,1.36,0,2.72,0,4.08,0,.7.22.91.91.9,2.38,0,4.76,0,7.14,0,.24,0,.48,0,.76-.06Zm-4.25,52.5c0,.37-.05.64-.05.91v27.93a5.15,5.15,0,0,0,.12,1.1,2.09,2.09,0,0,0,3.26,1.28,2.64,2.64,0,0,0,1-2.47V730.65Z"/><path class="cls-1" d="M124.66,552.31a2.61,2.61,0,0,1,1.79,2.8c0,10.15,0,20.3,0,30.45,0,3.5-1.8,5.92-5,6.75a16.69,16.69,0,0,1-1.86.26c.1,1.55.18,3.08.28,4.61l1.23,18.33c.48,7.07.94,14.14,1.43,21.21.14,2.17.21,4.33-.93,6.31A8.3,8.3,0,0,1,107,643c-1.22-2.15-1-4.47-.86-6.79l1.44-21.57L109,593.69c0-.34,0-.67.06-1.07a5.94,5.94,0,0,0-.62-.14c-3.81-.41-6.19-2.89-6.2-6.67,0-10.31,0-20.61,0-30.92a2.46,2.46,0,0,1,1.83-2.58h.74a2.61,2.61,0,0,1,1.83,2.87c0,7.64,0,15.28,0,22.92v1.11h5.56v-1.14c0-7.64,0-15.29,0-22.93a2.65,2.65,0,0,1,1.74-2.83h.93a2.7,2.7,0,0,1,1.7,2.86c0,7.64,0,15.28,0,22.92v1.1h5.57V578c0-7.61,0-15.21,0-22.82a2.78,2.78,0,0,1,1.68-2.89Zm-9.46,40c-.71.45-1.75-.46-1.84,1-.23,4-.51,8.09-.77,12.14q-.61,9.07-1.22,18.14c-.34,5-.71,10.06-1,15.1a3.91,3.91,0,0,0,4.05,4.3,4,4,0,0,0,3.87-4.39c-.29-4.73-.62-9.45-.93-14.17q-.83-12.23-1.64-24.44C115.57,597.54,115.39,595.08,115.2,592.34Zm-8.58-8.65c0,.82,0,1.53,0,2.23a2.07,2.07,0,0,0,2.22,2.22c3.68,0,7.36,0,11,0a1.93,1.93,0,0,0,2.08-1.62,22.24,22.24,0,0,0,0-2.83Z"/><path class="cls-1" d="M79.16,552.31a33,33,0,0,1,4.91,1.82,16.78,16.78,0,0,1,7.65,10.12A23.62,23.62,0,0,1,90,583.36a15.61,15.61,0,0,1-6.3,6.38.91.91,0,0,0-.56,1q1.09,15.82,2.15,31.66c.34,5.19.7,10.37,1,15.56a8.43,8.43,0,0,1-4.65,8.49c-5.23,2.83-12.16-1.08-12.26-7,0-3.09.25-6.18.44-9.27.39-6.08.81-12.16,1.22-18.24.46-7,.94-14,1.38-21a1.33,1.33,0,0,0-.38-1,17.41,17.41,0,0,1-8.18-10.49,23.37,23.37,0,0,1,1.94-19.43c2.3-4,5.59-6.73,10.28-7.49a1.7,1.7,0,0,0,.35-.14Zm9.39,19.17a18.38,18.38,0,0,0-3-10.1c-4.06-6.07-11-6.26-15.32-.41s-4.31,16.18.29,22c4.08,5.19,10.34,5.21,14.43,0C87.53,579.75,88.48,575.93,88.55,571.48ZM76.74,591.29c-.25,3.7-.49,7.33-.74,11q-.6,9.12-1.22,18.24c-.39,5.92-.8,11.84-1.16,17.77a5.32,5.32,0,0,0,.31,2.17,4.1,4.1,0,0,0,4.83,2.49,4.22,4.22,0,0,0,3.16-4.54c-.36-5.81-.76-11.6-1.15-17.41l-1.62-24.15c-.12-1.84-.26-3.68-.39-5.53Z"/><path class="cls-1" d="M155.86,552.31a3.17,3.17,0,0,1,1.53,3.17q0,42.39,0,84.77c0,3.88-2.18,6.56-5.71,7a6.49,6.49,0,0,1-7.27-5.81,14.64,14.64,0,0,1,0-1.48V611.41a4.16,4.16,0,0,0-.49-.17,4.52,4.52,0,0,1-4-4.79c0-5.05,0-10.09,0-15.14,0-4.7-.13-9.41,0-14.11.41-10.48,5.14-18.58,13.87-24.37.3-.2.64-.34,1-.52ZM153,558.88a25.07,25.07,0,0,0-6.63,9,27.28,27.28,0,0,0-2.17,11.2V602c0,1.37,0,2.73,0,4.09,0,.7.22.9.9.89,2.39,0,4.77,0,7.15,0,.24,0,.48,0,.76-.07Zm-4.26,52.49c0,.37,0,.64,0,.92q0,14,0,27.92a5.78,5.78,0,0,0,.11,1.1,2.09,2.09,0,0,0,3.27,1.28,2.66,2.66,0,0,0,1-2.46V611.37Z"/><path class="cls-1" d="M579.6,552.31a33.45,33.45,0,0,1,4.91,1.82c4,2.25,6.32,5.87,7.65,10.12a23.63,23.63,0,0,1-1.78,19.11,15.55,15.55,0,0,1-6.3,6.38.9.9,0,0,0-.55,1q1.1,15.82,2.14,31.66c.35,5.19.7,10.37,1,15.56a8.42,8.42,0,0,1-4.65,8.49c-5.22,2.83-12.16-1.08-12.26-7,0-3.09.25-6.18.45-9.27.38-6.08.81-12.16,1.21-18.24q.71-10.5,1.38-21a1.29,1.29,0,0,0-.37-1,17.43,17.43,0,0,1-8.19-10.49,23.37,23.37,0,0,1,2-19.43c2.3-4,5.59-6.73,10.28-7.49a1.43,1.43,0,0,0,.34-.14ZM589,571.48a18.38,18.38,0,0,0-3-10.1c-4.06-6.07-11-6.26-15.32-.41s-4.32,16.18.29,22c4.08,5.19,10.33,5.21,14.42,0C588,579.75,588.92,575.93,589,571.48Zm-11.82,19.81c-.24,3.7-.49,7.33-.73,11q-.62,9.12-1.22,18.24c-.4,5.92-.81,11.84-1.16,17.77a5.16,5.16,0,0,0,.31,2.17,4.09,4.09,0,0,0,4.83,2.49,4.22,4.22,0,0,0,3.15-4.54c-.35-5.81-.76-11.6-1.14-17.41l-1.62-24.15c-.12-1.84-.26-3.68-.39-5.53Z"/><path class="cls-1" d="M249.77,552.31a2.61,2.61,0,0,1,1.79,2.8c0,10.15,0,20.3,0,30.45,0,3.5-1.8,5.92-4.95,6.75a16.69,16.69,0,0,1-1.86.26c.1,1.55.18,3.08.28,4.61l1.23,18.33c.48,7.07.94,14.14,1.42,21.21.15,2.17.22,4.33-.92,6.31a8.3,8.3,0,0,1-14.62,0c-1.22-2.15-1-4.47-.86-6.79l1.44-21.57,1.41-20.93c0-.34,0-.67,0-1.07a5,5,0,0,0-.62-.14c-3.8-.41-6.18-2.89-6.2-6.67,0-10.31,0-20.61,0-30.92a2.46,2.46,0,0,1,1.83-2.58h.74a2.61,2.61,0,0,1,1.83,2.87c0,7.64,0,15.28,0,22.92v1.11h5.56v-1.14c0-7.64,0-15.29,0-22.93a2.65,2.65,0,0,1,1.74-2.83h.93a2.7,2.7,0,0,1,1.7,2.86c0,7.64,0,15.28,0,22.92v1.1h5.57V578c0-7.61,0-15.21,0-22.82a2.78,2.78,0,0,1,1.68-2.89Zm-9.46,40c-.71.45-1.75-.46-1.84,1-.23,4-.51,8.09-.78,12.14q-.6,9.07-1.21,18.14c-.34,5-.71,10.06-1,15.1a3.91,3.91,0,0,0,4,4.3,4,4,0,0,0,3.87-4.39c-.29-4.73-.62-9.45-.94-14.17q-.81-12.23-1.63-24.44C240.68,597.54,240.5,595.08,240.31,592.34Zm-8.59-8.65c0,.82,0,1.53,0,2.23a2.07,2.07,0,0,0,2.22,2.22c3.68,0,7.36,0,11,0a1.92,1.92,0,0,0,2.07-1.62,20.53,20.53,0,0,0,0-2.83Z"/><path class="cls-1" d="M204.27,552.31a33.45,33.45,0,0,1,4.91,1.82,16.78,16.78,0,0,1,7.65,10.12,23.66,23.66,0,0,1-1.77,19.11,15.67,15.67,0,0,1-6.3,6.38.91.91,0,0,0-.56,1q1.1,15.82,2.15,31.66c.34,5.19.7,10.37,1,15.56a8.43,8.43,0,0,1-4.65,8.49c-5.23,2.83-12.17-1.08-12.26-7-.05-3.09.24-6.18.44-9.27.39-6.08.81-12.16,1.22-18.24q.69-10.5,1.38-21a1.33,1.33,0,0,0-.38-1,17.46,17.46,0,0,1-8.19-10.49,23.41,23.41,0,0,1,2-19.43c2.3-4,5.59-6.73,10.28-7.49a1.43,1.43,0,0,0,.34-.14Zm9.39,19.17a18.38,18.38,0,0,0-3-10.1c-4.06-6.07-11-6.26-15.32-.41s-4.32,16.18.29,22c4.08,5.19,10.33,5.21,14.42,0C212.64,579.75,213.59,575.93,213.66,571.48Zm-11.81,19.81c-.25,3.7-.5,7.33-.74,11q-.62,9.12-1.22,18.24c-.39,5.92-.8,11.84-1.16,17.77a5.32,5.32,0,0,0,.31,2.17,4.1,4.1,0,0,0,4.83,2.49,4.22,4.22,0,0,0,3.16-4.54c-.36-5.81-.77-11.6-1.15-17.41l-1.62-24.15c-.12-1.84-.26-3.68-.39-5.53Z"/><path class="cls-1" d="M281,552.31a3.17,3.17,0,0,1,1.53,3.17q0,42.39,0,84.77c0,3.88-2.18,6.56-5.71,7a6.49,6.49,0,0,1-7.27-5.81,14.64,14.64,0,0,1-.05-1.48V611.41a4.16,4.16,0,0,0-.49-.17,4.52,4.52,0,0,1-4-4.79c0-5.05,0-10.09,0-15.14,0-4.7-.13-9.41,0-14.11.41-10.48,5.14-18.58,13.87-24.37.3-.2.64-.34,1-.52Zm-2.87,6.57a25.07,25.07,0,0,0-6.63,9,27.12,27.12,0,0,0-2.17,11.2V602c0,1.37,0,2.73,0,4.09,0,.7.22.9.9.89,2.39,0,4.77,0,7.15,0,.24,0,.48,0,.76-.07Zm-4.26,52.49c0,.37,0,.64,0,.92q0,14,0,27.92a5.78,5.78,0,0,0,.11,1.1,2.09,2.09,0,0,0,3.27,1.28,2.66,2.66,0,0,0,1-2.46V611.37Z"/><path class="cls-1" d="M500,552.31a2.61,2.61,0,0,1,1.79,2.8c0,10.15,0,20.3,0,30.45,0,3.5-1.81,5.92-4.95,6.75a16.69,16.69,0,0,1-1.86.26c.1,1.55.18,3.08.28,4.61l1.23,18.33q.71,10.61,1.42,21.21c.15,2.17.22,4.33-.92,6.31a8.3,8.3,0,0,1-14.62,0c-1.22-2.15-1-4.47-.86-6.79l1.44-21.57,1.41-20.93c0-.34,0-.67.05-1.07a5.42,5.42,0,0,0-.62-.14c-3.8-.41-6.18-2.89-6.2-6.67,0-10.31,0-20.61,0-30.92a2.46,2.46,0,0,1,1.83-2.58h.74a2.62,2.62,0,0,1,1.83,2.87c0,7.64,0,15.28,0,22.92v1.11h5.56v-1.14c0-7.64,0-15.29,0-22.93a2.65,2.65,0,0,1,1.74-2.83h.93a2.7,2.7,0,0,1,1.7,2.86c0,7.64,0,15.28,0,22.92v1.1h5.57V578c0-7.61,0-15.21,0-22.82a2.78,2.78,0,0,1,1.68-2.89Zm-9.46,40c-.71.45-1.75-.46-1.84,1-.23,4-.51,8.09-.78,12.14q-.6,9.07-1.22,18.14c-.33,5-.7,10.06-1,15.1a3.91,3.91,0,0,0,4,4.3,4,4,0,0,0,3.88-4.39c-.29-4.73-.62-9.45-.94-14.17q-.81-12.23-1.63-24.44C490.9,597.54,490.72,595.08,490.53,592.34Zm-8.59-8.65c0,.82,0,1.53,0,2.23a2.07,2.07,0,0,0,2.21,2.22c3.69,0,7.37,0,11,0a1.92,1.92,0,0,0,2.07-1.62,20.53,20.53,0,0,0,0-2.83Z"/><path class="cls-1" d="M454.49,552.31a33.45,33.45,0,0,1,4.91,1.82,16.82,16.82,0,0,1,7.65,10.12,23.66,23.66,0,0,1-1.77,19.11,15.67,15.67,0,0,1-6.3,6.38.9.9,0,0,0-.56,1q1.09,15.82,2.15,31.66c.34,5.19.7,10.37,1,15.56a8.42,8.42,0,0,1-4.65,8.49c-5.22,2.83-12.16-1.08-12.25-7-.06-3.09.24-6.18.44-9.27.38-6.08.81-12.16,1.21-18.24q.7-10.5,1.38-21a1.29,1.29,0,0,0-.37-1,17.46,17.46,0,0,1-8.19-10.49,23.37,23.37,0,0,1,1.95-19.43c2.3-4,5.59-6.73,10.28-7.49a1.43,1.43,0,0,0,.34-.14Zm9.39,19.17a18.38,18.38,0,0,0-3-10.1c-4.06-6.07-11-6.26-15.32-.41s-4.32,16.18.29,22c4.08,5.19,10.33,5.21,14.42,0C462.86,579.75,463.81,575.93,463.88,571.48Zm-11.82,19.81c-.24,3.7-.49,7.33-.73,11q-.61,9.12-1.22,18.24c-.4,5.92-.8,11.84-1.16,17.77a5.32,5.32,0,0,0,.31,2.17,4.1,4.1,0,0,0,4.83,2.49,4.24,4.24,0,0,0,3.16-4.54c-.36-5.81-.77-11.6-1.15-17.41l-1.62-24.15c-.12-1.84-.26-3.68-.39-5.53Z"/><path class="cls-1" d="M531.19,552.31a3.19,3.19,0,0,1,1.53,3.17q0,42.39,0,84.77c0,3.88-2.18,6.56-5.72,7a6.49,6.49,0,0,1-7.26-5.81,14.64,14.64,0,0,1-.05-1.48V611.41a4.16,4.16,0,0,0-.49-.17,4.52,4.52,0,0,1-4-4.79c0-5.05,0-10.09,0-15.14,0-4.7-.13-9.41,0-14.11.41-10.48,5.13-18.58,13.86-24.37.31-.2.65-.34,1-.52Zm-2.87,6.57a25.07,25.07,0,0,0-6.63,9,27.12,27.12,0,0,0-2.17,11.2V602c0,1.37,0,2.73,0,4.09,0,.7.23.9.91.89,2.38,0,4.77,0,7.15,0,.24,0,.47,0,.76-.07Zm-4.26,52.49c0,.37,0,.64,0,.92q0,14,0,27.92a5.07,5.07,0,0,0,.11,1.1,2.09,2.09,0,0,0,3.27,1.28,2.65,2.65,0,0,0,1-2.46V611.37Z"/><path class="cls-1" d="M374.88,552.31a2.61,2.61,0,0,1,1.79,2.8c0,10.15,0,20.3,0,30.45,0,3.5-1.8,5.92-4.95,6.75a16.69,16.69,0,0,1-1.86.26c.1,1.55.18,3.08.28,4.61l1.23,18.33q.7,10.61,1.42,21.21c.15,2.17.22,4.33-.92,6.31a8.3,8.3,0,0,1-14.62,0c-1.22-2.15-1-4.47-.86-6.79l1.44-21.57,1.41-20.93c0-.34,0-.67,0-1.07a5.42,5.42,0,0,0-.62-.14c-3.8-.41-6.18-2.89-6.2-6.67,0-10.31,0-20.61,0-30.92a2.46,2.46,0,0,1,1.83-2.58H355a2.62,2.62,0,0,1,1.83,2.87c0,7.64,0,15.28,0,22.92v1.11h5.56v-1.14c0-7.64,0-15.29,0-22.93a2.65,2.65,0,0,1,1.74-2.83H365a2.7,2.7,0,0,1,1.7,2.86c0,7.64,0,15.28,0,22.92v1.1h5.57V578c0-7.61,0-15.21,0-22.82a2.78,2.78,0,0,1,1.68-2.89Zm-9.46,40c-.71.45-1.75-.46-1.84,1-.23,4-.51,8.09-.78,12.14q-.6,9.07-1.21,18.14c-.34,5-.71,10.06-1,15.1a3.91,3.91,0,0,0,4,4.3,4,4,0,0,0,3.88-4.39c-.29-4.73-.62-9.45-.94-14.17Q366.77,612.22,366,600C365.79,597.54,365.61,595.08,365.42,592.34Zm-8.59-8.65c0,.82,0,1.53,0,2.23a2.07,2.07,0,0,0,2.22,2.22c3.68,0,7.36,0,11,0a1.92,1.92,0,0,0,2.07-1.62,20.53,20.53,0,0,0,0-2.83Z"/><path class="cls-1" d="M329.38,552.31a33.45,33.45,0,0,1,4.91,1.82,16.78,16.78,0,0,1,7.65,10.12,23.66,23.66,0,0,1-1.77,19.11,15.67,15.67,0,0,1-6.3,6.38.9.9,0,0,0-.56,1q1.1,15.82,2.15,31.66c.34,5.19.7,10.37,1,15.56a8.43,8.43,0,0,1-4.66,8.49c-5.22,2.83-12.16-1.08-12.25-7-.05-3.09.24-6.18.44-9.27.38-6.08.81-12.16,1.21-18.24q.71-10.5,1.38-21a1.29,1.29,0,0,0-.37-1A17.46,17.46,0,0,1,314,579.37a23.41,23.41,0,0,1,2-19.43c2.3-4,5.59-6.73,10.28-7.49a1.43,1.43,0,0,0,.34-.14Zm9.39,19.17a18.38,18.38,0,0,0-3-10.1c-4.06-6.07-11-6.26-15.32-.41s-4.32,16.18.29,22c4.08,5.19,10.33,5.21,14.42,0C337.75,579.75,338.7,575.93,338.77,571.48ZM327,591.29c-.24,3.7-.49,7.33-.73,11q-.62,9.12-1.22,18.24c-.4,5.92-.8,11.84-1.16,17.77a5.32,5.32,0,0,0,.31,2.17,4.1,4.1,0,0,0,4.83,2.49,4.23,4.23,0,0,0,3.16-4.54c-.36-5.81-.77-11.6-1.15-17.41l-1.62-24.15c-.12-1.84-.26-3.68-.39-5.53Z"/><path class="cls-1" d="M406.08,552.31a3.17,3.17,0,0,1,1.53,3.17q0,42.39,0,84.77c0,3.88-2.18,6.56-5.71,7a6.49,6.49,0,0,1-7.27-5.81,14.64,14.64,0,0,1-.05-1.48V611.41a4.16,4.16,0,0,0-.49-.17,4.52,4.52,0,0,1-4-4.79c0-5.05,0-10.09,0-15.14,0-4.7-.13-9.41.05-14.11.41-10.48,5.13-18.58,13.86-24.37.31-.2.65-.34,1-.52Zm-2.87,6.57a25.07,25.07,0,0,0-6.63,9,27.12,27.12,0,0,0-2.17,11.2V602c0,1.37,0,2.73,0,4.09,0,.7.22.9.9.89,2.38,0,4.77,0,7.15,0,.24,0,.47,0,.76-.07ZM399,611.37c0,.37,0,.64,0,.92q0,14,0,27.92a5.07,5.07,0,0,0,.11,1.1,2.09,2.09,0,0,0,3.27,1.28,2.66,2.66,0,0,0,1-2.46V611.37Z"/><path class="cls-1" d="M-.45,552.31a2.61,2.61,0,0,1,1.79,2.8c0,10.15,0,20.3,0,30.45,0,3.5-1.8,5.92-4.95,6.75a16.83,16.83,0,0,1-1.85.26c.09,1.55.17,3.08.28,4.61q.6,9.17,1.22,18.33c.48,7.07.94,14.14,1.43,21.21.15,2.17.21,4.33-.92,6.31a8,8,0,0,1-7.29,4.34A8,8,0,0,1-18.1,643c-1.22-2.15-1-4.47-.86-6.79l1.44-21.57,1.41-20.93c0-.34,0-.67.06-1.07a5.94,5.94,0,0,0-.62-.14c-3.8-.41-6.19-2.89-6.2-6.67,0-10.31,0-20.61,0-30.92a2.46,2.46,0,0,1,1.83-2.58h.74a2.6,2.6,0,0,1,1.83,2.87c0,7.64,0,15.28,0,22.92v1.11h5.56v-1.14c0-7.64,0-15.29,0-22.93a2.63,2.63,0,0,1,1.73-2.83h.93a2.7,2.7,0,0,1,1.7,2.86c0,7.64,0,15.28,0,22.92v1.1H-3V578c0-7.61,0-15.21,0-22.82a2.76,2.76,0,0,1,1.68-2.89Zm-9.46,40c-.71.45-1.75-.46-1.84,1-.23,4-.51,8.09-.77,12.14q-.62,9.07-1.22,18.14c-.34,5-.71,10.06-1,15.1a3.91,3.91,0,0,0,4.05,4.3,4,4,0,0,0,3.87-4.39c-.29-4.73-.62-9.45-.93-14.17Q-8.56,612.22-9.38,600C-9.54,597.54-9.72,595.08-9.91,592.34Zm-8.58-8.65c0,.82,0,1.53,0,2.23a2.07,2.07,0,0,0,2.22,2.22c3.68,0,7.36,0,11,0a1.93,1.93,0,0,0,2.08-1.62,22.24,22.24,0,0,0,0-2.83Z"/><path class="cls-1" d="M30.76,552.31a3.16,3.16,0,0,1,1.52,3.17q0,42.39,0,84.77c0,3.88-2.18,6.56-5.71,7a6.49,6.49,0,0,1-7.27-5.81,14.64,14.64,0,0,1-.05-1.48V611.41a4.16,4.16,0,0,0-.49-.17,4.52,4.52,0,0,1-4-4.79c0-5.05,0-10.09,0-15.14,0-4.7-.13-9.41.05-14.11.41-10.48,5.14-18.58,13.87-24.37.3-.2.65-.34,1-.52Zm-2.88,6.57a25.07,25.07,0,0,0-6.63,9,27.28,27.28,0,0,0-2.17,11.2V602c0,1.37,0,2.73,0,4.09,0,.7.22.9.91.89,2.38,0,4.76,0,7.14,0,.24,0,.48,0,.76-.07Zm-4.26,52.49c0,.37,0,.64,0,.92v27.92a5.78,5.78,0,0,0,.11,1.1A2.09,2.09,0,0,0,27,642.59a2.66,2.66,0,0,0,1-2.46V611.37Z"/></g></svg>