<svg xmlns="http://www.w3.org/2000/svg" viewBox="0 0 595.28 841.89"><defs><style>.cls-1{opacity:0.7;}.cls-2{opacity:0.8;}.cls-3{fill:#b17f4a;}</style></defs><title>fondos</title><g id="P5A"><g class="cls-1"><g class="cls-2"><path d="M12.47,94.49A35.17,35.17,0,0,1,7.66,93c-4.28-2-7.11-5.18-7.6-10a32.44,32.44,0,0,1,.31-6C.94,70.39,1.55,63.69,2.15,57L3.92,37.25q.69-7.82,1.36-15.62c.1-1.21.31-2.36,1.54-2.91a4.24,4.24,0,0,1,1.7-.3c3.16,0,6.33,0,9.5,0h1A19,19,0,0,1,37.75,0,19,19,0,0,1,56.49,18.4H67.07a2.75,2.75,0,0,1,3.11,2.87c.7,7.92,1.38,15.85,2.09,23.78S73.69,60.9,74.4,68.83c.38,4.25.9,8.5,1.1,12.76s-1.85,7.62-5.26,10.1a14.22,14.22,0,0,1-6.7,2.63,2.43,2.43,0,0,0-.52.17Zm-2.1-70.81a4.3,4.3,0,0,0-.08.44Q9.18,36.55,8.08,49,6.65,65.17,5.23,81.33a6.28,6.28,0,0,0,1.81,5,9.77,9.77,0,0,0,7.5,2.92q23.21,0,46.4,0A11.53,11.53,0,0,0,66,88.18c2.6-1.25,4.48-4,4.26-6.47q-1-12.22-2.14-24.43-1.29-14.43-2.57-28.84c-.14-1.58-.3-3.17-.45-4.73H56.39c0,2.7,0,5.31,0,7.92a2.54,2.54,0,0,1-2.63,2.52,2.59,2.59,0,0,1-2.54-2.53c0-.8,0-1.6,0-2.4V23.71H24.31c0,.22,0,.37,0,.52,0,2.46,0,4.92,0,7.38a2.59,2.59,0,0,1-5.17,0c0-.8,0-1.6,0-2.4V23.68ZM24.3,18.35H51.19a13.06,13.06,0,0,0-6.3-11,12.79,12.79,0,0,0-14.29,0A13.06,13.06,0,0,0,24.3,18.35Z"/><path class="cls-3" d="M10.37,23.68h8.71v5.56c0,.8,0,1.6,0,2.4a2.59,2.59,0,0,0,5.17,0c0-2.46,0-4.92,0-7.38,0-.15,0-.3,0-.52H51.2v5.51c0,.8,0,1.6,0,2.4a2.59,2.59,0,0,0,2.54,2.53,2.54,2.54,0,0,0,2.63-2.52c0-2.61,0-5.22,0-7.92h8.74c.15,1.56.31,3.15.45,4.73q1.29,14.41,2.57,28.84,1.08,12.21,2.14,24.43c.22,2.46-1.66,5.22-4.26,6.47a11.53,11.53,0,0,1-5.09,1.1q-23.2,0-46.4,0A9.77,9.77,0,0,1,7,86.36a6.28,6.28,0,0,1-1.81-5Q6.67,65.18,8.08,49q1.1-12.44,2.21-24.88A4.3,4.3,0,0,1,10.37,23.68Z"/></g><g class="cls-2"><path d="M185.73,94.49A35.31,35.31,0,0,1,180.91,93c-4.28-2-7.11-5.18-7.59-10a32.43,32.43,0,0,1,.3-6Q174.49,67,175.4,57q.89-9.87,1.77-19.73.71-7.82,1.36-15.62c.11-1.21.31-2.36,1.55-2.91a4.19,4.19,0,0,1,1.69-.3c3.17,0,6.33,0,9.5,0h1a18.74,18.74,0,0,1,37.48,0h10.58a2.75,2.75,0,0,1,3.11,2.87q1,11.88,2.09,23.78t2.14,23.78c.38,4.25.89,8.5,1.09,12.76s-1.84,7.62-5.26,10.1a14.13,14.13,0,0,1-6.7,2.63,2.35,2.35,0,0,0-.51.17Zm-2.11-70.81a4.3,4.3,0,0,0-.08.44Q182.43,36.55,181.33,49q-1.43,16.17-2.84,32.33a6.24,6.24,0,0,0,1.8,5,9.79,9.79,0,0,0,7.51,2.92q23.19,0,46.39,0a11.5,11.5,0,0,0,5.09-1.1c2.61-1.25,4.48-4,4.27-6.47q-1.06-12.22-2.15-24.43-1.28-14.43-2.57-28.84c-.14-1.58-.3-3.17-.44-4.73h-8.75c0,2.7,0,5.31,0,7.92A2.53,2.53,0,0,1,227,34.15a2.58,2.58,0,0,1-2.53-2.53c0-.8,0-1.6,0-2.4V23.71h-26.9c0,.22,0,.37,0,.52,0,2.46,0,4.92,0,7.38a2.59,2.59,0,0,1-5.17,0c0-.8,0-1.6,0-2.4V23.68Zm13.94-5.33h26.89a13.06,13.06,0,0,0-6.3-11,12.79,12.79,0,0,0-14.29,0A13,13,0,0,0,197.56,18.35Z"/><path class="cls-3" d="M183.62,23.68h8.72v5.56c0,.8,0,1.6,0,2.4a2.59,2.59,0,0,0,5.17,0c0-2.46,0-4.92,0-7.38,0-.15,0-.3,0-.52h26.9v5.51c0,.8,0,1.6,0,2.4A2.58,2.58,0,0,0,227,34.15a2.53,2.53,0,0,0,2.63-2.52c0-2.61,0-5.22,0-7.92h8.75c.14,1.56.3,3.15.44,4.73q1.29,14.41,2.57,28.84,1.08,12.21,2.15,24.43c.21,2.46-1.66,5.22-4.27,6.47a11.5,11.5,0,0,1-5.09,1.1q-23.19,0-46.39,0a9.79,9.79,0,0,1-7.51-2.92,6.24,6.24,0,0,1-1.8-5q1.42-16.15,2.84-32.33,1.09-12.44,2.21-24.88A4.3,4.3,0,0,1,183.62,23.68Z"/></g><g class="cls-2"><path d="M359,94.49A35.17,35.17,0,0,1,354.17,93c-4.28-2-7.11-5.18-7.6-10a32.43,32.43,0,0,1,.3-6c.58-6.7,1.19-13.4,1.79-20.11l1.77-19.73q.69-7.82,1.36-15.62c.1-1.21.31-2.36,1.54-2.91a4.24,4.24,0,0,1,1.7-.3c3.16,0,6.33,0,9.49,0h1a18.74,18.74,0,0,1,37.48,0h10.58a2.74,2.74,0,0,1,3.11,2.87c.71,7.92,1.39,15.85,2.1,23.78s1.42,15.85,2.13,23.78c.38,4.25.9,8.5,1.1,12.76s-1.85,7.62-5.26,10.1A14.21,14.21,0,0,1,410,94.32a2.54,2.54,0,0,0-.51.17Zm-2.1-70.81c0,.2-.08.32-.09.44Q355.7,36.55,354.58,49q-1.43,16.17-2.84,32.33a6.28,6.28,0,0,0,1.81,5,9.77,9.77,0,0,0,7.5,2.92q23.2,0,46.4,0a11.56,11.56,0,0,0,5.09-1.1c2.6-1.25,4.47-4,4.26-6.47q-1.05-12.22-2.15-24.43-1.27-14.43-2.56-28.84c-.14-1.58-.3-3.17-.45-4.73H402.9c0,2.7,0,5.31,0,7.92a2.55,2.55,0,0,1-2.63,2.52,2.59,2.59,0,0,1-2.54-2.53c0-.8,0-1.6,0-2.4V23.71H370.82c0,.22,0,.37,0,.52,0,2.46,0,4.92,0,7.38a2.58,2.58,0,0,1-5.16,0c0-.8,0-1.6,0-2.4V23.68Zm13.93-5.33H397.7a13.06,13.06,0,0,0-6.3-11,12.79,12.79,0,0,0-14.29,0A13.06,13.06,0,0,0,370.81,18.35Z"/><path class="cls-3" d="M356.88,23.68h8.71v5.56c0,.8,0,1.6,0,2.4a2.58,2.58,0,0,0,5.16,0c.05-2.46,0-4.92,0-7.38,0-.15,0-.3,0-.52h26.89v5.51c0,.8,0,1.6,0,2.4a2.59,2.59,0,0,0,2.54,2.53,2.55,2.55,0,0,0,2.63-2.52c0-2.61,0-5.22,0-7.92h8.74c.15,1.56.31,3.15.45,4.73q1.28,14.41,2.56,28.84,1.1,12.21,2.15,24.43c.21,2.46-1.66,5.22-4.26,6.47a11.56,11.56,0,0,1-5.09,1.1q-23.2,0-46.4,0a9.77,9.77,0,0,1-7.5-2.92,6.28,6.28,0,0,1-1.81-5q1.44-16.15,2.84-32.33,1.11-12.44,2.21-24.88C356.8,24,356.84,23.88,356.88,23.68Z"/></g><g class="cls-2"><path d="M532.23,94.49A35.17,35.17,0,0,1,527.42,93c-4.28-2-7.11-5.18-7.6-10a32.44,32.44,0,0,1,.31-6c.57-6.7,1.18-13.4,1.78-20.11s1.19-13.15,1.77-19.73c.46-5.21.93-10.41,1.36-15.62.1-1.21.31-2.36,1.55-2.91a4.16,4.16,0,0,1,1.69-.3c3.17,0,6.33,0,9.5,0h1a18.74,18.74,0,0,1,37.48,0h10.58a2.75,2.75,0,0,1,3.11,2.87q1,11.88,2.09,23.78t2.14,23.78c.38,4.25.89,8.5,1.09,12.76s-1.85,7.62-5.26,10.1a14.17,14.17,0,0,1-6.7,2.63,2.35,2.35,0,0,0-.51.17Zm-2.1-70.81a4.3,4.3,0,0,0-.08.44Q528.94,36.55,527.84,49,526.42,65.17,525,81.33a6.24,6.24,0,0,0,1.8,5,9.77,9.77,0,0,0,7.5,2.92q23.21,0,46.4,0a11.5,11.5,0,0,0,5.09-1.1c2.61-1.25,4.48-4,4.27-6.47Q589,69.49,587.91,57.28q-1.27-14.43-2.57-28.84c-.14-1.58-.3-3.17-.45-4.73h-8.74c0,2.7,0,5.31,0,7.92a2.54,2.54,0,0,1-2.63,2.52A2.58,2.58,0,0,1,571,31.62c0-.8,0-1.6,0-2.4V23.71H544.07c0,.22,0,.37,0,.52,0,2.46,0,4.92,0,7.38a2.59,2.59,0,0,1-5.17,0c0-.8,0-1.6,0-2.4,0-1.84,0-3.67,0-5.56Zm13.93-5.33H571a13,13,0,0,0-6.3-11,12.77,12.77,0,0,0-14.28,0A13,13,0,0,0,544.06,18.35Z"/><path class="cls-3" d="M530.13,23.68h8.71c0,1.89,0,3.72,0,5.56,0,.8,0,1.6,0,2.4a2.59,2.59,0,0,0,5.17,0c0-2.46,0-4.92,0-7.38,0-.15,0-.3,0-.52H571v5.51c0,.8,0,1.6,0,2.4a2.58,2.58,0,0,0,2.53,2.53,2.54,2.54,0,0,0,2.63-2.52c0-2.61,0-5.22,0-7.92h8.74c.15,1.56.31,3.15.45,4.73q1.29,14.41,2.57,28.84,1.08,12.21,2.15,24.43c.21,2.46-1.66,5.22-4.27,6.47a11.5,11.5,0,0,1-5.09,1.1q-23.19,0-46.4,0a9.77,9.77,0,0,1-7.5-2.92,6.24,6.24,0,0,1-1.8-5q1.43-16.15,2.84-32.33,1.1-12.44,2.21-24.88A4.3,4.3,0,0,1,530.13,23.68Z"/></g><g class="cls-2"><path d="M97.47,210.48A35.28,35.28,0,0,1,92.65,209c-4.27-1.95-7.1-5.19-7.59-10a32.37,32.37,0,0,1,.3-6c.58-6.71,1.19-13.41,1.78-20.11s1.19-13.16,1.77-19.74q.7-7.8,1.37-15.61c.1-1.22.31-2.37,1.54-2.92a4.37,4.37,0,0,1,1.69-.3c3.17,0,6.34,0,9.5,0h1a18.74,18.74,0,0,1,37.48,0h1c3.2,0,6.39,0,9.59,0a2.74,2.74,0,0,1,3.11,2.86c.71,7.93,1.39,15.86,2.09,23.79s1.43,15.85,2.14,23.77c.38,4.26.9,8.51,1.1,12.77s-1.85,7.61-5.27,10.1a14.34,14.34,0,0,1-6.7,2.63,2.5,2.5,0,0,0-.51.16Zm-2.11-70.8c0,.2-.07.31-.08.43Q94.17,152.56,93.07,165q-1.42,16.16-2.84,32.33a6.24,6.24,0,0,0,1.8,5,9.78,9.78,0,0,0,7.51,2.91q23.19,0,46.4,0a11.48,11.48,0,0,0,5.08-1.09c2.61-1.26,4.48-4,4.27-6.48q-1-12.21-2.15-24.43-1.27-14.42-2.57-28.83c-.14-1.59-.29-3.17-.44-4.73h-8.74c0,2.69,0,5.3,0,7.91a2.55,2.55,0,0,1-2.63,2.53,2.59,2.59,0,0,1-2.53-2.54c0-.79,0-1.6,0-2.39V139.7H109.3c0,.23,0,.38,0,.53,0,2.46,0,4.92,0,7.38a2.59,2.59,0,0,1-5.17,0c0-.8,0-1.6,0-2.4v-5.55Zm13.94-5.33h26.89a13.05,13.05,0,0,0-6.3-11,12.79,12.79,0,0,0-14.29,0A13.05,13.05,0,0,0,109.3,134.35Z"/><path class="cls-3" d="M95.36,139.68h8.72v5.55c0,.8,0,1.6,0,2.4a2.59,2.59,0,0,0,5.17,0c0-2.46,0-4.92,0-7.38,0-.15,0-.3,0-.53h26.9v5.52c0,.79,0,1.6,0,2.39a2.59,2.59,0,0,0,2.53,2.54,2.55,2.55,0,0,0,2.63-2.53c0-2.61,0-5.22,0-7.91h8.74c.15,1.56.3,3.14.44,4.73q1.29,14.42,2.57,28.83,1.08,12.21,2.15,24.43c.21,2.46-1.66,5.22-4.27,6.48a11.48,11.48,0,0,1-5.08,1.09q-23.2,0-46.4,0A9.78,9.78,0,0,1,92,202.36a6.24,6.24,0,0,1-1.8-5q1.42-16.17,2.84-32.33,1.09-12.45,2.21-24.89C95.29,140,95.33,139.88,95.36,139.68Z"/></g><g class="cls-2"><path d="M270.72,210.48a35.14,35.14,0,0,1-4.81-1.44c-4.28-1.95-7.11-5.19-7.6-10a32.38,32.38,0,0,1,.31-6c.57-6.71,1.18-13.41,1.78-20.11l1.77-19.74q.69-7.8,1.36-15.61c.1-1.22.31-2.37,1.54-2.92a4.42,4.42,0,0,1,1.7-.3c3.16,0,6.33,0,9.5,0h1a18.75,18.75,0,0,1,37.49,0h1c3.2,0,6.4,0,9.6,0a2.73,2.73,0,0,1,3.1,2.86c.71,7.93,1.39,15.86,2.1,23.79s1.42,15.85,2.13,23.77c.38,4.26.9,8.51,1.1,12.77s-1.85,7.61-5.26,10.1a14.43,14.43,0,0,1-6.7,2.63,2.4,2.4,0,0,0-.52.16Zm-2.1-70.8a4.2,4.2,0,0,0-.08.43q-1.11,12.45-2.21,24.89-1.43,16.16-2.85,32.33a6.28,6.28,0,0,0,1.81,5,9.76,9.76,0,0,0,7.5,2.91q23.2,0,46.4,0a11.52,11.52,0,0,0,5.09-1.09c2.6-1.26,4.48-4,4.26-6.48q-1.05-12.21-2.14-24.43-1.29-14.42-2.57-28.83c-.14-1.59-.3-3.17-.45-4.73h-8.74c0,2.69,0,5.3,0,7.91a2.55,2.55,0,0,1-2.63,2.53,2.59,2.59,0,0,1-2.54-2.54c0-.79,0-1.6,0-2.39V139.7H282.56c0,.23,0,.38,0,.53,0,2.46,0,4.92,0,7.38a2.59,2.59,0,0,1-5.17,0c0-.8,0-1.6,0-2.4v-5.55Zm13.93-5.33h26.89a13.05,13.05,0,0,0-6.3-11,12.79,12.79,0,0,0-14.29,0A13.05,13.05,0,0,0,282.55,134.35Z"/><path class="cls-3" d="M268.62,139.68h8.71v5.55c0,.8,0,1.6,0,2.4a2.59,2.59,0,0,0,5.17,0c0-2.46,0-4.92,0-7.38,0-.15,0-.3,0-.53h26.89v5.52c0,.79,0,1.6,0,2.39a2.59,2.59,0,0,0,2.54,2.54,2.55,2.55,0,0,0,2.63-2.53c0-2.61,0-5.22,0-7.91h8.74c.15,1.56.31,3.14.45,4.73q1.29,14.42,2.57,28.83,1.08,12.21,2.14,24.43c.22,2.46-1.66,5.22-4.26,6.48a11.52,11.52,0,0,1-5.09,1.09q-23.2,0-46.4,0a9.76,9.76,0,0,1-7.5-2.91,6.28,6.28,0,0,1-1.81-5q1.44-16.17,2.85-32.33,1.1-12.45,2.21-24.89A4.2,4.2,0,0,1,268.62,139.68Z"/></g><g class="cls-2"><path d="M444,210.48a35.28,35.28,0,0,1-4.82-1.44c-4.28-1.95-7.11-5.19-7.59-10a32.37,32.37,0,0,1,.3-6q.87-10.07,1.78-20.11.89-9.87,1.77-19.74c.46-5.2.93-10.4,1.36-15.61.11-1.22.31-2.37,1.55-2.92a4.37,4.37,0,0,1,1.69-.3c3.17,0,6.33,0,9.5,0h1a18.74,18.74,0,0,1,37.48,0h1c3.2,0,6.39,0,9.59,0a2.74,2.74,0,0,1,3.11,2.86q1.05,11.9,2.09,23.79t2.14,23.77c.38,4.26.89,8.51,1.09,12.77s-1.84,7.61-5.26,10.1a14.34,14.34,0,0,1-6.7,2.63,2.32,2.32,0,0,0-.51.16Zm-2.11-70.8a4.2,4.2,0,0,0-.08.43q-1.11,12.45-2.21,24.89-1.43,16.16-2.84,32.33a6.24,6.24,0,0,0,1.8,5,9.78,9.78,0,0,0,7.51,2.91q23.19,0,46.39,0a11.49,11.49,0,0,0,5.09-1.09c2.61-1.26,4.48-4,4.27-6.48q-1.07-12.21-2.15-24.43-1.27-14.42-2.57-28.83c-.14-1.59-.3-3.17-.44-4.73h-8.75c0,2.69,0,5.3,0,7.91a2.55,2.55,0,0,1-2.63,2.53,2.58,2.58,0,0,1-2.53-2.54c0-.79,0-1.6,0-2.39V139.7h-26.9c0,.23,0,.38,0,.53,0,2.46,0,4.92,0,7.38a2.59,2.59,0,0,1-5.17,0c0-.8,0-1.6,0-2.4v-5.55Zm13.94-5.33H482.7a13.05,13.05,0,0,0-6.3-11,12.79,12.79,0,0,0-14.29,0A13,13,0,0,0,455.81,134.35Z"/><path class="cls-3" d="M441.87,139.68h8.72v5.55c0,.8,0,1.6,0,2.4a2.59,2.59,0,0,0,5.17,0c0-2.46,0-4.92,0-7.38,0-.15,0-.3,0-.53h26.9v5.52c0,.79,0,1.6,0,2.39a2.58,2.58,0,0,0,2.53,2.54,2.55,2.55,0,0,0,2.63-2.53c0-2.61,0-5.22,0-7.91h8.75c.14,1.56.3,3.14.44,4.73q1.29,14.42,2.57,28.83,1.08,12.21,2.15,24.43c.21,2.46-1.66,5.22-4.27,6.48a11.49,11.49,0,0,1-5.09,1.09q-23.19,0-46.39,0a9.78,9.78,0,0,1-7.51-2.91,6.24,6.24,0,0,1-1.8-5q1.42-16.17,2.84-32.33,1.1-12.45,2.21-24.89A4.2,4.2,0,0,1,441.87,139.68Z"/></g><g class="cls-2"><path d="M12.47,333a35.14,35.14,0,0,1-4.81-1.44c-4.28-1.95-7.11-5.18-7.6-10a32.44,32.44,0,0,1,.31-6c.57-6.7,1.18-13.4,1.78-20.11l1.77-19.74q.69-7.8,1.36-15.61c.1-1.21.31-2.36,1.54-2.92a4.61,4.61,0,0,1,1.7-.3c3.16,0,6.33,0,9.5,0h1a19,19,0,0,1,18.75-18.4,19,19,0,0,1,18.74,18.4H67.07c2,0,2.93.89,3.11,2.87.7,7.92,1.38,15.85,2.09,23.78s1.42,15.85,2.13,23.78c.38,4.25.9,8.5,1.1,12.76s-1.85,7.61-5.26,10.1a14.22,14.22,0,0,1-6.7,2.63A3.13,3.13,0,0,0,63,333Zm-2.1-70.8c0,.2-.07.32-.08.43Q9.18,275,8.08,287.49q-1.43,16.17-2.85,32.33a6.28,6.28,0,0,0,1.81,5,9.72,9.72,0,0,0,7.5,2.91q23.21,0,46.4,0a11.67,11.67,0,0,0,5.09-1.1c2.6-1.25,4.48-4,4.26-6.48q-1-12.21-2.14-24.43-1.29-14.42-2.57-28.83c-.14-1.58-.3-3.17-.45-4.73H56.39c0,2.69,0,5.31,0,7.92a2.54,2.54,0,0,1-2.63,2.52,2.59,2.59,0,0,1-2.54-2.53c0-.8,0-1.6,0-2.4v-5.52H24.31c0,.23,0,.38,0,.53,0,2.46,0,4.92,0,7.38a2.59,2.59,0,0,1-5.17,0c0-.79,0-1.59,0-2.39v-5.56Zm13.93-5.33H51.19a13.06,13.06,0,0,0-6.3-11,12.79,12.79,0,0,0-14.29,0A13.06,13.06,0,0,0,24.3,256.84Z"/><path class="cls-3" d="M10.37,262.17h8.71v5.56c0,.8,0,1.6,0,2.39a2.59,2.59,0,0,0,5.17,0c0-2.46,0-4.92,0-7.38,0-.15,0-.3,0-.53H51.2v5.52c0,.8,0,1.6,0,2.4a2.59,2.59,0,0,0,2.54,2.53,2.54,2.54,0,0,0,2.63-2.52c0-2.61,0-5.23,0-7.92h8.74c.15,1.56.31,3.15.45,4.73q1.29,14.42,2.57,28.83,1.08,12.23,2.14,24.43c.22,2.46-1.66,5.23-4.26,6.48a11.67,11.67,0,0,1-5.09,1.1q-23.2,0-46.4,0A9.72,9.72,0,0,1,7,324.85a6.28,6.28,0,0,1-1.81-5q1.44-16.17,2.85-32.33,1.1-12.44,2.21-24.89C10.3,262.49,10.33,262.37,10.37,262.17Z"/></g><g class="cls-2"><path d="M185.73,333a35.28,35.28,0,0,1-4.82-1.44c-4.28-1.95-7.11-5.18-7.59-10a32.43,32.43,0,0,1,.3-6q.87-10.05,1.78-20.11.89-9.87,1.77-19.74.71-7.8,1.36-15.61c.11-1.21.31-2.36,1.55-2.92a4.56,4.56,0,0,1,1.69-.3c3.17,0,6.33,0,9.5,0h1a18.74,18.74,0,0,1,37.48,0h10.58c2,0,2.93.89,3.11,2.87q1,11.88,2.09,23.78t2.14,23.78c.38,4.25.89,8.5,1.09,12.76s-1.84,7.61-5.26,10.1a14.13,14.13,0,0,1-6.7,2.63,3,3,0,0,0-.51.16Zm-2.11-70.8c0,.2-.07.32-.08.43q-1.11,12.45-2.21,24.89-1.43,16.17-2.84,32.33a6.24,6.24,0,0,0,1.8,5,9.74,9.74,0,0,0,7.51,2.91q23.19,0,46.39,0a11.64,11.64,0,0,0,5.09-1.1c2.61-1.25,4.48-4,4.27-6.48q-1.06-12.21-2.15-24.43-1.28-14.42-2.57-28.83c-.14-1.58-.3-3.17-.44-4.73h-8.75c0,2.69,0,5.31,0,7.92a2.53,2.53,0,0,1-2.63,2.52,2.58,2.58,0,0,1-2.53-2.53c0-.8,0-1.6,0-2.4v-5.52h-26.9c0,.23,0,.38,0,.53,0,2.46,0,4.92,0,7.38a2.59,2.59,0,0,1-5.17,0c0-.79,0-1.59,0-2.39v-5.56Zm13.94-5.33h26.89a13.06,13.06,0,0,0-6.3-11,12.79,12.79,0,0,0-14.29,0A13,13,0,0,0,197.56,256.84Z"/><path class="cls-3" d="M183.62,262.17h8.72v5.56c0,.8,0,1.6,0,2.39a2.59,2.59,0,0,0,5.17,0c0-2.46,0-4.92,0-7.38,0-.15,0-.3,0-.53h26.9v5.52c0,.8,0,1.6,0,2.4a2.58,2.58,0,0,0,2.53,2.53,2.53,2.53,0,0,0,2.63-2.52c0-2.61,0-5.23,0-7.92h8.75c.14,1.56.3,3.15.44,4.73q1.29,14.42,2.57,28.83,1.08,12.23,2.15,24.43c.21,2.46-1.66,5.23-4.27,6.48a11.64,11.64,0,0,1-5.09,1.1q-23.19,0-46.39,0a9.74,9.74,0,0,1-7.51-2.91,6.24,6.24,0,0,1-1.8-5q1.42-16.17,2.84-32.33,1.09-12.44,2.21-24.89C183.55,262.49,183.58,262.37,183.62,262.17Z"/></g><g class="cls-2"><path d="M359,333a35.14,35.14,0,0,1-4.81-1.44c-4.28-1.95-7.11-5.18-7.6-10a32.43,32.43,0,0,1,.3-6c.58-6.7,1.19-13.4,1.79-20.11l1.77-19.74q.69-7.8,1.36-15.61c.1-1.21.31-2.36,1.54-2.92a4.61,4.61,0,0,1,1.7-.3c3.16,0,6.33,0,9.49,0h1a18.74,18.74,0,0,1,37.48,0h10.58a2.74,2.74,0,0,1,3.11,2.87c.71,7.92,1.39,15.85,2.1,23.78s1.42,15.85,2.13,23.78c.38,4.25.9,8.5,1.1,12.76s-1.85,7.61-5.26,10.1a14.21,14.21,0,0,1-6.71,2.63,3.33,3.33,0,0,0-.51.16Zm-2.1-70.8c0,.2-.08.32-.09.43q-1.1,12.45-2.21,24.89-1.43,16.17-2.84,32.33a6.28,6.28,0,0,0,1.81,5,9.72,9.72,0,0,0,7.5,2.91q23.2,0,46.4,0a11.7,11.7,0,0,0,5.09-1.1c2.6-1.25,4.47-4,4.26-6.48q-1.05-12.21-2.15-24.43-1.27-14.42-2.56-28.83c-.14-1.58-.3-3.17-.45-4.73H402.9c0,2.69,0,5.31,0,7.92a2.55,2.55,0,0,1-2.63,2.52,2.59,2.59,0,0,1-2.54-2.53c0-.8,0-1.6,0-2.4v-5.52H370.82c0,.23,0,.38,0,.53,0,2.46,0,4.92,0,7.38a2.58,2.58,0,0,1-5.16,0c0-.79,0-1.59,0-2.39v-5.56Zm13.93-5.33H397.7a13.06,13.06,0,0,0-6.3-11,12.79,12.79,0,0,0-14.29,0A13.06,13.06,0,0,0,370.81,256.84Z"/><path class="cls-3" d="M356.88,262.17h8.71v5.56c0,.8,0,1.6,0,2.39a2.58,2.58,0,0,0,5.16,0c.05-2.46,0-4.92,0-7.38,0-.15,0-.3,0-.53h26.89v5.52c0,.8,0,1.6,0,2.4a2.59,2.59,0,0,0,2.54,2.53,2.55,2.55,0,0,0,2.63-2.52c0-2.61,0-5.23,0-7.92h8.74c.15,1.56.31,3.15.45,4.73q1.28,14.42,2.56,28.83,1.1,12.23,2.15,24.43c.21,2.46-1.66,5.23-4.26,6.48a11.7,11.7,0,0,1-5.09,1.1q-23.2,0-46.4,0a9.72,9.72,0,0,1-7.5-2.91,6.28,6.28,0,0,1-1.81-5q1.44-16.17,2.84-32.33,1.11-12.44,2.21-24.89C356.8,262.49,356.84,262.37,356.88,262.17Z"/></g><g class="cls-2"><path d="M532.23,333a35.14,35.14,0,0,1-4.81-1.44c-4.28-1.95-7.11-5.18-7.6-10a32.44,32.44,0,0,1,.31-6c.57-6.7,1.18-13.4,1.78-20.11s1.19-13.16,1.77-19.74c.46-5.2.93-10.4,1.36-15.61.1-1.21.31-2.36,1.55-2.92a4.52,4.52,0,0,1,1.69-.3c3.17,0,6.33,0,9.5,0h1a18.74,18.74,0,0,1,37.48,0h10.58c2,0,2.93.89,3.11,2.87q1,11.88,2.09,23.78t2.14,23.78c.38,4.25.89,8.5,1.09,12.76s-1.85,7.61-5.26,10.1a14.17,14.17,0,0,1-6.7,2.63,3,3,0,0,0-.51.16Zm-2.1-70.8c0,.2-.07.32-.08.43q-1.11,12.45-2.21,24.89-1.43,16.17-2.84,32.33a6.24,6.24,0,0,0,1.8,5,9.72,9.72,0,0,0,7.5,2.91q23.21,0,46.4,0a11.64,11.64,0,0,0,5.09-1.1c2.61-1.25,4.48-4,4.27-6.48Q589,308,587.91,295.76q-1.27-14.42-2.57-28.83c-.14-1.58-.3-3.17-.45-4.73h-8.74c0,2.69,0,5.31,0,7.92a2.54,2.54,0,0,1-2.63,2.52,2.58,2.58,0,0,1-2.53-2.53c0-.8,0-1.6,0-2.4v-5.52H544.07c0,.23,0,.38,0,.53,0,2.46,0,4.92,0,7.38a2.59,2.59,0,0,1-5.17,0c0-.79,0-1.59,0-2.39,0-1.84,0-3.68,0-5.56Zm13.93-5.33H571a13,13,0,0,0-6.3-11,12.77,12.77,0,0,0-14.28,0A13,13,0,0,0,544.06,256.84Z"/><path class="cls-3" d="M530.13,262.17h8.71c0,1.88,0,3.72,0,5.56,0,.8,0,1.6,0,2.39a2.59,2.59,0,0,0,5.17,0c0-2.46,0-4.92,0-7.38,0-.15,0-.3,0-.53H571v5.52c0,.8,0,1.6,0,2.4a2.58,2.58,0,0,0,2.53,2.53,2.54,2.54,0,0,0,2.63-2.52c0-2.61,0-5.23,0-7.92h8.74c.15,1.56.31,3.15.45,4.73q1.29,14.42,2.57,28.83Q589,308,590.06,320.19c.21,2.46-1.66,5.23-4.27,6.48a11.64,11.64,0,0,1-5.09,1.1q-23.19,0-46.4,0a9.72,9.72,0,0,1-7.5-2.91,6.24,6.24,0,0,1-1.8-5q1.43-16.17,2.84-32.33,1.1-12.44,2.21-24.89C530.06,262.49,530.09,262.37,530.13,262.17Z"/></g><g class="cls-2"><path d="M97.47,455a36.74,36.74,0,0,1-4.82-1.44c-4.27-1.95-7.1-5.19-7.59-10a32.32,32.32,0,0,1,.3-6c.58-6.71,1.19-13.41,1.78-20.11s1.19-13.16,1.77-19.74q.7-7.8,1.37-15.61c.1-1.22.31-2.37,1.54-2.92a4.19,4.19,0,0,1,1.69-.3c3.17,0,6.34,0,9.5,0h1a18.74,18.74,0,0,1,37.48,0h10.58a2.74,2.74,0,0,1,3.11,2.86c.71,7.93,1.39,15.86,2.09,23.78s1.43,15.86,2.14,23.78c.38,4.26.9,8.51,1.1,12.77s-1.85,7.61-5.27,10.1a14.34,14.34,0,0,1-6.7,2.63,2.5,2.5,0,0,0-.51.16Zm-2.11-70.8c0,.2-.07.31-.08.43Q94.17,397,93.07,409.49q-1.42,16.15-2.84,32.33a6.25,6.25,0,0,0,1.8,5,9.78,9.78,0,0,0,7.51,2.91q23.19,0,46.4,0a11.62,11.62,0,0,0,5.08-1.09c2.61-1.26,4.48-4,4.27-6.48q-1-12.21-2.15-24.43-1.27-14.42-2.57-28.83c-.14-1.59-.29-3.17-.44-4.73h-8.74c0,2.69,0,5.3,0,7.91a2.53,2.53,0,0,1-2.63,2.52,2.57,2.57,0,0,1-2.53-2.53c0-.8,0-1.6,0-2.4v-5.51H109.3c0,.22,0,.38,0,.53,0,2.46,0,4.92,0,7.38a2.59,2.59,0,0,1-5.17,0c0-.8,0-1.6,0-2.4v-5.55Zm13.94-5.34h26.89a13.06,13.06,0,0,0-6.3-11,12.82,12.82,0,0,0-14.29,0A13.06,13.06,0,0,0,109.3,378.83Z"/><path class="cls-3" d="M95.36,384.17h8.72v5.55c0,.8,0,1.6,0,2.4a2.59,2.59,0,0,0,5.17,0c0-2.46,0-4.92,0-7.38,0-.15,0-.31,0-.53h26.9v5.51c0,.8,0,1.6,0,2.4a2.57,2.57,0,0,0,2.53,2.53,2.53,2.53,0,0,0,2.63-2.52c0-2.61,0-5.22,0-7.91h8.74c.15,1.56.3,3.14.44,4.73q1.29,14.42,2.57,28.83,1.08,12.21,2.15,24.43c.21,2.46-1.66,5.22-4.27,6.48a11.62,11.62,0,0,1-5.08,1.09q-23.2,0-46.4,0A9.78,9.78,0,0,1,92,446.85a6.25,6.25,0,0,1-1.8-5q1.42-16.17,2.84-32.33Q94.17,397,95.28,384.6C95.29,384.48,95.33,384.37,95.36,384.17Z"/></g><g class="cls-2"><path d="M270.72,455a36.6,36.6,0,0,1-4.81-1.44c-4.28-1.95-7.11-5.19-7.6-10a32.34,32.34,0,0,1,.31-6c.57-6.71,1.18-13.41,1.78-20.11l1.77-19.74q.69-7.8,1.36-15.61c.1-1.22.31-2.37,1.54-2.92a4.24,4.24,0,0,1,1.7-.3c3.16,0,6.33,0,9.5,0h1a18.75,18.75,0,0,1,37.49,0h10.58a2.73,2.73,0,0,1,3.1,2.86c.71,7.93,1.39,15.86,2.1,23.78s1.42,15.86,2.13,23.78c.38,4.26.9,8.51,1.1,12.77s-1.85,7.61-5.26,10.1a14.43,14.43,0,0,1-6.7,2.63,2.4,2.4,0,0,0-.52.16Zm-2.1-70.8a4.2,4.2,0,0,0-.08.43q-1.11,12.45-2.21,24.89-1.43,16.15-2.85,32.33a6.3,6.3,0,0,0,1.81,5,9.76,9.76,0,0,0,7.5,2.91q23.2,0,46.4,0a11.66,11.66,0,0,0,5.09-1.09c2.6-1.26,4.48-4,4.26-6.48q-1.05-12.21-2.14-24.43-1.29-14.42-2.57-28.83c-.14-1.59-.3-3.17-.45-4.73h-8.74c0,2.69,0,5.3,0,7.91a2.54,2.54,0,0,1-2.63,2.52,2.57,2.57,0,0,1-2.54-2.53c0-.8,0-1.6,0-2.4v-5.51H282.56c0,.22,0,.38,0,.53,0,2.46,0,4.92,0,7.38a2.59,2.59,0,0,1-5.17,0c0-.8,0-1.6,0-2.4v-5.55Zm13.93-5.34h26.89a13.06,13.06,0,0,0-6.3-11,12.82,12.82,0,0,0-14.29,0A13.06,13.06,0,0,0,282.55,378.83Z"/><path class="cls-3" d="M268.62,384.17h8.71v5.55c0,.8,0,1.6,0,2.4a2.59,2.59,0,0,0,5.17,0c0-2.46,0-4.92,0-7.38,0-.15,0-.31,0-.53h26.89v5.51c0,.8,0,1.6,0,2.4a2.57,2.57,0,0,0,2.54,2.53,2.54,2.54,0,0,0,2.63-2.52c0-2.61,0-5.22,0-7.91h8.74c.15,1.56.31,3.14.45,4.73q1.29,14.42,2.57,28.83,1.08,12.21,2.14,24.43c.22,2.46-1.66,5.22-4.26,6.48a11.66,11.66,0,0,1-5.09,1.09q-23.2,0-46.4,0a9.76,9.76,0,0,1-7.5-2.91,6.3,6.3,0,0,1-1.81-5q1.44-16.17,2.85-32.33,1.1-12.45,2.21-24.89A4.2,4.2,0,0,1,268.62,384.17Z"/></g><g class="cls-2"><path d="M444,455a36.74,36.74,0,0,1-4.82-1.44c-4.28-1.95-7.11-5.19-7.59-10a32.32,32.32,0,0,1,.3-6q.87-10.06,1.78-20.11.89-9.87,1.77-19.74c.46-5.2.93-10.41,1.36-15.61.11-1.22.31-2.37,1.55-2.92a4.19,4.19,0,0,1,1.69-.3c3.17,0,6.33,0,9.5,0h1a18.74,18.74,0,0,1,37.48,0h10.58a2.74,2.74,0,0,1,3.11,2.86q1.05,11.89,2.09,23.78t2.14,23.78c.38,4.26.89,8.51,1.09,12.77s-1.84,7.61-5.26,10.1a14.34,14.34,0,0,1-6.7,2.63,2.32,2.32,0,0,0-.51.16Zm-2.11-70.8a4.2,4.2,0,0,0-.08.43q-1.11,12.45-2.21,24.89-1.43,16.15-2.84,32.33a6.25,6.25,0,0,0,1.8,5,9.78,9.78,0,0,0,7.51,2.91q23.19,0,46.39,0a11.63,11.63,0,0,0,5.09-1.09c2.61-1.26,4.48-4,4.27-6.48q-1.07-12.21-2.15-24.43-1.27-14.42-2.57-28.83c-.14-1.59-.3-3.17-.44-4.73h-8.75c0,2.69,0,5.3,0,7.91a2.53,2.53,0,0,1-2.63,2.52,2.57,2.57,0,0,1-2.53-2.53c0-.8,0-1.6,0-2.4v-5.51h-26.9c0,.22,0,.38,0,.53,0,2.46,0,4.92,0,7.38a2.59,2.59,0,0,1-5.17,0c0-.8,0-1.6,0-2.4v-5.55Zm13.94-5.34H482.7a13.06,13.06,0,0,0-6.3-11,12.82,12.82,0,0,0-14.29,0A13,13,0,0,0,455.81,378.83Z"/><path class="cls-3" d="M441.87,384.17h8.72v5.55c0,.8,0,1.6,0,2.4a2.59,2.59,0,0,0,5.17,0c0-2.46,0-4.92,0-7.38,0-.15,0-.31,0-.53h26.9v5.51c0,.8,0,1.6,0,2.4a2.57,2.57,0,0,0,2.53,2.53,2.53,2.53,0,0,0,2.63-2.52c0-2.61,0-5.22,0-7.91h8.75c.14,1.56.3,3.14.44,4.73q1.29,14.42,2.57,28.83,1.08,12.21,2.15,24.43c.21,2.46-1.66,5.22-4.27,6.48a11.63,11.63,0,0,1-5.09,1.09q-23.19,0-46.39,0a9.78,9.78,0,0,1-7.51-2.91,6.25,6.25,0,0,1-1.8-5q1.42-16.17,2.84-32.33,1.1-12.45,2.21-24.89A4.2,4.2,0,0,1,441.87,384.17Z"/></g><g class="cls-2"><path d="M12.47,586a35.14,35.14,0,0,1-4.81-1.44c-4.28-1.95-7.11-5.19-7.6-10a32.44,32.44,0,0,1,.31-6c.57-6.7,1.18-13.41,1.78-20.11l1.77-19.74q.69-7.8,1.36-15.61c.1-1.21.31-2.36,1.54-2.92a4.42,4.42,0,0,1,1.7-.3c3.16,0,6.33,0,9.5,0h1a19,19,0,0,1,18.75-18.4,19,19,0,0,1,18.74,18.4H67.07a2.74,2.74,0,0,1,3.11,2.86c.7,7.93,1.38,15.86,2.09,23.79s1.42,15.85,2.13,23.78c.38,4.25.9,8.5,1.1,12.76s-1.85,7.61-5.26,10.1a14.32,14.32,0,0,1-6.7,2.63A3.13,3.13,0,0,0,63,586Zm-2.1-70.8a4.2,4.2,0,0,0-.08.43Q9.18,528,8.08,540.48q-1.43,16.17-2.85,32.33a6.28,6.28,0,0,0,1.81,5,9.76,9.76,0,0,0,7.5,2.91q23.21,0,46.4,0A11.52,11.52,0,0,0,66,579.66c2.6-1.25,4.48-4,4.26-6.48q-1-12.21-2.14-24.43-1.29-14.41-2.57-28.83c-.14-1.59-.3-3.17-.45-4.73H56.39c0,2.69,0,5.3,0,7.92a2.55,2.55,0,0,1-2.63,2.52,2.59,2.59,0,0,1-2.54-2.54c0-.79,0-1.59,0-2.39v-5.52H24.31c0,.23,0,.38,0,.53,0,2.46,0,4.92,0,7.38a2.59,2.59,0,0,1-5.17,0c0-.8,0-1.6,0-2.4v-5.55Zm13.93-5.33H51.19a13.06,13.06,0,0,0-6.3-11,12.79,12.79,0,0,0-14.29,0A13.06,13.06,0,0,0,24.3,509.83Z"/><path class="cls-3" d="M10.37,515.16h8.71v5.55c0,.8,0,1.6,0,2.4a2.59,2.59,0,0,0,5.17,0c0-2.46,0-4.92,0-7.38,0-.15,0-.3,0-.53H51.2v5.52c0,.8,0,1.6,0,2.39a2.59,2.59,0,0,0,2.54,2.54,2.55,2.55,0,0,0,2.63-2.52c0-2.62,0-5.23,0-7.92h8.74c.15,1.56.31,3.14.45,4.73q1.29,14.42,2.57,28.83,1.08,12.22,2.14,24.43c.22,2.46-1.66,5.23-4.26,6.48a11.52,11.52,0,0,1-5.09,1.09q-23.2,0-46.4,0A9.76,9.76,0,0,1,7,577.84a6.28,6.28,0,0,1-1.81-5q1.44-16.17,2.85-32.33,1.1-12.45,2.21-24.89A4.2,4.2,0,0,1,10.37,515.16Z"/></g><g class="cls-2"><path d="M185.73,586a35.28,35.28,0,0,1-4.82-1.44c-4.28-1.95-7.11-5.19-7.59-10a32.43,32.43,0,0,1,.3-6q.87-10.05,1.78-20.11.89-9.87,1.77-19.74.71-7.8,1.36-15.61c.11-1.21.31-2.36,1.55-2.92a4.37,4.37,0,0,1,1.69-.3c3.17,0,6.33,0,9.5,0h1a18.74,18.74,0,0,1,37.48,0h10.58a2.74,2.74,0,0,1,3.11,2.86q1,11.89,2.09,23.79t2.14,23.78c.38,4.25.89,8.5,1.09,12.76s-1.84,7.61-5.26,10.1a14.24,14.24,0,0,1-6.7,2.63,3,3,0,0,0-.51.16Zm-2.11-70.8a4.2,4.2,0,0,0-.08.43q-1.11,12.45-2.21,24.89-1.43,16.17-2.84,32.33a6.24,6.24,0,0,0,1.8,5,9.78,9.78,0,0,0,7.51,2.91q23.19,0,46.39,0a11.49,11.49,0,0,0,5.09-1.09c2.61-1.25,4.48-4,4.27-6.48q-1.06-12.21-2.15-24.43-1.28-14.41-2.57-28.83c-.14-1.59-.3-3.17-.44-4.73h-8.75c0,2.69,0,5.3,0,7.92a2.55,2.55,0,0,1-2.63,2.52,2.58,2.58,0,0,1-2.53-2.54c0-.79,0-1.59,0-2.39v-5.52h-26.9c0,.23,0,.38,0,.53,0,2.46,0,4.92,0,7.38a2.59,2.59,0,0,1-5.17,0c0-.8,0-1.6,0-2.4v-5.55Zm13.94-5.33h26.89a13.06,13.06,0,0,0-6.3-11,12.79,12.79,0,0,0-14.29,0A13,13,0,0,0,197.56,509.83Z"/><path class="cls-3" d="M183.62,515.16h8.72v5.55c0,.8,0,1.6,0,2.4a2.59,2.59,0,0,0,5.17,0c0-2.46,0-4.92,0-7.38,0-.15,0-.3,0-.53h26.9v5.52c0,.8,0,1.6,0,2.39a2.58,2.58,0,0,0,2.53,2.54,2.55,2.55,0,0,0,2.63-2.52c0-2.62,0-5.23,0-7.92h8.75c.14,1.56.3,3.14.44,4.73q1.29,14.42,2.57,28.83,1.08,12.22,2.15,24.43c.21,2.46-1.66,5.23-4.27,6.48a11.49,11.49,0,0,1-5.09,1.09q-23.19,0-46.39,0a9.78,9.78,0,0,1-7.51-2.91,6.24,6.24,0,0,1-1.8-5q1.42-16.17,2.84-32.33,1.09-12.45,2.21-24.89A4.2,4.2,0,0,1,183.62,515.16Z"/></g><g class="cls-2"><path d="M359,586a35.14,35.14,0,0,1-4.81-1.44c-4.28-1.95-7.11-5.19-7.6-10a32.43,32.43,0,0,1,.3-6c.58-6.7,1.19-13.41,1.79-20.11l1.77-19.74q.69-7.8,1.36-15.61c.1-1.21.31-2.36,1.54-2.92a4.42,4.42,0,0,1,1.7-.3c3.16,0,6.33,0,9.49,0h1a18.74,18.74,0,0,1,37.48,0h10.58a2.74,2.74,0,0,1,3.11,2.86c.71,7.93,1.39,15.86,2.1,23.79s1.42,15.85,2.13,23.78c.38,4.25.9,8.5,1.1,12.76s-1.85,7.61-5.26,10.1A14.32,14.32,0,0,1,410,585.8a3.33,3.33,0,0,0-.51.16Zm-2.1-70.8c0,.2-.08.31-.09.43q-1.1,12.45-2.21,24.89-1.43,16.17-2.84,32.33a6.28,6.28,0,0,0,1.81,5,9.76,9.76,0,0,0,7.5,2.91q23.2,0,46.4,0a11.55,11.55,0,0,0,5.09-1.09c2.6-1.25,4.47-4,4.26-6.48q-1.05-12.21-2.15-24.43-1.27-14.41-2.56-28.83c-.14-1.59-.3-3.17-.45-4.73H402.9c0,2.69,0,5.3,0,7.92a2.56,2.56,0,0,1-2.63,2.52,2.59,2.59,0,0,1-2.54-2.54c0-.79,0-1.59,0-2.39v-5.52H370.82c0,.23,0,.38,0,.53,0,2.46,0,4.92,0,7.38a2.58,2.58,0,0,1-5.16,0c0-.8,0-1.6,0-2.4v-5.55Zm13.93-5.33H397.7a13.06,13.06,0,0,0-6.3-11,12.79,12.79,0,0,0-14.29,0A13.06,13.06,0,0,0,370.81,509.83Z"/><path class="cls-3" d="M356.88,515.16h8.71v5.55c0,.8,0,1.6,0,2.4a2.58,2.58,0,0,0,5.16,0c.05-2.46,0-4.92,0-7.38,0-.15,0-.3,0-.53h26.89v5.52c0,.8,0,1.6,0,2.39a2.59,2.59,0,0,0,2.54,2.54,2.56,2.56,0,0,0,2.63-2.52c0-2.62,0-5.23,0-7.92h8.74c.15,1.56.31,3.14.45,4.73q1.28,14.42,2.56,28.83,1.1,12.22,2.15,24.43c.21,2.46-1.66,5.23-4.26,6.48a11.55,11.55,0,0,1-5.09,1.09q-23.2,0-46.4,0a9.76,9.76,0,0,1-7.5-2.91,6.28,6.28,0,0,1-1.81-5q1.44-16.17,2.84-32.33,1.11-12.45,2.21-24.89C356.8,515.47,356.84,515.36,356.88,515.16Z"/></g><g class="cls-2"><path d="M532.23,586a35.14,35.14,0,0,1-4.81-1.44c-4.28-1.95-7.11-5.19-7.6-10a32.44,32.44,0,0,1,.31-6c.57-6.7,1.18-13.41,1.78-20.11s1.19-13.16,1.77-19.74c.46-5.2.93-10.4,1.36-15.61.1-1.21.31-2.36,1.55-2.92a4.33,4.33,0,0,1,1.69-.3c3.17,0,6.33,0,9.5,0h1a18.74,18.74,0,0,1,37.48,0h10.58a2.74,2.74,0,0,1,3.11,2.86q1,11.89,2.09,23.79t2.14,23.78c.38,4.25.89,8.5,1.09,12.76s-1.85,7.61-5.26,10.1a14.28,14.28,0,0,1-6.7,2.63,3,3,0,0,0-.51.16Zm-2.1-70.8a4.2,4.2,0,0,0-.08.43q-1.11,12.45-2.21,24.89-1.43,16.17-2.84,32.33a6.24,6.24,0,0,0,1.8,5,9.76,9.76,0,0,0,7.5,2.91q23.21,0,46.4,0a11.49,11.49,0,0,0,5.09-1.09c2.61-1.25,4.48-4,4.27-6.48Q589,561,587.91,548.75q-1.27-14.41-2.57-28.83c-.14-1.59-.3-3.17-.45-4.73h-8.74c0,2.69,0,5.3,0,7.92a2.55,2.55,0,0,1-2.63,2.52,2.58,2.58,0,0,1-2.53-2.54c0-.79,0-1.59,0-2.39v-5.52H544.07c0,.23,0,.38,0,.53,0,2.46,0,4.92,0,7.38a2.59,2.59,0,0,1-5.17,0c0-.8,0-1.6,0-2.4,0-1.83,0-3.67,0-5.55Zm13.93-5.33H571a13,13,0,0,0-6.3-11,12.77,12.77,0,0,0-14.28,0A13,13,0,0,0,544.06,509.83Z"/><path class="cls-3" d="M530.13,515.16h8.71c0,1.88,0,3.72,0,5.55,0,.8,0,1.6,0,2.4a2.59,2.59,0,0,0,5.17,0c0-2.46,0-4.92,0-7.38,0-.15,0-.3,0-.53H571v5.52c0,.8,0,1.6,0,2.39a2.58,2.58,0,0,0,2.53,2.54,2.55,2.55,0,0,0,2.63-2.52c0-2.62,0-5.23,0-7.92h8.74c.15,1.56.31,3.14.45,4.73q1.29,14.42,2.57,28.83Q589,561,590.06,573.18c.21,2.46-1.66,5.23-4.27,6.48a11.49,11.49,0,0,1-5.09,1.09q-23.19,0-46.4,0a9.76,9.76,0,0,1-7.5-2.91,6.24,6.24,0,0,1-1.8-5q1.43-16.17,2.84-32.33,1.1-12.45,2.21-24.89A4.2,4.2,0,0,1,530.13,515.16Z"/></g><g class="cls-2"><path d="M97.47,705a35.31,35.31,0,0,1-4.82-1.45c-4.27-2-7.1-5.18-7.59-10a32.28,32.28,0,0,1,.3-6c.58-6.71,1.19-13.41,1.78-20.11s1.19-13.16,1.77-19.74q.7-7.8,1.37-15.61c.1-1.22.31-2.37,1.54-2.92a4.19,4.19,0,0,1,1.69-.3c3.17,0,6.34,0,9.5,0h1a18.74,18.74,0,0,1,37.48,0h10.58a2.73,2.73,0,0,1,3.11,2.86c.71,7.93,1.39,15.86,2.09,23.78s1.43,15.86,2.14,23.78c.38,4.26.9,8.5,1.1,12.77s-1.85,7.61-5.27,10.1a14.22,14.22,0,0,1-6.7,2.62,3.39,3.39,0,0,0-.51.17Zm-2.11-70.8c0,.19-.07.31-.08.43Q94.17,647,93.07,659.48q-1.42,16.15-2.84,32.32a6.26,6.26,0,0,0,1.8,5,9.78,9.78,0,0,0,7.51,2.91h46.4a11.62,11.62,0,0,0,5.08-1.09c2.61-1.26,4.48-4,4.27-6.48q-1-12.23-2.15-24.43-1.27-14.41-2.57-28.84c-.14-1.58-.29-3.16-.44-4.72h-8.74c0,2.69,0,5.3,0,7.91a2.53,2.53,0,0,1-2.63,2.52,2.58,2.58,0,0,1-2.53-2.53c0-.8,0-1.6,0-2.4v-5.51H109.3c0,.22,0,.37,0,.53,0,2.46,0,4.92,0,7.38a2.59,2.59,0,0,1-5.17,0c0-.8,0-1.6,0-2.4v-5.55Zm13.94-5.34h26.89a13.06,13.06,0,0,0-6.3-11,12.79,12.79,0,0,0-14.29,0A13.06,13.06,0,0,0,109.3,628.82Z"/><path class="cls-3" d="M95.36,634.16h8.72v5.55c0,.8,0,1.6,0,2.4a2.59,2.59,0,0,0,5.17,0c0-2.46,0-4.92,0-7.38,0-.16,0-.31,0-.53h26.9v5.51c0,.8,0,1.6,0,2.4a2.58,2.58,0,0,0,2.53,2.53,2.53,2.53,0,0,0,2.63-2.52c0-2.61,0-5.22,0-7.91h8.74c.15,1.56.3,3.14.44,4.72q1.29,14.43,2.57,28.84,1.08,12.21,2.15,24.43c.21,2.46-1.66,5.22-4.27,6.48a11.62,11.62,0,0,1-5.08,1.09H99.54A9.78,9.78,0,0,1,92,696.84a6.26,6.26,0,0,1-1.8-5q1.42-16.15,2.84-32.32,1.09-12.45,2.21-24.89C95.29,634.47,95.33,634.35,95.36,634.16Z"/></g><g class="cls-2"><path d="M270.72,705a35.17,35.17,0,0,1-4.81-1.45c-4.28-2-7.11-5.18-7.6-10a32.29,32.29,0,0,1,.31-6c.57-6.71,1.18-13.41,1.78-20.11l1.77-19.74q.69-7.8,1.36-15.61c.1-1.22.31-2.37,1.54-2.92a4.24,4.24,0,0,1,1.7-.3c3.16,0,6.33,0,9.5,0h1a18.75,18.75,0,0,1,37.49,0h10.58c2,0,2.93.89,3.1,2.86.71,7.93,1.39,15.86,2.1,23.78s1.42,15.86,2.13,23.78c.38,4.26.9,8.5,1.1,12.77s-1.85,7.61-5.26,10.1a14.31,14.31,0,0,1-6.7,2.62,3.16,3.16,0,0,0-.52.17Zm-2.1-70.8a3.76,3.76,0,0,0-.08.43q-1.11,12.43-2.21,24.89-1.43,16.15-2.85,32.32a6.3,6.3,0,0,0,1.81,5,9.76,9.76,0,0,0,7.5,2.91h46.4a11.66,11.66,0,0,0,5.09-1.09c2.6-1.26,4.48-4,4.26-6.48q-1.05-12.23-2.14-24.43-1.29-14.41-2.57-28.84c-.14-1.58-.3-3.16-.45-4.72h-8.74c0,2.69,0,5.3,0,7.91a2.54,2.54,0,0,1-2.63,2.52,2.58,2.58,0,0,1-2.54-2.53c0-.8,0-1.6,0-2.4v-5.51H282.56c0,.22,0,.37,0,.53,0,2.46,0,4.92,0,7.38a2.59,2.59,0,0,1-5.17,0c0-.8,0-1.6,0-2.4v-5.55Zm13.93-5.34h26.89a13.06,13.06,0,0,0-6.3-11,12.79,12.79,0,0,0-14.29,0A13.06,13.06,0,0,0,282.55,628.82Z"/><path class="cls-3" d="M268.62,634.16h8.71v5.55c0,.8,0,1.6,0,2.4a2.59,2.59,0,0,0,5.17,0c0-2.46,0-4.92,0-7.38,0-.16,0-.31,0-.53h26.89v5.51c0,.8,0,1.6,0,2.4a2.58,2.58,0,0,0,2.54,2.53,2.54,2.54,0,0,0,2.63-2.52c0-2.61,0-5.22,0-7.91h8.74c.15,1.56.31,3.14.45,4.72q1.29,14.43,2.57,28.84,1.08,12.21,2.14,24.43c.22,2.46-1.66,5.22-4.26,6.48a11.66,11.66,0,0,1-5.09,1.09h-46.4a9.76,9.76,0,0,1-7.5-2.91,6.3,6.3,0,0,1-1.81-5q1.44-16.15,2.85-32.32,1.1-12.45,2.21-24.89A3.76,3.76,0,0,1,268.62,634.16Z"/></g><g class="cls-2"><path d="M444,705a35.31,35.31,0,0,1-4.82-1.45c-4.28-2-7.11-5.18-7.59-10a32.28,32.28,0,0,1,.3-6q.87-10.07,1.78-20.11.89-9.87,1.77-19.74c.46-5.2.93-10.41,1.36-15.61.11-1.22.31-2.37,1.55-2.92a4.19,4.19,0,0,1,1.69-.3c3.17,0,6.33,0,9.5,0h1a18.74,18.74,0,0,1,37.48,0h10.58c2,0,2.93.89,3.11,2.86q1.05,11.89,2.09,23.78t2.14,23.78c.38,4.26.89,8.5,1.09,12.77s-1.84,7.61-5.26,10.1a14.22,14.22,0,0,1-6.7,2.62,3.05,3.05,0,0,0-.51.17Zm-2.11-70.8a3.76,3.76,0,0,0-.08.43q-1.11,12.43-2.21,24.89-1.43,16.15-2.84,32.32a6.26,6.26,0,0,0,1.8,5,9.78,9.78,0,0,0,7.51,2.91h46.39a11.63,11.63,0,0,0,5.09-1.09c2.61-1.26,4.48-4,4.27-6.48q-1.07-12.23-2.15-24.43-1.27-14.41-2.57-28.84c-.14-1.58-.3-3.16-.44-4.72h-8.75c0,2.69,0,5.3,0,7.91a2.53,2.53,0,0,1-2.63,2.52,2.57,2.57,0,0,1-2.53-2.53c0-.8,0-1.6,0-2.4v-5.51h-26.9c0,.22,0,.37,0,.53,0,2.46,0,4.92,0,7.38a2.59,2.59,0,0,1-5.17,0c0-.8,0-1.6,0-2.4v-5.55Zm13.94-5.34H482.7a13.06,13.06,0,0,0-6.3-11,12.79,12.79,0,0,0-14.29,0A13,13,0,0,0,455.81,628.82Z"/><path class="cls-3" d="M441.87,634.16h8.72v5.55c0,.8,0,1.6,0,2.4a2.59,2.59,0,0,0,5.17,0c0-2.46,0-4.92,0-7.38,0-.16,0-.31,0-.53h26.9v5.51c0,.8,0,1.6,0,2.4a2.57,2.57,0,0,0,2.53,2.53,2.53,2.53,0,0,0,2.63-2.52c0-2.61,0-5.22,0-7.91h8.75c.14,1.56.3,3.14.44,4.72q1.29,14.43,2.57,28.84,1.08,12.21,2.15,24.43c.21,2.46-1.66,5.22-4.27,6.48a11.63,11.63,0,0,1-5.09,1.09H446.05a9.78,9.78,0,0,1-7.51-2.91,6.26,6.26,0,0,1-1.8-5q1.42-16.15,2.84-32.32,1.1-12.45,2.21-24.89A3.76,3.76,0,0,1,441.87,634.16Z"/></g><g class="cls-2"><path d="M12.47,825.45A35.14,35.14,0,0,1,7.66,824c-4.28-2-7.11-5.19-7.6-10a32.34,32.34,0,0,1,.31-6c.57-6.71,1.18-13.41,1.78-20.11l1.77-19.74q.69-7.8,1.36-15.61c.1-1.22.31-2.37,1.54-2.92a4.42,4.42,0,0,1,1.7-.3c3.16,0,6.33,0,9.5,0h1A19,19,0,0,1,37.75,731a19,19,0,0,1,18.74,18.4H67.07a2.74,2.74,0,0,1,3.11,2.86c.7,7.93,1.38,15.86,2.09,23.79s1.42,15.85,2.13,23.77c.38,4.26.9,8.51,1.1,12.77s-1.85,7.61-5.26,10.1a14.43,14.43,0,0,1-6.7,2.63,2.4,2.4,0,0,0-.52.16Zm-2.1-70.8a4.2,4.2,0,0,0-.08.43Q9.18,767.53,8.08,780,6.65,796.13,5.23,812.3a6.3,6.3,0,0,0,1.81,5,9.76,9.76,0,0,0,7.5,2.91q23.21,0,46.4,0A11.52,11.52,0,0,0,66,819.15c2.6-1.26,4.48-4,4.26-6.48q-1-12.21-2.14-24.43-1.29-14.41-2.57-28.83c-.14-1.59-.3-3.17-.45-4.73H56.39c0,2.69,0,5.3,0,7.91a2.54,2.54,0,0,1-2.63,2.52,2.57,2.57,0,0,1-2.54-2.53c0-.8,0-1.6,0-2.39v-5.52H24.31c0,.23,0,.38,0,.53,0,2.46,0,4.92,0,7.38a2.59,2.59,0,0,1-5.17,0c0-.8,0-1.6,0-2.4v-5.55Zm13.93-5.33H51.19a13.08,13.08,0,0,0-6.3-11,12.81,12.81,0,0,0-14.29,0A13.05,13.05,0,0,0,24.3,749.32Z"/><path class="cls-3" d="M10.37,754.65h8.71v5.55c0,.8,0,1.6,0,2.4a2.59,2.59,0,0,0,5.17,0c0-2.46,0-4.92,0-7.38,0-.15,0-.3,0-.53H51.2v5.52c0,.79,0,1.59,0,2.39a2.57,2.57,0,0,0,2.54,2.53,2.54,2.54,0,0,0,2.63-2.52c0-2.61,0-5.22,0-7.91h8.74c.15,1.56.31,3.14.45,4.73q1.29,14.42,2.57,28.83,1.08,12.21,2.14,24.43c.22,2.46-1.66,5.22-4.26,6.48a11.52,11.52,0,0,1-5.09,1.09q-23.2,0-46.4,0A9.76,9.76,0,0,1,7,817.33a6.3,6.3,0,0,1-1.81-5Q6.67,796.13,8.08,780q1.1-12.45,2.21-24.89A4.2,4.2,0,0,1,10.37,754.65Z"/></g><g class="cls-2"><path d="M185.73,825.45a35.28,35.28,0,0,1-4.82-1.44c-4.28-2-7.11-5.19-7.59-10a32.32,32.32,0,0,1,.3-6Q174.49,798,175.4,788q.89-9.87,1.77-19.74.71-7.8,1.36-15.61c.11-1.22.31-2.37,1.55-2.92a4.37,4.37,0,0,1,1.69-.3c3.17,0,6.33,0,9.5,0h1a18.74,18.74,0,0,1,37.48,0h10.58a2.74,2.74,0,0,1,3.11,2.86q1,11.89,2.09,23.79t2.14,23.77c.38,4.26.89,8.51,1.09,12.77s-1.84,7.61-5.26,10.1a14.34,14.34,0,0,1-6.7,2.63,2.32,2.32,0,0,0-.51.16Zm-2.11-70.8a4.2,4.2,0,0,0-.08.43q-1.11,12.45-2.21,24.89-1.43,16.15-2.84,32.33a6.25,6.25,0,0,0,1.8,5,9.78,9.78,0,0,0,7.51,2.91q23.19,0,46.39,0a11.49,11.49,0,0,0,5.09-1.09c2.61-1.26,4.48-4,4.27-6.48q-1.06-12.21-2.15-24.43-1.28-14.41-2.57-28.83c-.14-1.59-.3-3.17-.44-4.73h-8.75c0,2.69,0,5.3,0,7.91a2.53,2.53,0,0,1-2.63,2.52,2.57,2.57,0,0,1-2.53-2.53c0-.8,0-1.6,0-2.39v-5.52h-26.9c0,.23,0,.38,0,.53,0,2.46,0,4.92,0,7.38a2.59,2.59,0,0,1-5.17,0c0-.8,0-1.6,0-2.4v-5.55Zm13.94-5.33h26.89a13.08,13.08,0,0,0-6.3-11,12.81,12.81,0,0,0-14.29,0A13,13,0,0,0,197.56,749.32Z"/><path class="cls-3" d="M183.62,754.65h8.72v5.55c0,.8,0,1.6,0,2.4a2.59,2.59,0,0,0,5.17,0c0-2.46,0-4.92,0-7.38,0-.15,0-.3,0-.53h26.9v5.52c0,.79,0,1.59,0,2.39a2.57,2.57,0,0,0,2.53,2.53,2.53,2.53,0,0,0,2.63-2.52c0-2.61,0-5.22,0-7.91h8.75c.14,1.56.3,3.14.44,4.73q1.29,14.42,2.57,28.83,1.08,12.21,2.15,24.43c.21,2.46-1.66,5.22-4.27,6.48a11.49,11.49,0,0,1-5.09,1.09q-23.19,0-46.39,0a9.78,9.78,0,0,1-7.51-2.91,6.25,6.25,0,0,1-1.8-5q1.42-16.17,2.84-32.33,1.09-12.45,2.21-24.89A4.2,4.2,0,0,1,183.62,754.65Z"/></g><g class="cls-2"><path d="M359,825.45a35.14,35.14,0,0,1-4.81-1.44c-4.28-2-7.11-5.19-7.6-10a32.32,32.32,0,0,1,.3-6c.58-6.71,1.19-13.41,1.79-20.11l1.77-19.74q.69-7.8,1.36-15.61c.1-1.22.31-2.37,1.54-2.92a4.42,4.42,0,0,1,1.7-.3c3.16,0,6.33,0,9.49,0h1a18.74,18.74,0,0,1,37.48,0h10.58a2.74,2.74,0,0,1,3.11,2.86c.71,7.93,1.39,15.86,2.1,23.79s1.42,15.85,2.13,23.77c.38,4.26.9,8.51,1.1,12.77s-1.85,7.61-5.26,10.1a14.42,14.42,0,0,1-6.71,2.63,2.5,2.5,0,0,0-.51.16Zm-2.1-70.8c0,.2-.08.31-.09.43q-1.1,12.45-2.21,24.89-1.43,16.15-2.84,32.33a6.3,6.3,0,0,0,1.81,5,9.76,9.76,0,0,0,7.5,2.91q23.2,0,46.4,0a11.55,11.55,0,0,0,5.09-1.09c2.6-1.26,4.47-4,4.26-6.48q-1.05-12.21-2.15-24.43-1.27-14.41-2.56-28.83c-.14-1.59-.3-3.17-.45-4.73H402.9c0,2.69,0,5.3,0,7.91a2.55,2.55,0,0,1-2.63,2.52,2.57,2.57,0,0,1-2.54-2.53c0-.8,0-1.6,0-2.39v-5.52H370.82c0,.23,0,.38,0,.53,0,2.46,0,4.92,0,7.38a2.58,2.58,0,0,1-5.16,0c0-.8,0-1.6,0-2.4v-5.55Zm13.93-5.33H397.7a13.08,13.08,0,0,0-6.3-11,12.81,12.81,0,0,0-14.29,0A13.05,13.05,0,0,0,370.81,749.32Z"/><path class="cls-3" d="M356.88,754.65h8.71v5.55c0,.8,0,1.6,0,2.4a2.58,2.58,0,0,0,5.16,0c.05-2.46,0-4.92,0-7.38,0-.15,0-.3,0-.53h26.89v5.52c0,.79,0,1.59,0,2.39a2.57,2.57,0,0,0,2.54,2.53,2.55,2.55,0,0,0,2.63-2.52c0-2.61,0-5.22,0-7.91h8.74c.15,1.56.31,3.14.45,4.73q1.28,14.42,2.56,28.83,1.1,12.21,2.15,24.43c.21,2.46-1.66,5.22-4.26,6.48a11.55,11.55,0,0,1-5.09,1.09q-23.2,0-46.4,0a9.76,9.76,0,0,1-7.5-2.91,6.3,6.3,0,0,1-1.81-5q1.44-16.17,2.84-32.33,1.11-12.45,2.21-24.89C356.8,755,356.84,754.85,356.88,754.65Z"/></g><g class="cls-2"><path d="M532.23,825.45a35.14,35.14,0,0,1-4.81-1.44c-4.28-2-7.11-5.19-7.6-10a32.34,32.34,0,0,1,.31-6c.57-6.71,1.18-13.41,1.78-20.11s1.19-13.16,1.77-19.74c.46-5.2.93-10.41,1.36-15.61.1-1.22.31-2.37,1.55-2.92a4.33,4.33,0,0,1,1.69-.3c3.17,0,6.33,0,9.5,0h1a18.74,18.74,0,0,1,37.48,0h10.58a2.74,2.74,0,0,1,3.11,2.86Q591,764.13,592,776t2.14,23.77c.38,4.26.89,8.51,1.09,12.77s-1.85,7.61-5.26,10.1a14.38,14.38,0,0,1-6.7,2.63,2.32,2.32,0,0,0-.51.16Zm-2.1-70.8a4.2,4.2,0,0,0-.08.43q-1.11,12.45-2.21,24.89-1.43,16.15-2.84,32.33a6.25,6.25,0,0,0,1.8,5,9.76,9.76,0,0,0,7.5,2.91q23.21,0,46.4,0a11.49,11.49,0,0,0,5.09-1.09c2.61-1.26,4.48-4,4.27-6.48q-1.06-12.21-2.15-24.43-1.27-14.41-2.57-28.83c-.14-1.59-.3-3.17-.45-4.73h-8.74c0,2.69,0,5.3,0,7.91a2.58,2.58,0,0,1-5.16,0c0-.8,0-1.6,0-2.39v-5.52H544.07c0,.23,0,.38,0,.53,0,2.46,0,4.92,0,7.38a2.59,2.59,0,0,1-5.17,0c0-.8,0-1.6,0-2.4,0-1.83,0-3.67,0-5.55Zm13.93-5.33H571a13.06,13.06,0,0,0-6.3-11,12.79,12.79,0,0,0-14.28,0A13,13,0,0,0,544.06,749.32Z"/><path class="cls-3" d="M530.13,754.65h8.71c0,1.88,0,3.72,0,5.55,0,.8,0,1.6,0,2.4a2.59,2.59,0,0,0,5.17,0c0-2.46,0-4.92,0-7.38,0-.15,0-.3,0-.53H571v5.52c0,.79,0,1.59,0,2.39a2.58,2.58,0,0,0,5.16,0c0-2.61,0-5.22,0-7.91h8.74c.15,1.56.31,3.14.45,4.73q1.29,14.42,2.57,28.83,1.08,12.21,2.15,24.43c.21,2.46-1.66,5.22-4.27,6.48a11.49,11.49,0,0,1-5.09,1.09q-23.19,0-46.4,0a9.76,9.76,0,0,1-7.5-2.91,6.25,6.25,0,0,1-1.8-5q1.43-16.17,2.84-32.33,1.1-12.45,2.21-24.89A4.2,4.2,0,0,1,530.13,754.65Z"/></g></g></g></svg>